<?xml version="1.0" encoding="UTF-8"?>
<!DOCTYPE svg PUBLIC "-//W3C//DTD SVG 1.1//EN" "http://www.w3.org/Graphics/SVG/1.1/DTD/svg11.dtd">
<svg xmlns="http://www.w3.org/2000/svg" version="1.1" width="3840px" height="2160px" style="shape-rendering:geometricPrecision; text-rendering:geometricPrecision; image-rendering:optimizeQuality; fill-rule:evenodd; clip-rule:evenodd" xmlns:xlink="http://www.w3.org/1999/xlink">
<g><path style="opacity:0.99" fill="#e01f21" d="M 2061.5,25.5 C 2061.56,24.9569 2061.89,24.6236 2062.5,24.5C 2080.7,45.5637 2092.53,69.897 2098,97.5C 2104.36,135.275 2100.36,171.941 2086,207.5C 2071.14,242.9 2051.48,275.234 2027,304.5C 2004.51,330.661 1980.34,355.161 1954.5,378C 1930.13,397.524 1906.13,417.524 1882.5,438C 1860.31,458.835 1841.15,482.002 1825,507.5C 1797.72,554.622 1795.39,602.955 1818,652.5C 1825.91,668.649 1834.57,684.316 1844,699.5C 1863.72,727.559 1883.06,755.893 1902,784.5C 1908.78,795.39 1914.45,806.724 1919,818.5C 1884.48,787.985 1851.15,755.985 1819,722.5C 1796.38,698.56 1776.05,672.893 1758,645.5C 1747.51,628.521 1739.18,610.521 1733,591.5C 1722.25,555.687 1726.25,521.687 1745,489.5C 1762.17,463.644 1782.34,440.144 1805.5,419C 1844.96,385.196 1885.3,352.53 1926.5,321C 1956.19,297.647 1983.69,271.814 2009,243.5C 2032.93,215.85 2050.6,184.517 2062,149.5C 2073.38,107.998 2073.21,66.6649 2061.5,25.5 Z"/></g>
<g><path style="opacity:0.99" fill="#e01f21" d="M 2241.5,319.5 C 2242.24,319.369 2242.91,319.536 2243.5,320C 2188.27,351.77 2135.27,386.77 2084.5,425C 2063.67,442.159 2044.51,460.993 2027,481.5C 1996.66,520.327 1994.66,560.66 2021,602.5C 2035.22,624.718 2050.22,646.384 2066,667.5C 2091.03,710.107 2089.03,751.44 2060,791.5C 2034.12,823.718 2003.12,849.718 1967,869.5C 1979.34,856.614 1990.17,842.281 1999.5,826.5C 2015.59,796.113 2015.09,765.78 1998,735.5C 1982.85,716.526 1968.18,697.192 1954,677.5C 1936.42,651.044 1925.42,622.378 1921,591.5C 1917.55,553.315 1926.88,518.648 1949,487.5C 1964.39,466.104 1982.56,447.271 2003.5,431C 2057.57,391.355 2116.57,360.688 2180.5,339C 2200.79,331.956 2221.13,325.456 2241.5,319.5 Z"/></g>
<g><path style="opacity:0.986" fill="#136db5" d="M 2253.5,834.5 C 2258.49,826.354 2265.49,820.521 2274.5,817C 2312.34,802.689 2350,803.023 2387.5,818C 2431.68,838.851 2452.51,873.684 2450,922.5C 2447,942.832 2439.33,961.165 2427,977.5C 2404.65,1005.86 2377.48,1028.36 2345.5,1045C 2305.96,1065.46 2264.63,1081.29 2221.5,1092.5C 2220.48,1092 2220.31,1091.33 2221,1090.5C 2223.19,1088.61 2225.02,1086.44 2226.5,1084C 2270.2,1062.66 2309.54,1035.16 2344.5,1001.5C 2361.41,984.749 2374.58,965.415 2384,943.5C 2398.67,899.846 2387.17,865.013 2349.5,839C 2330.94,828.026 2310.94,823.693 2289.5,826C 2277.33,828.209 2265.33,831.042 2253.5,834.5 Z"/></g>
<g><path style="opacity:0.984" fill="#136db5" d="M 1724.5,820.5 C 1734.17,820.334 1743.84,820.5 1753.5,821C 1719.35,829.716 1685.68,840.05 1652.5,852C 1636.67,857.582 1622,865.249 1608.5,875C 1602.62,881.808 1603.28,887.808 1610.5,893C 1619.09,897.197 1628.09,900.197 1637.5,902C 1668.93,907.48 1700.59,910.48 1732.5,911C 1898.13,914.407 2062.8,902.073 2226.5,874C 2203.4,884.713 2181.07,896.713 2159.5,910C 2106.18,923.22 2052.18,932.553 1997.5,938C 1871.07,951.223 1744.74,951.89 1618.5,940C 1585.72,936.912 1553.72,930.245 1522.5,920C 1514.03,917.023 1506.87,912.189 1501,905.5C 1498.85,900.673 1499.19,896.006 1502,891.5C 1509.06,884.06 1517.22,878.227 1526.5,874C 1589.32,843.964 1655.32,826.131 1724.5,820.5 Z"/></g>
<g><path style="opacity:0.165" fill="#7e4a72" d="M 2253.5,834.5 C 2252.83,835.167 2252.83,835.167 2253.5,834.5 Z"/></g>
<g><path style="opacity:0.989" fill="#116db5" d="M 1689.5,985.5 C 1690.55,985.351 1691.55,985.517 1692.5,986C 1684.85,991.313 1679.02,998.146 1675,1006.5C 1671.24,1018.81 1675.4,1027.31 1687.5,1032C 1695.91,1035.27 1704.57,1037.6 1713.5,1039C 1825.85,1053.38 1938.19,1051.38 2050.5,1033C 2071.45,1029.01 2092.45,1025.67 2113.5,1023C 2130.55,1038.53 2149.88,1050.53 2171.5,1059C 2027.21,1100.69 1880.54,1112.36 1731.5,1094C 1698.72,1089.91 1667.38,1080.91 1637.5,1067C 1628.05,1062.55 1620.89,1055.72 1616,1046.5C 1614,1041.17 1614,1035.83 1616,1030.5C 1622.59,1019.95 1631.42,1011.78 1642.5,1006C 1657.79,998.016 1673.46,991.182 1689.5,985.5 Z"/></g>
<g><path style="opacity:0.991" fill="#106db5" d="M 1724.5,1143.5 C 1725.55,1143.35 1726.55,1143.52 1727.5,1144C 1719.39,1148.27 1714.06,1154.77 1711.5,1163.5C 1712.39,1167.91 1714.73,1171.41 1718.5,1174C 1730.51,1179.84 1743.18,1183.5 1756.5,1185C 1830.72,1196.22 1905.05,1197.22 1979.5,1188C 2008.49,1184.08 2037.33,1179.25 2066,1173.5C 2091.82,1188.56 2118.66,1201.73 2146.5,1213C 2077.27,1242.11 2005.11,1258.61 1930,1262.5C 1868.59,1266.54 1807.76,1261.7 1747.5,1248C 1722.16,1242.22 1698.49,1232.56 1676.5,1219C 1650.35,1198.61 1651.35,1179.61 1679.5,1162C 1694,1154.34 1709,1148.18 1724.5,1143.5 Z"/></g>
<g><path style="opacity:0.985" fill="#136db5" d="M 1562.5,1248.5 C 1574.54,1248.16 1586.54,1248.66 1598.5,1250C 1604.78,1250.98 1610.44,1253.31 1615.5,1257C 1571.71,1258.82 1530.38,1269.82 1491.5,1290C 1486.08,1293.42 1481.24,1297.59 1477,1302.5C 1474.1,1308.92 1475.6,1314.09 1481.5,1318C 1499.99,1327.05 1519.32,1333.72 1539.5,1338C 1605.17,1351.22 1671.51,1358.89 1738.5,1361C 1893,1367.6 2047,1361.6 2200.5,1343C 2235.89,1338.38 2270.89,1331.71 2305.5,1323C 2323.83,1318.56 2340.83,1311.23 2356.5,1301C 2360.75,1297.42 2364.25,1293.25 2367,1288.5C 2368.46,1284.26 2368.79,1279.93 2368,1275.5C 2366.03,1269.87 2363.36,1264.87 2360,1260.5C 2368.71,1264.35 2376.38,1269.69 2383,1276.5C 2388.57,1284.59 2388.91,1292.92 2384,1301.5C 2377.28,1309.61 2369.44,1316.44 2360.5,1322C 2330.72,1337.89 2299.38,1349.89 2266.5,1358C 2199.4,1374.85 2131.4,1386.52 2062.5,1393C 1868.53,1410.75 1674.2,1404.75 1479.5,1375C 1453.35,1372.3 1428.01,1366.3 1403.5,1357C 1395.06,1353.22 1388.56,1347.38 1384,1339.5C 1382.96,1333.61 1383.63,1327.94 1386,1322.5C 1394.7,1310.57 1405.54,1301.07 1418.5,1294C 1463.7,1269.66 1511.7,1254.49 1562.5,1248.5 Z"/></g>
<g><path style="opacity:0.978" fill="#166db4" d="M 2450.5,1334.5 C 2451.12,1340.93 2449.95,1347.26 2447,1353.5C 2438.32,1370.52 2425.82,1384.02 2409.5,1394C 2384.96,1408.6 2358.96,1419.93 2331.5,1428C 2270.55,1444.94 2208.55,1456.27 2145.5,1462C 2001.34,1475.99 1857.34,1475.99 1713.5,1462C 1676.92,1458.35 1640.92,1451.68 1605.5,1442C 1595,1438.75 1585,1434.42 1575.5,1429C 1776.22,1456.19 1977.72,1455.69 2180,1427.5C 2247.04,1418.36 2312.54,1402.86 2376.5,1381C 2402.38,1372.32 2425.55,1359.15 2446,1341.5C 2447.72,1339.28 2449.22,1336.95 2450.5,1334.5 Z"/></g>
<g><path style="opacity:0.997" fill="#e02022" d="M 1423.5,1565.5 C 1447.83,1565.5 1472.17,1565.5 1496.5,1565.5C 1496.49,1696.15 1496.49,1826.65 1496.5,1957C 1495.92,1978.22 1494.09,1999.39 1491,2020.5C 1484.13,2056.32 1466.29,2085.15 1437.5,2107C 1421.64,2118.68 1404.47,2128.18 1386,2135.5C 1374.5,2122 1363,2108.5 1351.5,2095C 1379.72,2081.45 1400.55,2060.61 1414,2032.5C 1416.79,2024.36 1418.79,2016.02 1420,2007.5C 1421.86,1991.56 1422.86,1975.56 1423,1959.5C 1423.5,1828.17 1423.67,1696.83 1423.5,1565.5 Z"/></g>
<g><path style="opacity:0.99" fill="#e01f21" d="M 1667.5,1677.5 C 1696.28,1675.2 1724.28,1678.7 1751.5,1688C 1787.06,1704.24 1805.23,1732.08 1806,1771.5C 1806.5,1852.83 1806.67,1934.17 1806.5,2015.5C 1788.5,2015.67 1770.5,2015.5 1752.5,2015C 1750.61,2003.41 1748.44,1991.91 1746,1980.5C 1702.96,2019.97 1653.46,2031.47 1597.5,2015C 1564.76,2002.07 1547.26,1977.9 1545,1942.5C 1540.77,1890.79 1562.27,1854.62 1609.5,1834C 1631.68,1825.23 1654.68,1819.9 1678.5,1818C 1698.14,1816.71 1717.81,1816.21 1737.5,1816.5C 1737.67,1803.5 1737.5,1790.5 1737,1777.5C 1733.17,1747.34 1716.01,1731.18 1685.5,1729C 1646.35,1727 1608.69,1733.17 1572.5,1747.5C 1568.01,1733.24 1564.68,1718.9 1562.5,1704.5C 1596.13,1689.68 1631.13,1680.68 1667.5,1677.5 Z M 1692.5,1860.5 C 1707.35,1860.65 1722.35,1860.65 1737.5,1860.5C 1737.67,1886.5 1737.5,1912.5 1737,1938.5C 1716.65,1958.17 1692.32,1969.17 1664,1971.5C 1636.34,1971.69 1619.68,1958.36 1614,1931.5C 1609.23,1894.61 1625.06,1872.44 1661.5,1865C 1671.92,1863.08 1682.25,1861.58 1692.5,1860.5 Z"/></g>
<g><path style="opacity:0.99" fill="#e01f21" d="M 2286.5,1677.5 C 2315.28,1675.2 2343.28,1678.7 2370.5,1688C 2405.84,1704.39 2424.01,1732.22 2425,1771.5C 2425.5,1852.83 2425.67,1934.17 2425.5,2015.5C 2407.17,2015.5 2388.83,2015.5 2370.5,2015.5C 2369.63,2003.6 2367.8,1991.94 2365,1980.5C 2321.96,2019.97 2272.46,2031.47 2216.5,2015C 2184.54,2001.96 2167.04,1978.13 2164,1943.5C 2160.34,1885.31 2186.17,1847.14 2241.5,1829C 2279.1,1818.4 2317.43,1814.24 2356.5,1816.5C 2356.67,1803.5 2356.5,1790.5 2356,1777.5C 2352.17,1747.34 2335,1731.17 2304.5,1729C 2265.35,1727 2227.69,1733.17 2191.5,1747.5C 2187.53,1733.61 2183.86,1719.61 2180.5,1705.5C 2214.26,1689.9 2249.59,1680.56 2286.5,1677.5 Z M 2311.5,1860.5 C 2326.35,1860.65 2341.35,1860.65 2356.5,1860.5C 2356.67,1886.5 2356.5,1912.5 2356,1938.5C 2335.66,1958.17 2311.32,1969.17 2283,1971.5C 2255.33,1971.69 2238.66,1958.36 2233,1931.5C 2228.07,1894.92 2243.4,1873.25 2279,1866.5C 2280.83,1864.93 2282.99,1864.09 2285.5,1864C 2294.29,1862.65 2302.96,1861.49 2311.5,1860.5 Z"/></g>
<g><path style="opacity:0.991" fill="#e01f21" d="M 1845.5,1683.5 C 1870.5,1683.5 1895.5,1683.5 1920.5,1683.5C 1940.15,1748.97 1960.32,1814.3 1981,1879.5C 1986.49,1901.79 1991.82,1924.13 1997,1946.5C 2027.93,1861.45 2049.76,1774.12 2062.5,1684.5C 2086.83,1683.33 2111.16,1683.17 2135.5,1684C 2119.02,1774.07 2094.52,1861.91 2062,1947.5C 2053.11,1970.16 2043.45,1992.5 2033,2014.5C 2029.67,2015.17 2026.33,2015.83 2023,2016.5C 1997.58,2015.58 1972.08,2015.25 1946.5,2015.5C 1913.14,1904.75 1879.48,1794.08 1845.5,1683.5 Z"/></g>
<g><path style="opacity:0.881" fill="#d7282b" d="M 2430.5,1683.5 C 2437.83,1683.5 2445.17,1683.5 2452.5,1683.5C 2452.29,1685.14 2452.62,1686.64 2453.5,1688C 2452.58,1688.37 2451.75,1688.87 2451,1689.5C 2449.47,1689.06 2447.97,1688.72 2446.5,1688.5C 2445.67,1695.81 2445.17,1703.14 2445,1710.5C 2443,1711.83 2441,1711.83 2439,1710.5C 2438.83,1703.14 2438.33,1695.81 2437.5,1688.5C 2435.17,1688.45 2433,1688.78 2431,1689.5C 2430.5,1687.53 2430.34,1685.53 2430.5,1683.5 Z"/></g>
<g><path style="opacity:0.868" fill="#dd2224" d="M 2456.5,1683.5 C 2459.5,1683.5 2462.5,1683.5 2465.5,1683.5C 2467.16,1689.66 2469.33,1695.66 2472,1701.5C 2474.17,1695.83 2476.33,1690.17 2478.5,1684.5C 2481.43,1683.52 2484.43,1683.18 2487.5,1683.5C 2487.5,1692.83 2487.5,1702.17 2487.5,1711.5C 2485.5,1711.5 2483.5,1711.5 2481.5,1711.5C 2481.67,1705.16 2481.5,1698.82 2481,1692.5C 2479.33,1697.17 2477.67,1701.83 2476,1706.5C 2475.05,1711.48 2472.72,1712.48 2469,1709.5C 2467.2,1703.76 2465.2,1698.09 2463,1692.5C 2462.5,1698.82 2462.33,1705.16 2462.5,1711.5C 2460.5,1711.5 2458.5,1711.5 2456.5,1711.5C 2456.5,1702.17 2456.5,1692.83 2456.5,1683.5 Z"/></g>
</svg>
