<?xml version="1.0" encoding="UTF-8"?>
<!DOCTYPE svg PUBLIC "-//W3C//DTD SVG 1.1//EN" "http://www.w3.org/Graphics/SVG/1.1/DTD/svg11.dtd">
<svg xmlns="http://www.w3.org/2000/svg" version="1.1" width="1001px" height="1334px" style="shape-rendering:geometricPrecision; text-rendering:geometricPrecision; image-rendering:optimizeQuality; fill-rule:evenodd; clip-rule:evenodd" xmlns:xlink="http://www.w3.org/1999/xlink">
<g><path style="opacity:0.329" fill="#f34134" d="M 580.5,1.5 C 579.833,0.166667 579.833,0.166667 580.5,1.5 Z"/></g>
<g><path style="opacity:0.463" fill="#f34134" d="M 580.5,1.5 C 581.488,2.79502 582.488,4.12835 583.5,5.5C 582.662,5.84171 582.328,6.50838 582.5,7.5C 581.262,5.7857 580.595,3.7857 580.5,1.5 Z"/></g>
<g><path style="opacity:0.995" fill="#f34134" d="M 583.5,5.5 C 631.472,82.42 629.972,158.42 579,233.5C 560.248,260.302 539.581,285.635 517,309.5C 483.489,342.669 451.822,377.335 422,413.5C 408.364,431.442 399.03,451.442 394,473.5C 392.005,483.895 392.339,494.229 395,504.5C 419.461,571.115 450.294,634.448 487.5,694.5C 487.167,694.5 486.833,694.5 486.5,694.5C 430.133,655.306 380.967,608.306 339,553.5C 324.75,533.674 313.084,512.341 304,489.5C 286.351,442.035 293.018,398.368 324,358.5C 345.431,332.401 368.931,308.234 394.5,286C 432.724,254.712 470.391,222.712 507.5,190C 527.192,171.318 545.025,151.152 561,129.5C 578.443,105.174 587.943,78.0071 589.5,48C 588.945,34.169 586.612,20.669 582.5,7.5C 582.328,6.50838 582.662,5.84171 583.5,5.5 Z"/></g>
<g><path style="opacity:0.374" fill="#f44135" d="M 788.5,235.5 C 789.946,234.387 791.613,234.22 793.5,235C 792.956,235.717 792.289,236.217 791.5,236.5C 790.791,235.596 789.791,235.263 788.5,235.5 Z"/></g>
<g><path style="opacity:0.995" fill="#f34134" d="M 788.5,235.5 C 789.791,235.263 790.791,235.596 791.5,236.5C 747.699,264.46 705.699,294.96 665.5,328C 644.965,345.534 626.132,364.701 609,385.5C 601.269,395.296 595.936,406.296 593,418.5C 591.099,438.564 594.765,457.564 604,475.5C 613.264,493.752 622.931,511.752 633,529.5C 665.136,594.114 652.636,648.28 595.5,692C 574.269,707.184 550.936,717.517 525.5,723C 546.379,704.46 561.213,681.96 570,655.5C 574.529,636.595 572.862,618.262 565,600.5C 561.588,593.342 557.922,586.342 554,579.5C 536.352,555.491 520.685,530.158 507,503.5C 492.235,467.707 491.901,431.707 506,395.5C 517.757,364.813 536.257,338.98 561.5,318C 590.822,294.331 623.488,276.331 659.5,264C 701.288,248.969 744.288,239.469 788.5,235.5 Z"/></g>
<g><path style="opacity:0.984" fill="#1464bf" d="M 854.5,669.5 C 912.775,672.605 944.942,703.272 951,761.5C 954.244,813.795 936.411,857.295 897.5,892C 852.636,927.524 801.636,948.857 744.5,956C 788.841,924.994 825.675,886.827 855,841.5C 870.274,817.35 877.607,791.017 877,762.5C 870.815,732.975 853.315,713.475 824.5,704C 806.684,699.23 788.684,698.23 770.5,701C 795.49,682.284 823.49,671.784 854.5,669.5 Z"/></g>
<g><path style="opacity:0.985" fill="#1464bf" d="M 307.5,670.5 C 321.171,670.333 334.837,670.5 348.5,671C 320.901,677.867 293.901,686.533 267.5,697C 255.742,701.621 245.242,708.121 236,716.5C 230.144,723.894 231.644,729.06 240.5,732C 251.921,735.515 263.587,737.848 275.5,739C 317.076,742.783 358.742,744.617 400.5,744.5C 482.029,744.118 563.362,739.951 644.5,732C 680.728,728.205 716.728,723.205 752.5,717C 726.644,739.528 699.644,760.528 671.5,780C 526.989,808.537 381.323,817.203 234.5,806C 199.612,803.222 165.612,796.222 132.5,785C 118.472,779.957 106.306,772.123 96,761.5C 87.3938,748.901 87.3938,736.234 96,723.5C 108.619,710.098 123.786,700.598 141.5,695C 166.961,686.908 192.961,681.241 219.5,678C 248.903,674.497 278.237,671.997 307.5,670.5 Z"/></g>
<g><path style="opacity:0.418" fill="#f44135" d="M 486.5,694.5 C 486.833,694.5 487.167,694.5 487.5,694.5C 488.504,697.105 488.17,697.105 486.5,694.5 Z"/></g>
<g><path style="opacity:0.986" fill="#1464bf" d="M 281.5,818.5 C 283.199,818.34 284.866,818.506 286.5,819C 264.703,839.337 268.036,854.67 296.5,865C 320.221,872.787 344.555,877.454 369.5,879C 458.092,885.568 545.092,876.734 630.5,852.5C 656.916,867.881 682.916,884.048 708.5,901C 644.593,926.559 578.26,942.226 509.5,948C 438.127,954.771 367.127,952.104 296.5,940C 271.714,935.626 247.714,928.626 224.5,919C 212.354,914.178 201.854,907.012 193,897.5C 186.421,887.967 185.754,877.967 191,867.5C 199.742,854.705 210.909,844.539 224.5,837C 242.492,827.279 261.492,821.113 281.5,818.5 Z"/></g>
<g><path style="opacity:0.987" fill="#1463bf" d="M 312.5,957.5 C 316.182,957.335 319.848,957.501 323.5,958C 312.215,969.284 312.882,979.617 325.5,989C 344.303,997.08 363.97,1001.41 384.5,1002C 451.051,1005.35 516.384,998.012 580.5,980C 589.054,977.389 597.387,974.222 605.5,970.5C 633.215,988.351 660.548,1006.68 687.5,1025.5C 664.969,1039.18 640.969,1049.68 615.5,1057C 519.045,1083.59 421.378,1089.25 322.5,1074C 296.171,1070.12 271.838,1061.12 249.5,1047C 230.235,1030.34 228.402,1011.84 244,991.5C 262.46,971.295 285.293,959.962 312.5,957.5 Z"/></g>
<g><path style="opacity:0.986" fill="#1464bf" d="M 129.5,1025.5 C 147.915,1025.41 166.248,1026.57 184.5,1029C 201.071,1037.9 217.404,1047.23 233.5,1057C 204.854,1052.86 176.854,1055.53 149.5,1065C 137.032,1069.15 127.199,1076.65 120,1087.5C 117.56,1094.64 118.56,1101.31 123,1107.5C 131.928,1117.56 142.761,1125.06 155.5,1130C 191.698,1143.72 229.032,1153.05 267.5,1158C 391.999,1174.41 516.666,1175.74 641.5,1162C 696.483,1156.59 749.817,1144.25 801.5,1125C 822.375,1117.1 840.209,1104.93 855,1088.5C 862.482,1079.19 866.315,1068.53 866.5,1056.5C 865.897,1049 864.73,1041.67 863,1034.5C 876.734,1041.2 889.068,1049.86 900,1060.5C 909.877,1073.42 912.543,1087.75 908,1103.5C 903.029,1117.81 894.862,1129.97 883.5,1140C 859.728,1158.73 833.395,1173.06 804.5,1183C 746.879,1202.15 687.879,1215.15 627.5,1222C 483.102,1239.58 339.102,1236.92 195.5,1214C 148.617,1206.37 103.617,1192.7 60.5,1173C 44.322,1164.82 29.822,1154.32 17,1141.5C 6.80829,1130.11 1.30829,1116.78 0.5,1101.5C 0.302239,1096.32 1.13557,1091.32 3,1086.5C 9.67901,1072.82 19.5123,1061.99 32.5,1054C 62.538,1036.49 94.8714,1026.99 129.5,1025.5 Z"/></g>
<g><path style="opacity:0.978" fill="#1464bf" d="M 1000.5,1153.5 C 1000.5,1157.17 1000.5,1160.83 1000.5,1164.5C 997.246,1181.35 990.412,1196.68 980,1210.5C 960.722,1233.11 937.888,1251.28 911.5,1265C 862.662,1289.39 811.329,1306.39 757.5,1316C 704.779,1325.77 651.779,1331.6 598.5,1333.5C 577.167,1333.5 555.833,1333.5 534.5,1333.5C 422.256,1330.4 312.922,1310.57 206.5,1274C 191.009,1268.39 175.675,1262.39 160.5,1256C 242.166,1274.57 324.832,1286.91 408.5,1293C 510.07,1300.42 611.07,1295.75 711.5,1279C 774.849,1268.33 835.849,1249.99 894.5,1224C 933.793,1206.16 969.126,1182.66 1000.5,1153.5 Z"/></g>
</svg>
