<?xml version="1.0" encoding="UTF-8"?>
<!DOCTYPE svg PUBLIC "-//W3C//DTD SVG 1.1//EN" "http://www.w3.org/Graphics/SVG/1.1/DTD/svg11.dtd">
<svg xmlns="http://www.w3.org/2000/svg" version="1.1" width="348px" height="379px" style="shape-rendering:geometricPrecision; text-rendering:geometricPrecision; image-rendering:optimizeQuality; fill-rule:evenodd; clip-rule:evenodd" xmlns:xlink="http://www.w3.org/1999/xlink">
<g><path style="opacity:1" fill="#fefffe" d="M -0.5,-0.5 C 4.5,-0.5 9.5,-0.5 14.5,-0.5C 14.5,4.5 14.5,9.5 14.5,14.5C 9.5,14.5 4.5,14.5 -0.5,14.5C -0.5,9.5 -0.5,4.5 -0.5,-0.5 Z"/></g>
<g><path style="opacity:1" fill="#edeeed" d="M 14.5,-0.5 C 19.5,-0.5 24.5,-0.5 29.5,-0.5C 29.5,4.5 29.5,9.5 29.5,14.5C 24.5,14.5 19.5,14.5 14.5,14.5C 14.5,9.5 14.5,4.5 14.5,-0.5 Z"/></g>
<g><path style="opacity:1" fill="#fefffe" d="M 29.5,-0.5 C 34.5,-0.5 39.5,-0.5 44.5,-0.5C 44.5,4.5 44.5,9.5 44.5,14.5C 39.5,14.5 34.5,14.5 29.5,14.5C 29.5,9.5 29.5,4.5 29.5,-0.5 Z"/></g>
<g><path style="opacity:1" fill="#edeeed" d="M 44.5,-0.5 C 49.5,-0.5 54.5,-0.5 59.5,-0.5C 59.5,4.5 59.5,9.5 59.5,14.5C 54.5,14.5 49.5,14.5 44.5,14.5C 44.5,9.5 44.5,4.5 44.5,-0.5 Z"/></g>
<g><path style="opacity:1" fill="#fefffe" d="M 59.5,-0.5 C 64.5,-0.5 69.5,-0.5 74.5,-0.5C 74.5,4.5 74.5,9.5 74.5,14.5C 69.5,14.5 64.5,14.5 59.5,14.5C 59.5,9.5 59.5,4.5 59.5,-0.5 Z"/></g>
<g><path style="opacity:1" fill="#edeeed" d="M 74.5,-0.5 C 79.5,-0.5 84.5,-0.5 89.5,-0.5C 89.5,4.5 89.5,9.5 89.5,14.5C 84.5,14.5 79.5,14.5 74.5,14.5C 74.5,9.5 74.5,4.5 74.5,-0.5 Z"/></g>
<g><path style="opacity:1" fill="#fefffe" d="M 89.5,-0.5 C 94.5,-0.5 99.5,-0.5 104.5,-0.5C 104.5,4.5 104.5,9.5 104.5,14.5C 99.5,14.5 94.5,14.5 89.5,14.5C 89.5,9.5 89.5,4.5 89.5,-0.5 Z"/></g>
<g><path style="opacity:1" fill="#edeeed" d="M 104.5,-0.5 C 109.5,-0.5 114.5,-0.5 119.5,-0.5C 119.5,4.5 119.5,9.5 119.5,14.5C 114.5,14.5 109.5,14.5 104.5,14.5C 104.5,9.5 104.5,4.5 104.5,-0.5 Z"/></g>
<g><path style="opacity:1" fill="#fefffe" d="M 119.5,-0.5 C 124.5,-0.5 129.5,-0.5 134.5,-0.5C 134.5,4.5 134.5,9.5 134.5,14.5C 129.5,14.5 124.5,14.5 119.5,14.5C 119.5,9.5 119.5,4.5 119.5,-0.5 Z"/></g>
<g><path style="opacity:1" fill="#edeeed" d="M 134.5,-0.5 C 139.5,-0.5 144.5,-0.5 149.5,-0.5C 149.5,4.5 149.5,9.5 149.5,14.5C 144.5,14.5 139.5,14.5 134.5,14.5C 134.5,9.5 134.5,4.5 134.5,-0.5 Z"/></g>
<g><path style="opacity:1" fill="#fefffe" d="M 149.5,-0.5 C 154.5,-0.5 159.5,-0.5 164.5,-0.5C 164.5,4.5 164.5,9.5 164.5,14.5C 159.5,14.5 154.5,14.5 149.5,14.5C 149.5,9.5 149.5,4.5 149.5,-0.5 Z"/></g>
<g><path style="opacity:1" fill="#edeeed" d="M 164.5,-0.5 C 169.5,-0.5 174.5,-0.5 179.5,-0.5C 179.5,4.5 179.5,9.5 179.5,14.5C 174.5,14.5 169.5,14.5 164.5,14.5C 164.5,9.5 164.5,4.5 164.5,-0.5 Z"/></g>
<g><path style="opacity:1" fill="#fefffe" d="M 179.5,-0.5 C 184.5,-0.5 189.5,-0.5 194.5,-0.5C 194.5,4.5 194.5,9.5 194.5,14.5C 189.5,14.5 184.5,14.5 179.5,14.5C 179.5,9.5 179.5,4.5 179.5,-0.5 Z"/></g>
<g><path style="opacity:1" fill="#edeeed" d="M 194.5,-0.5 C 199.5,-0.5 204.5,-0.5 209.5,-0.5C 209.5,4.5 209.5,9.5 209.5,14.5C 204.5,14.5 199.5,14.5 194.5,14.5C 194.5,9.5 194.5,4.5 194.5,-0.5 Z"/></g>
<g><path style="opacity:1" fill="#fefffe" d="M 209.5,-0.5 C 214.5,-0.5 219.5,-0.5 224.5,-0.5C 224.5,4.5 224.5,9.5 224.5,14.5C 219.5,14.5 214.5,14.5 209.5,14.5C 209.5,9.5 209.5,4.5 209.5,-0.5 Z"/></g>
<g><path style="opacity:1" fill="#edeeed" d="M 224.5,-0.5 C 229.5,-0.5 234.5,-0.5 239.5,-0.5C 239.5,4.5 239.5,9.5 239.5,14.5C 234.5,14.5 229.5,14.5 224.5,14.5C 224.5,9.5 224.5,4.5 224.5,-0.5 Z"/></g>
<g><path style="opacity:1" fill="#fefffe" d="M 239.5,-0.5 C 244.5,-0.5 249.5,-0.5 254.5,-0.5C 254.5,4.5 254.5,9.5 254.5,14.5C 249.5,14.5 244.5,14.5 239.5,14.5C 239.5,9.5 239.5,4.5 239.5,-0.5 Z"/></g>
<g><path style="opacity:1" fill="#edeeed" d="M 254.5,-0.5 C 259.5,-0.5 264.5,-0.5 269.5,-0.5C 269.5,4.5 269.5,9.5 269.5,14.5C 264.5,14.5 259.5,14.5 254.5,14.5C 254.5,9.5 254.5,4.5 254.5,-0.5 Z"/></g>
<g><path style="opacity:1" fill="#fefffe" d="M 269.5,-0.5 C 274.5,-0.5 279.5,-0.5 284.5,-0.5C 284.5,4.5 284.5,9.5 284.5,14.5C 279.5,14.5 274.5,14.5 269.5,14.5C 269.5,9.5 269.5,4.5 269.5,-0.5 Z"/></g>
<g><path style="opacity:1" fill="#edeeed" d="M 284.5,-0.5 C 289.5,-0.5 294.5,-0.5 299.5,-0.5C 299.5,4.5 299.5,9.5 299.5,14.5C 294.5,14.5 289.5,14.5 284.5,14.5C 284.5,9.5 284.5,4.5 284.5,-0.5 Z"/></g>
<g><path style="opacity:1" fill="#fefffe" d="M 299.5,-0.5 C 304.5,-0.5 309.5,-0.5 314.5,-0.5C 314.5,4.5 314.5,9.5 314.5,14.5C 309.5,14.5 304.5,14.5 299.5,14.5C 299.5,9.5 299.5,4.5 299.5,-0.5 Z"/></g>
<g><path style="opacity:1" fill="#fafafa" d="M 314.5,-0.5 C 325.5,-0.5 336.5,-0.5 347.5,-0.5C 347.5,119.5 347.5,239.5 347.5,359.5C 346.5,359.5 345.5,359.5 344.5,359.5C 344.5,364.5 344.5,369.5 344.5,374.5C 339.5,374.5 334.5,374.5 329.5,374.5C 329.5,369.5 329.5,364.5 329.5,359.5C 324.5,359.5 319.5,359.5 314.5,359.5C 314.5,364.5 314.5,369.5 314.5,374.5C 309.5,374.5 304.5,374.5 299.5,374.5C 299.5,369.5 299.5,364.5 299.5,359.5C 294.5,359.5 289.5,359.5 284.5,359.5C 284.5,355.167 284.5,350.833 284.5,346.5C 283.209,346.737 282.209,346.404 281.5,345.5C 289.166,345.452 295.333,342.452 300,336.5C 300.497,338.81 300.663,341.143 300.5,343.5C 309.986,344.494 319.652,344.827 329.5,344.5C 329.5,339.5 329.5,334.5 329.5,329.5C 334.5,329.5 339.5,329.5 344.5,329.5C 344.5,324.5 344.5,319.5 344.5,314.5C 339.5,314.5 334.5,314.5 329.5,314.5C 329.5,309.5 329.5,304.5 329.5,299.5C 334.5,299.5 339.5,299.5 344.5,299.5C 344.5,294.5 344.5,289.5 344.5,284.5C 339.5,284.5 334.5,284.5 329.5,284.5C 329.5,279.5 329.5,274.5 329.5,269.5C 334.5,269.5 339.5,269.5 344.5,269.5C 344.5,264.5 344.5,259.5 344.5,254.5C 339.5,254.5 334.5,254.5 329.5,254.5C 329.5,249.5 329.5,244.5 329.5,239.5C 334.5,239.5 339.5,239.5 344.5,239.5C 344.5,234.5 344.5,229.5 344.5,224.5C 339.5,224.5 334.5,224.5 329.5,224.5C 329.5,219.5 329.5,214.5 329.5,209.5C 334.5,209.5 339.5,209.5 344.5,209.5C 344.5,204.5 344.5,199.5 344.5,194.5C 339.5,194.5 334.5,194.5 329.5,194.5C 329.5,189.5 329.5,184.5 329.5,179.5C 334.5,179.5 339.5,179.5 344.5,179.5C 344.5,174.5 344.5,169.5 344.5,164.5C 339.5,164.5 334.5,164.5 329.5,164.5C 329.5,159.5 329.5,154.5 329.5,149.5C 334.5,149.5 339.5,149.5 344.5,149.5C 344.5,144.5 344.5,139.5 344.5,134.5C 339.5,134.5 334.5,134.5 329.5,134.5C 329.5,129.5 329.5,124.5 329.5,119.5C 334.5,119.5 339.5,119.5 344.5,119.5C 344.5,114.5 344.5,109.5 344.5,104.5C 339.5,104.5 334.5,104.5 329.5,104.5C 329.5,99.5 329.5,94.5 329.5,89.5C 334.5,89.5 339.5,89.5 344.5,89.5C 344.5,84.5 344.5,79.5 344.5,74.5C 339.5,74.5 334.5,74.5 329.5,74.5C 329.5,69.5 329.5,64.5 329.5,59.5C 334.5,59.5 339.5,59.5 344.5,59.5C 344.5,54.5 344.5,49.5 344.5,44.5C 339.5,44.5 334.5,44.5 329.5,44.5C 329.5,39.5 329.5,34.5 329.5,29.5C 324.5,29.5 319.5,29.5 314.5,29.5C 314.5,24.5 314.5,19.5 314.5,14.5C 314.5,9.5 314.5,4.5 314.5,-0.5 Z"/></g>
<g><path style="opacity:1" fill="#edeeed" d="M -0.5,14.5 C 4.5,14.5 9.5,14.5 14.5,14.5C 14.5,19.5 14.5,24.5 14.5,29.5C 9.5,29.5 4.5,29.5 -0.5,29.5C -0.5,24.5 -0.5,19.5 -0.5,14.5 Z"/></g>
<g><path style="opacity:1" fill="#fefffe" d="M 14.5,14.5 C 19.5,14.5 24.5,14.5 29.5,14.5C 29.5,19.5 29.5,24.5 29.5,29.5C 24.5,29.5 19.5,29.5 14.5,29.5C 14.5,24.5 14.5,19.5 14.5,14.5 Z"/></g>
<g><path style="opacity:1" fill="#edeeed" d="M 29.5,14.5 C 34.5,14.5 39.5,14.5 44.5,14.5C 44.5,19.5 44.5,24.5 44.5,29.5C 39.5,29.5 34.5,29.5 29.5,29.5C 29.5,24.5 29.5,19.5 29.5,14.5 Z"/></g>
<g><path style="opacity:1" fill="#fefffe" d="M 44.5,14.5 C 49.5,14.5 54.5,14.5 59.5,14.5C 59.5,19.5 59.5,24.5 59.5,29.5C 54.5,29.5 49.5,29.5 44.5,29.5C 44.5,24.5 44.5,19.5 44.5,14.5 Z"/></g>
<g><path style="opacity:1" fill="#edeeed" d="M 59.5,14.5 C 64.5,14.5 69.5,14.5 74.5,14.5C 74.5,19.5 74.5,24.5 74.5,29.5C 69.5,29.5 64.5,29.5 59.5,29.5C 59.5,24.5 59.5,19.5 59.5,14.5 Z"/></g>
<g><path style="opacity:1" fill="#fefffe" d="M 74.5,14.5 C 79.5,14.5 84.5,14.5 89.5,14.5C 89.5,19.5 89.5,24.5 89.5,29.5C 84.5,29.5 79.5,29.5 74.5,29.5C 74.5,24.5 74.5,19.5 74.5,14.5 Z"/></g>
<g><path style="opacity:1" fill="#edeeed" d="M 89.5,14.5 C 94.5,14.5 99.5,14.5 104.5,14.5C 104.5,19.5 104.5,24.5 104.5,29.5C 99.5,29.5 94.5,29.5 89.5,29.5C 89.5,24.5 89.5,19.5 89.5,14.5 Z"/></g>
<g><path style="opacity:1" fill="#fefffe" d="M 104.5,14.5 C 109.5,14.5 114.5,14.5 119.5,14.5C 119.5,19.5 119.5,24.5 119.5,29.5C 114.5,29.5 109.5,29.5 104.5,29.5C 104.5,24.5 104.5,19.5 104.5,14.5 Z"/></g>
<g><path style="opacity:1" fill="#fefffe" d="M -0.5,29.5 C 4.5,29.5 9.5,29.5 14.5,29.5C 14.5,34.5 14.5,39.5 14.5,44.5C 9.5,44.5 4.5,44.5 -0.5,44.5C -0.5,39.5 -0.5,34.5 -0.5,29.5 Z"/></g>
<g><path style="opacity:1" fill="#edeeed" d="M 14.5,29.5 C 19.5,29.5 24.5,29.5 29.5,29.5C 29.5,34.5 29.5,39.5 29.5,44.5C 24.5,44.5 19.5,44.5 14.5,44.5C 14.5,39.5 14.5,34.5 14.5,29.5 Z"/></g>
<g><path style="opacity:1" fill="#fefffe" d="M 29.5,29.5 C 34.5,29.5 39.5,29.5 44.5,29.5C 44.5,34.5 44.5,39.5 44.5,44.5C 39.5,44.5 34.5,44.5 29.5,44.5C 29.5,39.5 29.5,34.5 29.5,29.5 Z"/></g>
<g><path style="opacity:1" fill="#edeeed" d="M 44.5,29.5 C 49.5,29.5 54.5,29.5 59.5,29.5C 59.5,34.5 59.5,39.5 59.5,44.5C 54.5,44.5 49.5,44.5 44.5,44.5C 44.5,39.5 44.5,34.5 44.5,29.5 Z"/></g>
<g><path style="opacity:1" fill="#fefffe" d="M 59.5,29.5 C 64.5,29.5 69.5,29.5 74.5,29.5C 74.5,34.5 74.5,39.5 74.5,44.5C 69.5,44.5 64.5,44.5 59.5,44.5C 59.5,39.5 59.5,34.5 59.5,29.5 Z"/></g>
<g><path style="opacity:1" fill="#edeeed" d="M 74.5,29.5 C 79.5,29.5 84.5,29.5 89.5,29.5C 89.5,34.5 89.5,39.5 89.5,44.5C 84.5,44.5 79.5,44.5 74.5,44.5C 74.5,39.5 74.5,34.5 74.5,29.5 Z"/></g>
<g><path style="opacity:1" fill="#fefffe" d="M 89.5,29.5 C 94.5,29.5 99.5,29.5 104.5,29.5C 104.5,34.5 104.5,39.5 104.5,44.5C 99.5,44.5 94.5,44.5 89.5,44.5C 89.5,39.5 89.5,34.5 89.5,29.5 Z"/></g>
<g><path style="opacity:1" fill="#030303" d="M 228.5,192.5 C 215.478,201.039 202.978,200.372 191,190.5C 184.126,182.586 182.293,173.752 185.5,164C 181.582,161.123 177.415,158.623 173,156.5C 168.916,160.452 164.416,163.786 159.5,166.5C 156.833,167.167 154.167,167.833 151.5,168.5C 151.5,173.5 151.5,178.5 151.5,183.5C 162.415,185.383 169.249,191.716 172,202.5C 174.412,222.354 165.745,233.688 146,236.5C 127.141,234.14 118.307,223.474 119.5,204.5C 122.25,193.083 129.25,186.083 140.5,183.5C 140.827,178.456 140.494,173.456 139.5,168.5C 122.01,163.715 112.677,152.215 111.5,134C 111.829,123.662 115.829,114.995 123.5,108C 127.396,105.225 131.396,102.725 135.5,100.5C 137.167,100.5 138.833,100.5 140.5,100.5C 140.5,95.5 140.5,90.5 140.5,85.5C 130.448,83.2884 123.615,77.2884 120,67.5C 116.825,47.1911 125.325,35.5244 145.5,32.5C 165.77,34.9348 174.603,46.2682 172,66.5C 168.796,76.8745 161.963,83.2079 151.5,85.5C 151.5,90.5 151.5,95.5 151.5,100.5C 153.199,100.34 154.866,100.506 156.5,101C 162.588,103.942 168.254,107.442 173.5,111.5C 176.464,110.018 179.464,108.518 182.5,107C 183.894,106.044 184.561,104.711 184.5,103C 181.952,87.5433 187.952,76.8766 202.5,71C 219.798,67.5589 231.298,74.0589 237,90.5C 239.303,106.741 232.803,117.575 217.5,123C 207.182,125.005 198.182,122.505 190.5,115.5C 186.172,117.329 182.172,119.662 178.5,122.5C 181.146,130.32 181.146,138.154 178.5,146C 182.303,148.739 186.303,151.239 190.5,153.5C 203.965,141.527 217.465,141.527 231,153.5C 240.277,167.167 239.444,180.167 228.5,192.5 Z"/></g>
<g><path style="opacity:1" fill="#edeeed" d="M -0.5,44.5 C 4.5,44.5 9.5,44.5 14.5,44.5C 14.5,49.5 14.5,54.5 14.5,59.5C 9.5,59.5 4.5,59.5 -0.5,59.5C -0.5,54.5 -0.5,49.5 -0.5,44.5 Z"/></g>
<g><path style="opacity:1" fill="#fefffe" d="M 14.5,44.5 C 19.5,44.5 24.5,44.5 29.5,44.5C 29.5,49.5 29.5,54.5 29.5,59.5C 24.5,59.5 19.5,59.5 14.5,59.5C 14.5,54.5 14.5,49.5 14.5,44.5 Z"/></g>
<g><path style="opacity:1" fill="#edeeed" d="M 29.5,44.5 C 34.5,44.5 39.5,44.5 44.5,44.5C 44.5,49.5 44.5,54.5 44.5,59.5C 39.5,59.5 34.5,59.5 29.5,59.5C 29.5,54.5 29.5,49.5 29.5,44.5 Z"/></g>
<g><path style="opacity:1" fill="#fefffe" d="M 44.5,44.5 C 49.5,44.5 54.5,44.5 59.5,44.5C 59.5,49.5 59.5,54.5 59.5,59.5C 54.5,59.5 49.5,59.5 44.5,59.5C 44.5,54.5 44.5,49.5 44.5,44.5 Z"/></g>
<g><path style="opacity:1" fill="#edeeed" d="M 59.5,44.5 C 64.5,44.5 69.5,44.5 74.5,44.5C 74.5,49.5 74.5,54.5 74.5,59.5C 69.5,59.5 64.5,59.5 59.5,59.5C 59.5,54.5 59.5,49.5 59.5,44.5 Z"/></g>
<g><path style="opacity:1" fill="#fefffe" d="M 74.5,44.5 C 79.5,44.5 84.5,44.5 89.5,44.5C 89.5,49.5 89.5,54.5 89.5,59.5C 84.5,59.5 79.5,59.5 74.5,59.5C 74.5,54.5 74.5,49.5 74.5,44.5 Z"/></g>
<g><path style="opacity:1" fill="#f5f5f5" d="M 119.5,14.5 C 124.5,14.5 129.5,14.5 134.5,14.5C 139.5,14.5 144.5,14.5 149.5,14.5C 154.5,14.5 159.5,14.5 164.5,14.5C 169.5,14.5 174.5,14.5 179.5,14.5C 184.5,14.5 189.5,14.5 194.5,14.5C 199.5,14.5 204.5,14.5 209.5,14.5C 214.5,14.5 219.5,14.5 224.5,14.5C 229.5,14.5 234.5,14.5 239.5,14.5C 244.5,14.5 249.5,14.5 254.5,14.5C 259.5,14.5 264.5,14.5 269.5,14.5C 274.5,14.5 279.5,14.5 284.5,14.5C 289.5,14.5 294.5,14.5 299.5,14.5C 304.5,14.5 309.5,14.5 314.5,14.5C 314.5,19.5 314.5,24.5 314.5,29.5C 319.5,29.5 324.5,29.5 329.5,29.5C 329.5,34.5 329.5,39.5 329.5,44.5C 334.5,44.5 339.5,44.5 344.5,44.5C 344.5,49.5 344.5,54.5 344.5,59.5C 339.5,59.5 334.5,59.5 329.5,59.5C 329.5,64.5 329.5,69.5 329.5,74.5C 334.5,74.5 339.5,74.5 344.5,74.5C 344.5,79.5 344.5,84.5 344.5,89.5C 339.5,89.5 334.5,89.5 329.5,89.5C 329.5,94.5 329.5,99.5 329.5,104.5C 334.5,104.5 339.5,104.5 344.5,104.5C 344.5,109.5 344.5,114.5 344.5,119.5C 339.5,119.5 334.5,119.5 329.5,119.5C 329.5,124.5 329.5,129.5 329.5,134.5C 334.5,134.5 339.5,134.5 344.5,134.5C 344.5,139.5 344.5,144.5 344.5,149.5C 339.5,149.5 334.5,149.5 329.5,149.5C 329.5,154.5 329.5,159.5 329.5,164.5C 334.5,164.5 339.5,164.5 344.5,164.5C 344.5,169.5 344.5,174.5 344.5,179.5C 339.5,179.5 334.5,179.5 329.5,179.5C 329.5,184.5 329.5,189.5 329.5,194.5C 334.5,194.5 339.5,194.5 344.5,194.5C 344.5,199.5 344.5,204.5 344.5,209.5C 339.5,209.5 334.5,209.5 329.5,209.5C 329.5,214.5 329.5,219.5 329.5,224.5C 334.5,224.5 339.5,224.5 344.5,224.5C 344.5,229.5 344.5,234.5 344.5,239.5C 339.5,239.5 334.5,239.5 329.5,239.5C 329.5,244.5 329.5,249.5 329.5,254.5C 324.5,254.5 319.5,254.5 314.5,254.5C 314.5,249.5 314.5,244.5 314.5,239.5C 309.5,239.5 304.5,239.5 299.5,239.5C 299.5,234.5 299.5,229.5 299.5,224.5C 294.5,224.5 289.5,224.5 284.5,224.5C 284.5,219.5 284.5,214.5 284.5,209.5C 279.5,209.5 274.5,209.5 269.5,209.5C 269.5,204.5 269.5,199.5 269.5,194.5C 264.5,194.5 259.5,194.5 254.5,194.5C 254.5,189.5 254.5,184.5 254.5,179.5C 249.5,179.5 244.5,179.5 239.5,179.5C 239.5,184.5 239.5,189.5 239.5,194.5C 235.818,194.665 232.152,194.499 228.5,194C 229.738,193.31 229.738,192.81 228.5,192.5C 239.444,180.167 240.277,167.167 231,153.5C 217.465,141.527 203.965,141.527 190.5,153.5C 186.303,151.239 182.303,148.739 178.5,146C 181.146,138.154 181.146,130.32 178.5,122.5C 182.172,119.662 186.172,117.329 190.5,115.5C 198.182,122.505 207.182,125.005 217.5,123C 232.803,117.575 239.303,106.741 237,90.5C 231.298,74.0589 219.798,67.5589 202.5,71C 187.952,76.8766 181.952,87.5433 184.5,103C 184.561,104.711 183.894,106.044 182.5,107C 179.464,108.518 176.464,110.018 173.5,111.5C 168.254,107.442 162.588,103.942 156.5,101C 154.866,100.506 153.199,100.34 151.5,100.5C 151.5,95.5 151.5,90.5 151.5,85.5C 161.963,83.2079 168.796,76.8745 172,66.5C 174.603,46.2682 165.77,34.9348 145.5,32.5C 125.325,35.5244 116.825,47.1911 120,67.5C 123.615,77.2884 130.448,83.2884 140.5,85.5C 140.5,90.5 140.5,95.5 140.5,100.5C 138.833,100.5 137.167,100.5 135.5,100.5C 134.518,97.0381 134.185,93.3714 134.5,89.5C 129.5,89.5 124.5,89.5 119.5,89.5C 119.5,94.5 119.5,99.5 119.5,104.5C 114.5,104.5 109.5,104.5 104.5,104.5C 104.5,109.5 104.5,114.5 104.5,119.5C 99.5,119.5 94.5,119.5 89.5,119.5C 89.5,114.5 89.5,109.5 89.5,104.5C 89.5,99.5 89.5,94.5 89.5,89.5C 89.5,84.5 89.5,79.5 89.5,74.5C 89.5,69.5 89.5,64.5 89.5,59.5C 89.5,54.5 89.5,49.5 89.5,44.5C 94.5,44.5 99.5,44.5 104.5,44.5C 104.5,39.5 104.5,34.5 104.5,29.5C 109.5,29.5 114.5,29.5 119.5,29.5C 119.5,24.5 119.5,19.5 119.5,14.5 Z"/></g>
<g><path style="opacity:1" fill="#f3f3f3" d="M 140.5,47.5 C 152.846,45.9002 158.68,51.2335 158,63.5C 154.628,70.4329 149.128,72.9329 141.5,71C 131.233,63.6555 130.9,55.8222 140.5,47.5 Z"/></g>
<g><path style="opacity:1" fill="#fefffe" d="M -0.5,59.5 C 4.5,59.5 9.5,59.5 14.5,59.5C 14.5,64.5 14.5,69.5 14.5,74.5C 9.5,74.5 4.5,74.5 -0.5,74.5C -0.5,69.5 -0.5,64.5 -0.5,59.5 Z"/></g>
<g><path style="opacity:1" fill="#edeeed" d="M 14.5,59.5 C 19.5,59.5 24.5,59.5 29.5,59.5C 29.5,64.5 29.5,69.5 29.5,74.5C 24.5,74.5 19.5,74.5 14.5,74.5C 14.5,69.5 14.5,64.5 14.5,59.5 Z"/></g>
<g><path style="opacity:1" fill="#fefffe" d="M 29.5,59.5 C 34.5,59.5 39.5,59.5 44.5,59.5C 44.5,64.5 44.5,69.5 44.5,74.5C 39.5,74.5 34.5,74.5 29.5,74.5C 29.5,69.5 29.5,64.5 29.5,59.5 Z"/></g>
<g><path style="opacity:1" fill="#edeeed" d="M 44.5,59.5 C 49.5,59.5 54.5,59.5 59.5,59.5C 59.5,64.5 59.5,69.5 59.5,74.5C 54.5,74.5 49.5,74.5 44.5,74.5C 44.5,69.5 44.5,64.5 44.5,59.5 Z"/></g>
<g><path style="opacity:1" fill="#fefffe" d="M 59.5,59.5 C 64.5,59.5 69.5,59.5 74.5,59.5C 74.5,64.5 74.5,69.5 74.5,74.5C 69.5,74.5 64.5,74.5 59.5,74.5C 59.5,69.5 59.5,64.5 59.5,59.5 Z"/></g>
<g><path style="opacity:1" fill="#edeeed" d="M 74.5,59.5 C 79.5,59.5 84.5,59.5 89.5,59.5C 89.5,64.5 89.5,69.5 89.5,74.5C 84.5,74.5 79.5,74.5 74.5,74.5C 74.5,69.5 74.5,64.5 74.5,59.5 Z"/></g>
<g><path style="opacity:1" fill="#edeeed" d="M -0.5,74.5 C 4.5,74.5 9.5,74.5 14.5,74.5C 14.5,79.5 14.5,84.5 14.5,89.5C 9.5,89.5 4.5,89.5 -0.5,89.5C -0.5,84.5 -0.5,79.5 -0.5,74.5 Z"/></g>
<g><path style="opacity:1" fill="#fefffe" d="M 14.5,74.5 C 19.5,74.5 24.5,74.5 29.5,74.5C 29.5,79.5 29.5,84.5 29.5,89.5C 24.5,89.5 19.5,89.5 14.5,89.5C 14.5,84.5 14.5,79.5 14.5,74.5 Z"/></g>
<g><path style="opacity:1" fill="#edeeed" d="M 29.5,74.5 C 34.5,74.5 39.5,74.5 44.5,74.5C 44.5,79.5 44.5,84.5 44.5,89.5C 39.5,89.5 34.5,89.5 29.5,89.5C 29.5,84.5 29.5,79.5 29.5,74.5 Z"/></g>
<g><path style="opacity:1" fill="#fefffe" d="M 44.5,74.5 C 49.5,74.5 54.5,74.5 59.5,74.5C 59.5,79.5 59.5,84.5 59.5,89.5C 54.5,89.5 49.5,89.5 44.5,89.5C 44.5,84.5 44.5,79.5 44.5,74.5 Z"/></g>
<g><path style="opacity:1" fill="#edeeed" d="M 59.5,74.5 C 64.5,74.5 69.5,74.5 74.5,74.5C 74.5,79.5 74.5,84.5 74.5,89.5C 69.5,89.5 64.5,89.5 59.5,89.5C 59.5,84.5 59.5,79.5 59.5,74.5 Z"/></g>
<g><path style="opacity:1" fill="#fefffe" d="M 74.5,74.5 C 79.5,74.5 84.5,74.5 89.5,74.5C 89.5,79.5 89.5,84.5 89.5,89.5C 84.5,89.5 79.5,89.5 74.5,89.5C 74.5,84.5 74.5,79.5 74.5,74.5 Z"/></g>
<g><path style="opacity:1" fill="#fefffe" d="M -0.5,89.5 C 4.5,89.5 9.5,89.5 14.5,89.5C 14.5,94.5 14.5,99.5 14.5,104.5C 9.5,104.5 4.5,104.5 -0.5,104.5C -0.5,99.5 -0.5,94.5 -0.5,89.5 Z"/></g>
<g><path style="opacity:1" fill="#edeeed" d="M 14.5,89.5 C 19.5,89.5 24.5,89.5 29.5,89.5C 29.5,94.5 29.5,99.5 29.5,104.5C 24.5,104.5 19.5,104.5 14.5,104.5C 14.5,99.5 14.5,94.5 14.5,89.5 Z"/></g>
<g><path style="opacity:1" fill="#fefffe" d="M 29.5,89.5 C 34.5,89.5 39.5,89.5 44.5,89.5C 44.5,94.5 44.5,99.5 44.5,104.5C 39.5,104.5 34.5,104.5 29.5,104.5C 29.5,99.5 29.5,94.5 29.5,89.5 Z"/></g>
<g><path style="opacity:1" fill="#edeeed" d="M 44.5,89.5 C 49.5,89.5 54.5,89.5 59.5,89.5C 59.5,94.5 59.5,99.5 59.5,104.5C 54.5,104.5 49.5,104.5 44.5,104.5C 44.5,99.5 44.5,94.5 44.5,89.5 Z"/></g>
<g><path style="opacity:1" fill="#fefffe" d="M 59.5,89.5 C 64.5,89.5 69.5,89.5 74.5,89.5C 74.5,94.5 74.5,99.5 74.5,104.5C 69.5,104.5 64.5,104.5 59.5,104.5C 59.5,99.5 59.5,94.5 59.5,89.5 Z"/></g>
<g><path style="opacity:1" fill="#edeeed" d="M 74.5,89.5 C 79.5,89.5 84.5,89.5 89.5,89.5C 89.5,94.5 89.5,99.5 89.5,104.5C 84.5,104.5 79.5,104.5 74.5,104.5C 74.5,99.5 74.5,94.5 74.5,89.5 Z"/></g>
<g><path style="opacity:1" fill="#f0f0f0" d="M 207.5,84.5 C 219.974,84.4663 224.808,90.4663 222,102.5C 217.8,109.343 211.967,111.176 204.5,108C 198.6,103.312 197.1,97.4789 200,90.5C 202.134,87.8474 204.634,85.8474 207.5,84.5 Z"/></g>
<g><path style="opacity:1" fill="#edeeed" d="M -0.5,104.5 C 4.5,104.5 9.5,104.5 14.5,104.5C 14.5,109.5 14.5,114.5 14.5,119.5C 9.5,119.5 4.5,119.5 -0.5,119.5C -0.5,114.5 -0.5,109.5 -0.5,104.5 Z"/></g>
<g><path style="opacity:1" fill="#fefffe" d="M 14.5,104.5 C 19.5,104.5 24.5,104.5 29.5,104.5C 29.5,109.5 29.5,114.5 29.5,119.5C 24.5,119.5 19.5,119.5 14.5,119.5C 14.5,114.5 14.5,109.5 14.5,104.5 Z"/></g>
<g><path style="opacity:1" fill="#edeeed" d="M 29.5,104.5 C 34.5,104.5 39.5,104.5 44.5,104.5C 44.5,109.5 44.5,114.5 44.5,119.5C 39.5,119.5 34.5,119.5 29.5,119.5C 29.5,114.5 29.5,109.5 29.5,104.5 Z"/></g>
<g><path style="opacity:1" fill="#fefffe" d="M 44.5,104.5 C 49.5,104.5 54.5,104.5 59.5,104.5C 59.5,109.5 59.5,114.5 59.5,119.5C 54.5,119.5 49.5,119.5 44.5,119.5C 44.5,114.5 44.5,109.5 44.5,104.5 Z"/></g>
<g><path style="opacity:1" fill="#edeeed" d="M 59.5,104.5 C 64.5,104.5 69.5,104.5 74.5,104.5C 74.5,109.5 74.5,114.5 74.5,119.5C 69.5,119.5 64.5,119.5 59.5,119.5C 59.5,114.5 59.5,109.5 59.5,104.5 Z"/></g>
<g><path style="opacity:1" fill="#fefffe" d="M 74.5,104.5 C 79.5,104.5 84.5,104.5 89.5,104.5C 89.5,109.5 89.5,114.5 89.5,119.5C 84.5,119.5 79.5,119.5 74.5,119.5C 74.5,114.5 74.5,109.5 74.5,104.5 Z"/></g>
<g><path style="opacity:1" fill="#fefffe" d="M -0.5,119.5 C 4.5,119.5 9.5,119.5 14.5,119.5C 14.5,124.5 14.5,129.5 14.5,134.5C 9.5,134.5 4.5,134.5 -0.5,134.5C -0.5,129.5 -0.5,124.5 -0.5,119.5 Z"/></g>
<g><path style="opacity:1" fill="#edeeed" d="M 14.5,119.5 C 19.5,119.5 24.5,119.5 29.5,119.5C 29.5,124.5 29.5,129.5 29.5,134.5C 24.5,134.5 19.5,134.5 14.5,134.5C 14.5,129.5 14.5,124.5 14.5,119.5 Z"/></g>
<g><path style="opacity:1" fill="#fefffe" d="M 29.5,119.5 C 34.5,119.5 39.5,119.5 44.5,119.5C 44.5,124.5 44.5,129.5 44.5,134.5C 39.5,134.5 34.5,134.5 29.5,134.5C 29.5,129.5 29.5,124.5 29.5,119.5 Z"/></g>
<g><path style="opacity:1" fill="#edeeed" d="M 44.5,119.5 C 49.5,119.5 54.5,119.5 59.5,119.5C 59.5,124.5 59.5,129.5 59.5,134.5C 54.5,134.5 49.5,134.5 44.5,134.5C 44.5,129.5 44.5,124.5 44.5,119.5 Z"/></g>
<g><path style="opacity:1" fill="#fefffe" d="M 59.5,119.5 C 64.5,119.5 69.5,119.5 74.5,119.5C 74.5,124.5 74.5,129.5 74.5,134.5C 69.5,134.5 64.5,134.5 59.5,134.5C 59.5,129.5 59.5,124.5 59.5,119.5 Z"/></g>
<g><path style="opacity:1" fill="#edeeed" d="M 74.5,119.5 C 79.5,119.5 84.5,119.5 89.5,119.5C 89.5,124.5 89.5,129.5 89.5,134.5C 84.5,134.5 79.5,134.5 74.5,134.5C 74.5,129.5 74.5,124.5 74.5,119.5 Z"/></g>
<g><path style="opacity:1" fill="#f3f3f3" d="M 140.5,116.5 C 160.257,116.342 167.09,125.676 161,144.5C 153.779,153.192 145.279,154.692 135.5,149C 127.149,140.625 126.315,131.459 133,121.5C 135.479,119.686 137.979,118.019 140.5,116.5 Z"/></g>
<g><path style="opacity:1" fill="#edeeed" d="M -0.5,134.5 C 4.5,134.5 9.5,134.5 14.5,134.5C 14.5,139.5 14.5,144.5 14.5,149.5C 9.5,149.5 4.5,149.5 -0.5,149.5C -0.5,144.5 -0.5,139.5 -0.5,134.5 Z"/></g>
<g><path style="opacity:1" fill="#fefffe" d="M 14.5,134.5 C 19.5,134.5 24.5,134.5 29.5,134.5C 29.5,139.5 29.5,144.5 29.5,149.5C 24.5,149.5 19.5,149.5 14.5,149.5C 14.5,144.5 14.5,139.5 14.5,134.5 Z"/></g>
<g><path style="opacity:1" fill="#edeeed" d="M 29.5,134.5 C 34.5,134.5 39.5,134.5 44.5,134.5C 44.5,139.5 44.5,144.5 44.5,149.5C 39.5,149.5 34.5,149.5 29.5,149.5C 29.5,144.5 29.5,139.5 29.5,134.5 Z"/></g>
<g><path style="opacity:1" fill="#fefffe" d="M 44.5,134.5 C 49.5,134.5 54.5,134.5 59.5,134.5C 59.5,139.5 59.5,144.5 59.5,149.5C 54.5,149.5 49.5,149.5 44.5,149.5C 44.5,144.5 44.5,139.5 44.5,134.5 Z"/></g>
<g><path style="opacity:1" fill="#edeeed" d="M 59.5,134.5 C 64.5,134.5 69.5,134.5 74.5,134.5C 74.5,139.5 74.5,144.5 74.5,149.5C 69.5,149.5 64.5,149.5 59.5,149.5C 59.5,144.5 59.5,139.5 59.5,134.5 Z"/></g>
<g><path style="opacity:1" fill="#fefffe" d="M 74.5,134.5 C 79.5,134.5 84.5,134.5 89.5,134.5C 89.5,139.5 89.5,144.5 89.5,149.5C 84.5,149.5 79.5,149.5 74.5,149.5C 74.5,144.5 74.5,139.5 74.5,134.5 Z"/></g>
<g><path style="opacity:1" fill="#fefffe" d="M -0.5,149.5 C 4.5,149.5 9.5,149.5 14.5,149.5C 14.5,154.5 14.5,159.5 14.5,164.5C 9.5,164.5 4.5,164.5 -0.5,164.5C -0.5,159.5 -0.5,154.5 -0.5,149.5 Z"/></g>
<g><path style="opacity:1" fill="#edeeed" d="M 14.5,149.5 C 19.5,149.5 24.5,149.5 29.5,149.5C 29.5,154.5 29.5,159.5 29.5,164.5C 24.5,164.5 19.5,164.5 14.5,164.5C 14.5,159.5 14.5,154.5 14.5,149.5 Z"/></g>
<g><path style="opacity:1" fill="#fefffe" d="M 29.5,149.5 C 34.5,149.5 39.5,149.5 44.5,149.5C 44.5,154.5 44.5,159.5 44.5,164.5C 39.5,164.5 34.5,164.5 29.5,164.5C 29.5,159.5 29.5,154.5 29.5,149.5 Z"/></g>
<g><path style="opacity:1" fill="#edeeed" d="M 44.5,149.5 C 49.5,149.5 54.5,149.5 59.5,149.5C 59.5,154.5 59.5,159.5 59.5,164.5C 54.5,164.5 49.5,164.5 44.5,164.5C 44.5,159.5 44.5,154.5 44.5,149.5 Z"/></g>
<g><path style="opacity:1" fill="#fefffe" d="M 59.5,149.5 C 64.5,149.5 69.5,149.5 74.5,149.5C 74.5,154.5 74.5,159.5 74.5,164.5C 69.5,164.5 64.5,164.5 59.5,164.5C 59.5,159.5 59.5,154.5 59.5,149.5 Z"/></g>
<g><path style="opacity:1" fill="#edeeed" d="M 74.5,149.5 C 79.5,149.5 84.5,149.5 89.5,149.5C 89.5,154.5 89.5,159.5 89.5,164.5C 84.5,164.5 79.5,164.5 74.5,164.5C 74.5,159.5 74.5,154.5 74.5,149.5 Z"/></g>
<g><path style="opacity:1" fill="#edeeed" d="M -0.5,164.5 C 4.5,164.5 9.5,164.5 14.5,164.5C 14.5,169.5 14.5,174.5 14.5,179.5C 9.5,179.5 4.5,179.5 -0.5,179.5C -0.5,174.5 -0.5,169.5 -0.5,164.5 Z"/></g>
<g><path style="opacity:1" fill="#fefffe" d="M 14.5,164.5 C 19.5,164.5 24.5,164.5 29.5,164.5C 29.5,169.5 29.5,174.5 29.5,179.5C 24.5,179.5 19.5,179.5 14.5,179.5C 14.5,174.5 14.5,169.5 14.5,164.5 Z"/></g>
<g><path style="opacity:1" fill="#edeeed" d="M 29.5,164.5 C 34.5,164.5 39.5,164.5 44.5,164.5C 44.5,169.5 44.5,174.5 44.5,179.5C 39.5,179.5 34.5,179.5 29.5,179.5C 29.5,174.5 29.5,169.5 29.5,164.5 Z"/></g>
<g><path style="opacity:1" fill="#fefffe" d="M 44.5,164.5 C 49.5,164.5 54.5,164.5 59.5,164.5C 59.5,169.5 59.5,174.5 59.5,179.5C 54.5,179.5 49.5,179.5 44.5,179.5C 44.5,174.5 44.5,169.5 44.5,164.5 Z"/></g>
<g><path style="opacity:1" fill="#edeeed" d="M 59.5,164.5 C 64.5,164.5 69.5,164.5 74.5,164.5C 74.5,169.5 74.5,174.5 74.5,179.5C 69.5,179.5 64.5,179.5 59.5,179.5C 59.5,174.5 59.5,169.5 59.5,164.5 Z"/></g>
<g><path style="opacity:1" fill="#fefffe" d="M 74.5,164.5 C 79.5,164.5 84.5,164.5 89.5,164.5C 89.5,169.5 89.5,174.5 89.5,179.5C 84.5,179.5 79.5,179.5 74.5,179.5C 74.5,174.5 74.5,169.5 74.5,164.5 Z"/></g>
<g><path style="opacity:1" fill="#f0f0f0" d="M 206.5,159.5 C 221.639,159.79 226.139,166.79 220,180.5C 212.824,185.941 206.158,185.274 200,178.5C 196.563,170.075 198.73,163.742 206.5,159.5 Z"/></g>
<g><path style="opacity:1" fill="#f7f7f7" d="M 228.5,192.5 C 229.738,192.81 229.738,193.31 228.5,194C 232.152,194.499 235.818,194.665 239.5,194.5C 244.5,194.5 249.5,194.5 254.5,194.5C 259.5,194.5 264.5,194.5 269.5,194.5C 269.5,199.5 269.5,204.5 269.5,209.5C 274.5,209.5 279.5,209.5 284.5,209.5C 284.5,214.5 284.5,219.5 284.5,224.5C 289.5,224.5 294.5,224.5 299.5,224.5C 299.5,229.5 299.5,234.5 299.5,239.5C 304.5,239.5 309.5,239.5 314.5,239.5C 314.5,244.5 314.5,249.5 314.5,254.5C 319.5,254.5 324.5,254.5 329.5,254.5C 334.5,254.5 339.5,254.5 344.5,254.5C 344.5,259.5 344.5,264.5 344.5,269.5C 339.5,269.5 334.5,269.5 329.5,269.5C 329.5,274.5 329.5,279.5 329.5,284.5C 334.5,284.5 339.5,284.5 344.5,284.5C 344.5,289.5 344.5,294.5 344.5,299.5C 339.5,299.5 334.5,299.5 329.5,299.5C 329.5,304.5 329.5,309.5 329.5,314.5C 334.5,314.5 339.5,314.5 344.5,314.5C 344.5,319.5 344.5,324.5 344.5,329.5C 339.5,329.5 334.5,329.5 329.5,329.5C 329.5,334.5 329.5,339.5 329.5,344.5C 319.652,344.827 309.986,344.494 300.5,343.5C 305.167,343.5 309.833,343.5 314.5,343.5C 314.5,324.167 314.5,304.833 314.5,285.5C 309.833,285.5 305.167,285.5 300.5,285.5C 300.663,287.857 300.497,290.19 300,292.5C 291.116,283.204 280.616,281.037 268.5,286C 253.504,295.178 248.337,308.345 253,325.5C 257.997,338.674 267.497,345.34 281.5,345.5C 282.209,346.404 283.209,346.737 284.5,346.5C 284.5,350.833 284.5,355.167 284.5,359.5C 284.5,364.5 284.5,369.5 284.5,374.5C 279.5,374.5 274.5,374.5 269.5,374.5C 269.5,369.5 269.5,364.5 269.5,359.5C 264.5,359.5 259.5,359.5 254.5,359.5C 254.5,364.5 254.5,369.5 254.5,374.5C 249.5,374.5 244.5,374.5 239.5,374.5C 239.5,369.5 239.5,364.5 239.5,359.5C 234.5,359.5 229.5,359.5 224.5,359.5C 224.5,364.5 224.5,369.5 224.5,374.5C 219.5,374.5 214.5,374.5 209.5,374.5C 209.5,369.5 209.5,364.5 209.5,359.5C 204.5,359.5 199.5,359.5 194.5,359.5C 194.5,364.5 194.5,369.5 194.5,374.5C 189.5,374.5 184.5,374.5 179.5,374.5C 179.5,369.5 179.5,364.5 179.5,359.5C 174.5,359.5 169.5,359.5 164.5,359.5C 164.5,364.5 164.5,369.5 164.5,374.5C 159.5,374.5 154.5,374.5 149.5,374.5C 149.5,369.5 149.5,364.5 149.5,359.5C 144.5,359.5 139.5,359.5 134.5,359.5C 134.5,354.5 134.5,349.5 134.5,344.5C 140.026,344.821 145.36,344.488 150.5,343.5C 151.332,324.338 151.832,305.004 152,285.5C 152.499,290.155 152.666,294.821 152.5,299.5C 156.555,299.824 160.555,299.491 164.5,298.5C 162.369,297.831 160.369,297.165 158.5,296.5C 160.833,296.5 163.167,296.5 165.5,296.5C 165.5,312.5 165.5,328.5 165.5,344.5C 170.5,344.5 175.5,344.5 180.5,344.5C 180.5,328.5 180.5,312.5 180.5,296.5C 183.5,296.5 186.5,296.5 189.5,296.5C 187.574,297.256 184.907,297.923 181.5,298.5C 185.783,299.492 190.116,299.826 194.5,299.5C 194.5,294.5 194.5,289.5 194.5,284.5C 195.5,284.5 196.5,284.5 197.5,284.5C 197.5,279.5 197.5,274.5 197.5,269.5C 196.5,269.5 195.5,269.5 194.5,269.5C 194.5,264.5 194.5,259.5 194.5,254.5C 199.5,254.5 204.5,254.5 209.5,254.5C 209.5,257.5 209.5,260.5 209.5,263.5C 213.908,263.062 215.575,265.062 214.5,269.5C 217.833,269.5 221.167,269.5 224.5,269.5C 224.5,274.5 224.5,279.5 224.5,284.5C 221.167,284.5 217.833,284.5 214.5,284.5C 214.5,289.5 214.5,294.5 214.5,299.5C 216.099,299.232 217.432,299.566 218.5,300.5C 217.167,302.167 215.833,303.833 214.5,305.5C 213.833,292.167 213.167,278.833 212.5,265.5C 207.833,265.5 203.167,265.5 198.5,265.5C 198.5,291.5 198.5,317.5 198.5,343.5C 203.167,343.5 207.833,343.5 212.5,343.5C 213.167,334.833 213.833,326.167 214.5,317.5C 220.475,325.815 226.475,334.148 232.5,342.5C 238.137,343.663 243.804,343.83 249.5,343C 241.872,333.885 234.872,324.385 228.5,314.5C 231.857,314.371 235.523,314.371 239.5,314.5C 239.5,309.5 239.5,304.5 239.5,299.5C 244.214,299.827 248.88,299.493 253.5,298.5C 254.443,293.9 254.777,289.233 254.5,284.5C 259.5,284.5 264.5,284.5 269.5,284.5C 269.5,279.5 269.5,274.5 269.5,269.5C 264.5,269.5 259.5,269.5 254.5,269.5C 254.5,264.5 254.5,259.5 254.5,254.5C 249.5,254.5 244.5,254.5 239.5,254.5C 239.5,249.5 239.5,244.5 239.5,239.5C 234.5,239.5 229.5,239.5 224.5,239.5C 224.5,234.5 224.5,229.5 224.5,224.5C 219.5,224.5 214.5,224.5 209.5,224.5C 209.5,219.5 209.5,214.5 209.5,209.5C 204.5,209.5 199.5,209.5 194.5,209.5C 194.666,204.821 194.499,200.155 194,195.5C 189.263,194.531 184.43,194.197 179.5,194.5C 179.5,189.5 179.5,184.5 179.5,179.5C 174.5,179.5 169.5,179.5 164.5,179.5C 164.666,174.821 164.499,170.155 164,165.5C 162.653,167.466 161.153,167.799 159.5,166.5C 164.416,163.786 168.916,160.452 173,156.5C 177.415,158.623 181.582,161.123 185.5,164C 182.293,173.752 184.126,182.586 191,190.5C 202.978,200.372 215.478,201.039 228.5,192.5 Z"/></g>
<g><path style="opacity:1" fill="#fefffe" d="M -0.5,179.5 C 4.5,179.5 9.5,179.5 14.5,179.5C 14.5,184.5 14.5,189.5 14.5,194.5C 9.5,194.5 4.5,194.5 -0.5,194.5C -0.5,189.5 -0.5,184.5 -0.5,179.5 Z"/></g>
<g><path style="opacity:1" fill="#edeeed" d="M 14.5,179.5 C 19.5,179.5 24.5,179.5 29.5,179.5C 29.5,184.5 29.5,189.5 29.5,194.5C 24.5,194.5 19.5,194.5 14.5,194.5C 14.5,189.5 14.5,184.5 14.5,179.5 Z"/></g>
<g><path style="opacity:1" fill="#fefffe" d="M 29.5,179.5 C 34.5,179.5 39.5,179.5 44.5,179.5C 44.5,184.5 44.5,189.5 44.5,194.5C 39.5,194.5 34.5,194.5 29.5,194.5C 29.5,189.5 29.5,184.5 29.5,179.5 Z"/></g>
<g><path style="opacity:1" fill="#edeeed" d="M 44.5,179.5 C 49.5,179.5 54.5,179.5 59.5,179.5C 59.5,184.5 59.5,189.5 59.5,194.5C 54.5,194.5 49.5,194.5 44.5,194.5C 44.5,189.5 44.5,184.5 44.5,179.5 Z"/></g>
<g><path style="opacity:1" fill="#fefffe" d="M 59.5,179.5 C 64.5,179.5 69.5,179.5 74.5,179.5C 74.5,184.5 74.5,189.5 74.5,194.5C 69.5,194.5 64.5,194.5 59.5,194.5C 59.5,189.5 59.5,184.5 59.5,179.5 Z"/></g>
<g><path style="opacity:1" fill="#edeeed" d="M 74.5,179.5 C 79.5,179.5 84.5,179.5 89.5,179.5C 89.5,184.5 89.5,189.5 89.5,194.5C 84.5,194.5 79.5,194.5 74.5,194.5C 74.5,189.5 74.5,184.5 74.5,179.5 Z"/></g>
<g><path style="opacity:1" fill="#f2f2f2" d="M 228.5,314.5 C 226.554,313.746 225.721,312.412 226,310.5C 233.5,302.333 241,294.167 248.5,286C 242.833,285.333 237.167,285.333 231.5,286C 227.301,291.028 222.968,295.861 218.5,300.5C 217.432,299.566 216.099,299.232 214.5,299.5C 214.5,294.5 214.5,289.5 214.5,284.5C 217.833,284.5 221.167,284.5 224.5,284.5C 224.5,279.5 224.5,274.5 224.5,269.5C 221.167,269.5 217.833,269.5 214.5,269.5C 215.575,265.062 213.908,263.062 209.5,263.5C 209.5,260.5 209.5,257.5 209.5,254.5C 204.5,254.5 199.5,254.5 194.5,254.5C 194.5,259.5 194.5,264.5 194.5,269.5C 195.5,269.5 196.5,269.5 197.5,269.5C 197.5,274.5 197.5,279.5 197.5,284.5C 196.5,284.5 195.5,284.5 194.5,284.5C 194.5,289.5 194.5,294.5 194.5,299.5C 190.116,299.826 185.783,299.492 181.5,298.5C 184.907,297.923 187.574,297.256 189.5,296.5C 189.5,292.833 189.5,289.167 189.5,285.5C 186.5,285.5 183.5,285.5 180.5,285.5C 178.844,277.833 181.844,274.167 189.5,274.5C 189.5,270.833 189.5,267.167 189.5,263.5C 187.833,263.5 186.167,263.5 184.5,263.5C 183.081,262.549 181.415,262.216 179.5,262.5C 179.5,259.833 179.5,257.167 179.5,254.5C 174.5,254.5 169.5,254.5 164.5,254.5C 164.5,249.5 164.5,244.5 164.5,239.5C 159.5,239.5 154.5,239.5 149.5,239.5C 149.5,244.5 149.5,249.5 149.5,254.5C 144.5,254.5 139.5,254.5 134.5,254.5C 134.5,249.5 134.5,244.5 134.5,239.5C 129.5,239.5 124.5,239.5 119.5,239.5C 119.5,234.5 119.5,229.5 119.5,224.5C 114.5,224.5 109.5,224.5 104.5,224.5C 104.5,219.5 104.5,214.5 104.5,209.5C 108.833,209.5 113.167,209.5 117.5,209.5C 117.34,211.199 117.506,212.866 118,214.5C 118.179,210.975 118.679,207.641 119.5,204.5C 118.307,223.474 127.141,234.14 146,236.5C 165.745,233.688 174.412,222.354 172,202.5C 169.249,191.716 162.415,185.383 151.5,183.5C 151.5,178.5 151.5,173.5 151.5,168.5C 154.167,167.833 156.833,167.167 159.5,166.5C 161.153,167.799 162.653,167.466 164,165.5C 164.499,170.155 164.666,174.821 164.5,179.5C 169.5,179.5 174.5,179.5 179.5,179.5C 179.5,184.5 179.5,189.5 179.5,194.5C 184.43,194.197 189.263,194.531 194,195.5C 194.499,200.155 194.666,204.821 194.5,209.5C 199.5,209.5 204.5,209.5 209.5,209.5C 209.5,214.5 209.5,219.5 209.5,224.5C 214.5,224.5 219.5,224.5 224.5,224.5C 224.5,229.5 224.5,234.5 224.5,239.5C 229.5,239.5 234.5,239.5 239.5,239.5C 239.5,244.5 239.5,249.5 239.5,254.5C 244.5,254.5 249.5,254.5 254.5,254.5C 254.5,259.5 254.5,264.5 254.5,269.5C 259.5,269.5 264.5,269.5 269.5,269.5C 269.5,274.5 269.5,279.5 269.5,284.5C 264.5,284.5 259.5,284.5 254.5,284.5C 254.777,289.233 254.443,293.9 253.5,298.5C 248.88,299.493 244.214,299.827 239.5,299.5C 239.5,304.5 239.5,309.5 239.5,314.5C 235.523,314.371 231.857,314.371 228.5,314.5 Z"/></g>
<g><path style="opacity:1" fill="#fefffe" d="M 254.5,194.5 C 249.5,194.5 244.5,194.5 239.5,194.5C 239.5,189.5 239.5,184.5 239.5,179.5C 244.5,179.5 249.5,179.5 254.5,179.5C 254.5,184.5 254.5,189.5 254.5,194.5 Z"/></g>
<g><path style="opacity:1" fill="#edeeed" d="M -0.5,194.5 C 4.5,194.5 9.5,194.5 14.5,194.5C 14.5,199.5 14.5,204.5 14.5,209.5C 9.5,209.5 4.5,209.5 -0.5,209.5C -0.5,204.5 -0.5,199.5 -0.5,194.5 Z"/></g>
<g><path style="opacity:1" fill="#fefffe" d="M 14.5,194.5 C 19.5,194.5 24.5,194.5 29.5,194.5C 29.5,199.5 29.5,204.5 29.5,209.5C 24.5,209.5 19.5,209.5 14.5,209.5C 14.5,204.5 14.5,199.5 14.5,194.5 Z"/></g>
<g><path style="opacity:1" fill="#edeeed" d="M 29.5,194.5 C 34.5,194.5 39.5,194.5 44.5,194.5C 44.5,199.5 44.5,204.5 44.5,209.5C 39.5,209.5 34.5,209.5 29.5,209.5C 29.5,204.5 29.5,199.5 29.5,194.5 Z"/></g>
<g><path style="opacity:1" fill="#fefffe" d="M 44.5,194.5 C 49.5,194.5 54.5,194.5 59.5,194.5C 59.5,199.5 59.5,204.5 59.5,209.5C 54.5,209.5 49.5,209.5 44.5,209.5C 44.5,204.5 44.5,199.5 44.5,194.5 Z"/></g>
<g><path style="opacity:1" fill="#edeeed" d="M 59.5,194.5 C 64.5,194.5 69.5,194.5 74.5,194.5C 74.5,199.5 74.5,204.5 74.5,209.5C 69.5,209.5 64.5,209.5 59.5,209.5C 59.5,204.5 59.5,199.5 59.5,194.5 Z"/></g>
<g><path style="opacity:1" fill="#fefffe" d="M 74.5,194.5 C 79.5,194.5 84.5,194.5 89.5,194.5C 89.5,199.5 89.5,204.5 89.5,209.5C 84.5,209.5 79.5,209.5 74.5,209.5C 74.5,204.5 74.5,199.5 74.5,194.5 Z"/></g>
<g><path style="opacity:1" fill="#f2f2f2" d="M 140.5,197.5 C 153.271,195.442 159.105,200.776 158,213.5C 153.883,221.375 147.716,223.542 139.5,220C 131.288,212.021 131.622,204.521 140.5,197.5 Z"/></g>
<g><path style="opacity:1" fill="#fefffe" d="M -0.5,209.5 C 4.5,209.5 9.5,209.5 14.5,209.5C 14.5,214.5 14.5,219.5 14.5,224.5C 9.5,224.5 4.5,224.5 -0.5,224.5C -0.5,219.5 -0.5,214.5 -0.5,209.5 Z"/></g>
<g><path style="opacity:1" fill="#edeeed" d="M 14.5,209.5 C 19.5,209.5 24.5,209.5 29.5,209.5C 29.5,214.5 29.5,219.5 29.5,224.5C 24.5,224.5 19.5,224.5 14.5,224.5C 14.5,219.5 14.5,214.5 14.5,209.5 Z"/></g>
<g><path style="opacity:1" fill="#fefffe" d="M 29.5,209.5 C 34.5,209.5 39.5,209.5 44.5,209.5C 44.5,214.5 44.5,219.5 44.5,224.5C 39.5,224.5 34.5,224.5 29.5,224.5C 29.5,219.5 29.5,214.5 29.5,209.5 Z"/></g>
<g><path style="opacity:1" fill="#edeeed" d="M 44.5,209.5 C 49.5,209.5 54.5,209.5 59.5,209.5C 59.5,214.5 59.5,219.5 59.5,224.5C 54.5,224.5 49.5,224.5 44.5,224.5C 44.5,219.5 44.5,214.5 44.5,209.5 Z"/></g>
<g><path style="opacity:1" fill="#fefffe" d="M 59.5,209.5 C 64.5,209.5 69.5,209.5 74.5,209.5C 74.5,214.5 74.5,219.5 74.5,224.5C 69.5,224.5 64.5,224.5 59.5,224.5C 59.5,219.5 59.5,214.5 59.5,209.5 Z"/></g>
<g><path style="opacity:1" fill="#edeeed" d="M 74.5,209.5 C 79.5,209.5 84.5,209.5 89.5,209.5C 89.5,214.5 89.5,219.5 89.5,224.5C 84.5,224.5 79.5,224.5 74.5,224.5C 74.5,219.5 74.5,214.5 74.5,209.5 Z"/></g>
<g><path style="opacity:1" fill="#edeeed" d="M -0.5,224.5 C 4.5,224.5 9.5,224.5 14.5,224.5C 14.5,229.5 14.5,234.5 14.5,239.5C 9.5,239.5 4.5,239.5 -0.5,239.5C -0.5,234.5 -0.5,229.5 -0.5,224.5 Z"/></g>
<g><path style="opacity:1" fill="#fefffe" d="M 14.5,224.5 C 19.5,224.5 24.5,224.5 29.5,224.5C 29.5,229.5 29.5,234.5 29.5,239.5C 24.5,239.5 19.5,239.5 14.5,239.5C 14.5,234.5 14.5,229.5 14.5,224.5 Z"/></g>
<g><path style="opacity:1" fill="#edeeed" d="M 29.5,224.5 C 34.5,224.5 39.5,224.5 44.5,224.5C 44.5,229.5 44.5,234.5 44.5,239.5C 39.5,239.5 34.5,239.5 29.5,239.5C 29.5,234.5 29.5,229.5 29.5,224.5 Z"/></g>
<g><path style="opacity:1" fill="#fefffe" d="M 44.5,224.5 C 49.5,224.5 54.5,224.5 59.5,224.5C 59.5,229.5 59.5,234.5 59.5,239.5C 54.5,239.5 49.5,239.5 44.5,239.5C 44.5,234.5 44.5,229.5 44.5,224.5 Z"/></g>
<g><path style="opacity:1" fill="#edeeed" d="M 59.5,224.5 C 64.5,224.5 69.5,224.5 74.5,224.5C 74.5,229.5 74.5,234.5 74.5,239.5C 69.5,239.5 64.5,239.5 59.5,239.5C 59.5,234.5 59.5,229.5 59.5,224.5 Z"/></g>
<g><path style="opacity:1" fill="#fefffe" d="M 74.5,224.5 C 79.5,224.5 84.5,224.5 89.5,224.5C 89.5,229.5 89.5,234.5 89.5,239.5C 84.5,239.5 79.5,239.5 74.5,239.5C 74.5,234.5 74.5,229.5 74.5,224.5 Z"/></g>
<g><path style="opacity:1" fill="#fefffe" d="M -0.5,239.5 C 4.5,239.5 9.5,239.5 14.5,239.5C 14.5,244.5 14.5,249.5 14.5,254.5C 9.5,254.5 4.5,254.5 -0.5,254.5C -0.5,249.5 -0.5,244.5 -0.5,239.5 Z"/></g>
<g><path style="opacity:1" fill="#edeeed" d="M 14.5,239.5 C 19.5,239.5 24.5,239.5 29.5,239.5C 29.5,244.5 29.5,249.5 29.5,254.5C 24.5,254.5 19.5,254.5 14.5,254.5C 14.5,249.5 14.5,244.5 14.5,239.5 Z"/></g>
<g><path style="opacity:1" fill="#fefffe" d="M 164.5,254.5 C 159.5,254.5 154.5,254.5 149.5,254.5C 149.5,249.5 149.5,244.5 149.5,239.5C 154.5,239.5 159.5,239.5 164.5,239.5C 164.5,244.5 164.5,249.5 164.5,254.5 Z"/></g>
<g><path style="opacity:1" fill="#edeeed" d="M -0.5,254.5 C 4.5,254.5 9.5,254.5 14.5,254.5C 14.5,259.5 14.5,264.5 14.5,269.5C 9.5,269.5 4.5,269.5 -0.5,269.5C -0.5,264.5 -0.5,259.5 -0.5,254.5 Z"/></g>
<g><path style="opacity:1" fill="#f7f7f7" d="M 135.5,100.5 C 131.396,102.725 127.396,105.225 123.5,108C 115.829,114.995 111.829,123.662 111.5,134C 112.677,152.215 122.01,163.715 139.5,168.5C 140.494,173.456 140.827,178.456 140.5,183.5C 129.25,186.083 122.25,193.083 119.5,204.5C 118.679,207.641 118.179,210.975 118,214.5C 117.506,212.866 117.34,211.199 117.5,209.5C 113.167,209.5 108.833,209.5 104.5,209.5C 104.5,214.5 104.5,219.5 104.5,224.5C 109.5,224.5 114.5,224.5 119.5,224.5C 119.5,229.5 119.5,234.5 119.5,239.5C 124.5,239.5 129.5,239.5 134.5,239.5C 134.5,244.5 134.5,249.5 134.5,254.5C 139.5,254.5 144.5,254.5 149.5,254.5C 154.5,254.5 159.5,254.5 164.5,254.5C 169.5,254.5 174.5,254.5 179.5,254.5C 179.5,257.167 179.5,259.833 179.5,262.5C 181.415,262.216 183.081,262.549 184.5,263.5C 170.827,264.509 164.827,271.843 166.5,285.5C 163.833,285.5 161.167,285.5 158.5,285.5C 158.5,289.167 158.5,292.833 158.5,296.5C 157.517,292.702 157.183,288.702 157.5,284.5C 150.492,284.666 143.492,284.5 136.5,284C 140.821,283.501 145.154,283.334 149.5,283.5C 149.5,278.833 149.5,274.167 149.5,269.5C 144.5,269.5 139.5,269.5 134.5,269.5C 134.5,274.5 134.5,279.5 134.5,284.5C 132.379,284.325 130.379,284.659 128.5,285.5C 110.519,280.21 97.3521,285.877 89,302.5C 85.5432,314.885 87.5432,326.218 95,336.5C 105.621,346.042 117.454,347.876 130.5,342C 132.333,340.167 134.167,338.333 136,336.5C 136.497,338.81 136.663,341.143 136.5,343.5C 141.167,343.5 145.833,343.5 150.5,343.5C 145.36,344.488 140.026,344.821 134.5,344.5C 134.5,349.5 134.5,354.5 134.5,359.5C 134.5,364.5 134.5,369.5 134.5,374.5C 129.5,374.5 124.5,374.5 119.5,374.5C 119.5,369.5 119.5,364.5 119.5,359.5C 114.5,359.5 109.5,359.5 104.5,359.5C 104.5,364.5 104.5,369.5 104.5,374.5C 99.5,374.5 94.5,374.5 89.5,374.5C 89.5,369.5 89.5,364.5 89.5,359.5C 84.5,359.5 79.5,359.5 74.5,359.5C 74.5,354.833 74.5,350.167 74.5,345.5C 71.9588,345.851 70.2921,345.518 69.5,344.5C 74.8746,344.828 80.2079,344.495 85.5,343.5C 85.3764,342.893 85.0431,342.56 84.5,342.5C 77.0863,332.018 69.4196,321.685 61.5,311.5C 68.9817,302.851 76.6483,294.351 84.5,286C 78.8333,285.333 73.1667,285.333 67.5,286C 61.3333,292.833 55.1667,299.667 49,306.5C 48.5001,292.837 48.3334,279.171 48.5,265.5C 43.8333,265.5 39.1667,265.5 34.5,265.5C 34.5,291.5 34.5,317.5 34.5,343.5C 42.6499,344.493 50.9832,344.826 59.5,344.5C 59.5,349.5 59.5,354.5 59.5,359.5C 54.5,359.5 49.5,359.5 44.5,359.5C 44.5,364.5 44.5,369.5 44.5,374.5C 39.5,374.5 34.5,374.5 29.5,374.5C 29.5,369.5 29.5,364.5 29.5,359.5C 24.5,359.5 19.5,359.5 14.5,359.5C 14.5,354.5 14.5,349.5 14.5,344.5C 14.5,339.5 14.5,334.5 14.5,329.5C 14.5,324.5 14.5,319.5 14.5,314.5C 14.5,309.5 14.5,304.5 14.5,299.5C 14.5,294.5 14.5,289.5 14.5,284.5C 14.5,279.5 14.5,274.5 14.5,269.5C 14.5,264.5 14.5,259.5 14.5,254.5C 19.5,254.5 24.5,254.5 29.5,254.5C 29.5,249.5 29.5,244.5 29.5,239.5C 34.5,239.5 39.5,239.5 44.5,239.5C 49.5,239.5 54.5,239.5 59.5,239.5C 64.5,239.5 69.5,239.5 74.5,239.5C 79.5,239.5 84.5,239.5 89.5,239.5C 89.5,234.5 89.5,229.5 89.5,224.5C 89.5,219.5 89.5,214.5 89.5,209.5C 89.5,204.5 89.5,199.5 89.5,194.5C 89.5,189.5 89.5,184.5 89.5,179.5C 89.5,174.5 89.5,169.5 89.5,164.5C 89.5,159.5 89.5,154.5 89.5,149.5C 89.5,144.5 89.5,139.5 89.5,134.5C 89.5,129.5 89.5,124.5 89.5,119.5C 94.5,119.5 99.5,119.5 104.5,119.5C 104.5,114.5 104.5,109.5 104.5,104.5C 109.5,104.5 114.5,104.5 119.5,104.5C 119.5,99.5 119.5,94.5 119.5,89.5C 124.5,89.5 129.5,89.5 134.5,89.5C 134.185,93.3714 134.518,97.0381 135.5,100.5 Z"/></g>
<g><path style="opacity:1" fill="#030303" d="M 184.5,263.5 C 186.167,263.5 187.833,263.5 189.5,263.5C 189.5,267.167 189.5,270.833 189.5,274.5C 181.844,274.167 178.844,277.833 180.5,285.5C 183.5,285.5 186.5,285.5 189.5,285.5C 189.5,289.167 189.5,292.833 189.5,296.5C 186.5,296.5 183.5,296.5 180.5,296.5C 179.504,311.991 179.17,327.658 179.5,343.5C 175.167,343.5 170.833,343.5 166.5,343.5C 166.83,327.658 166.496,311.991 165.5,296.5C 163.167,296.5 160.833,296.5 158.5,296.5C 158.5,292.833 158.5,289.167 158.5,285.5C 161.167,285.5 163.833,285.5 166.5,285.5C 164.827,271.843 170.827,264.509 184.5,263.5 Z"/></g>
<g><path style="opacity:1" fill="#030303" d="M 84.5,342.5 C 79.6946,343.487 74.6946,343.821 69.5,343.5C 62.5299,334.349 55.6966,325.016 49,315.5C 48.5002,324.827 48.3335,334.161 48.5,343.5C 43.8333,343.5 39.1667,343.5 34.5,343.5C 34.5,317.5 34.5,291.5 34.5,265.5C 39.1667,265.5 43.8333,265.5 48.5,265.5C 48.3334,279.171 48.5001,292.837 49,306.5C 55.1667,299.667 61.3333,292.833 67.5,286C 73.1667,285.333 78.8333,285.333 84.5,286C 76.6483,294.351 68.9817,302.851 61.5,311.5C 69.4196,321.685 77.0863,332.018 84.5,342.5 Z"/></g>
<g><path style="opacity:1" fill="#020202" d="M 212.5,265.5 C 212.167,279.183 212.501,292.85 213.5,306.5C 214.107,306.376 214.44,306.043 214.5,305.5C 215.833,303.833 217.167,302.167 218.5,300.5C 222.968,295.861 227.301,291.028 231.5,286C 237.167,285.333 242.833,285.333 248.5,286C 241,294.167 233.5,302.333 226,310.5C 225.721,312.412 226.554,313.746 228.5,314.5C 234.872,324.385 241.872,333.885 249.5,343C 243.804,343.83 238.137,343.663 232.5,342.5C 226.475,334.148 220.475,325.815 214.5,317.5C 214.217,316.711 213.717,316.044 213,315.5C 212.5,324.827 212.334,334.161 212.5,343.5C 207.833,343.5 203.167,343.5 198.5,343.5C 198.5,317.5 198.5,291.5 198.5,265.5C 203.167,265.5 207.833,265.5 212.5,265.5 Z"/></g>
<g><path style="opacity:1" fill="#fefffe" d="M -0.5,269.5 C 4.5,269.5 9.5,269.5 14.5,269.5C 14.5,274.5 14.5,279.5 14.5,284.5C 9.5,284.5 4.5,284.5 -0.5,284.5C -0.5,279.5 -0.5,274.5 -0.5,269.5 Z"/></g>
<g><path style="opacity:1" fill="#e9e9e9" d="M 158.5,296.5 C 160.369,297.165 162.369,297.831 164.5,298.5C 160.555,299.491 156.555,299.824 152.5,299.5C 152.666,294.821 152.499,290.155 152,285.5C 151.832,305.004 151.332,324.338 150.5,343.5C 150.5,324.167 150.5,304.833 150.5,285.5C 145.833,285.5 141.167,285.5 136.5,285.5C 136.663,287.857 136.497,290.19 136,292.5C 133.604,289.933 131.104,287.6 128.5,285.5C 130.379,284.659 132.379,284.325 134.5,284.5C 134.5,279.5 134.5,274.5 134.5,269.5C 139.5,269.5 144.5,269.5 149.5,269.5C 149.5,274.167 149.5,278.833 149.5,283.5C 145.154,283.334 140.821,283.501 136.5,284C 143.492,284.5 150.492,284.666 157.5,284.5C 157.183,288.702 157.517,292.702 158.5,296.5 Z"/></g>
<g><path style="opacity:1" fill="#020202" d="M 128.5,285.5 C 131.104,287.6 133.604,289.933 136,292.5C 136.497,290.19 136.663,287.857 136.5,285.5C 141.167,285.5 145.833,285.5 150.5,285.5C 150.5,304.833 150.5,324.167 150.5,343.5C 145.833,343.5 141.167,343.5 136.5,343.5C 136.663,341.143 136.497,338.81 136,336.5C 134.167,338.333 132.333,340.167 130.5,342C 117.454,347.876 105.621,346.042 95,336.5C 87.5432,326.218 85.5432,314.885 89,302.5C 97.3521,285.877 110.519,280.21 128.5,285.5 Z"/></g>
<g><path style="opacity:1" fill="#020202" d="M 300.5,343.5 C 300.663,341.143 300.497,338.81 300,336.5C 295.333,342.452 289.166,345.452 281.5,345.5C 267.497,345.34 257.997,338.674 253,325.5C 248.337,308.345 253.504,295.178 268.5,286C 280.616,281.037 291.116,283.204 300,292.5C 300.497,290.19 300.663,287.857 300.5,285.5C 305.167,285.5 309.833,285.5 314.5,285.5C 314.5,304.833 314.5,324.167 314.5,343.5C 309.833,343.5 305.167,343.5 300.5,343.5 Z"/></g>
<g><path style="opacity:1" fill="#edeeed" d="M -0.5,284.5 C 4.5,284.5 9.5,284.5 14.5,284.5C 14.5,289.5 14.5,294.5 14.5,299.5C 9.5,299.5 4.5,299.5 -0.5,299.5C -0.5,294.5 -0.5,289.5 -0.5,284.5 Z"/></g>
<g><path style="opacity:1" fill="#b1b1b1" d="M 212.5,265.5 C 213.167,278.833 213.833,292.167 214.5,305.5C 214.44,306.043 214.107,306.376 213.5,306.5C 212.501,292.85 212.167,279.183 212.5,265.5 Z"/></g>
<g><path style="opacity:1" fill="#fefffe" d="M -0.5,299.5 C 4.5,299.5 9.5,299.5 14.5,299.5C 14.5,304.5 14.5,309.5 14.5,314.5C 9.5,314.5 4.5,314.5 -0.5,314.5C -0.5,309.5 -0.5,304.5 -0.5,299.5 Z"/></g>
<g><path style="opacity:1" fill="#f2f2f2" d="M 113.5,296.5 C 130.338,295.17 137.838,302.837 136,319.5C 130.691,331.826 121.858,335.326 109.5,330C 101.302,322.908 99.4685,314.408 104,304.5C 106.772,301.217 109.939,298.55 113.5,296.5 Z"/></g>
<g><path style="opacity:1" fill="#edeeed" d="M -0.5,314.5 C 4.5,314.5 9.5,314.5 14.5,314.5C 14.5,319.5 14.5,324.5 14.5,329.5C 9.5,329.5 4.5,329.5 -0.5,329.5C -0.5,324.5 -0.5,319.5 -0.5,314.5 Z"/></g>
<g><path style="opacity:1" fill="#929292" d="M 165.5,296.5 C 166.496,311.991 166.83,327.658 166.5,343.5C 170.833,343.5 175.167,343.5 179.5,343.5C 179.17,327.658 179.504,311.991 180.5,296.5C 180.5,312.5 180.5,328.5 180.5,344.5C 175.5,344.5 170.5,344.5 165.5,344.5C 165.5,328.5 165.5,312.5 165.5,296.5 Z"/></g>
<g><path style="opacity:1" fill="#f2f2f2" d="M 278.5,296.5 C 289.186,295.09 296.353,299.424 300,309.5C 302.194,320.618 298.027,328.118 287.5,332C 276.779,333.891 269.613,329.724 266,319.5C 264.449,308.594 268.616,300.927 278.5,296.5 Z"/></g>
<g><path style="opacity:1" fill="#fefffe" d="M -0.5,329.5 C 4.5,329.5 9.5,329.5 14.5,329.5C 14.5,334.5 14.5,339.5 14.5,344.5C 9.5,344.5 4.5,344.5 -0.5,344.5C -0.5,339.5 -0.5,334.5 -0.5,329.5 Z"/></g>
<g><path style="opacity:1" fill="#b6b6b6" d="M 214.5,317.5 C 213.833,326.167 213.167,334.833 212.5,343.5C 212.334,334.161 212.5,324.827 213,315.5C 213.717,316.044 214.217,316.711 214.5,317.5 Z"/></g>
<g><path style="opacity:1" fill="#8e8e8e" d="M 84.5,342.5 C 85.0431,342.56 85.3764,342.893 85.5,343.5C 80.2079,344.495 74.8746,344.828 69.5,344.5C 69.5,344.167 69.5,343.833 69.5,343.5C 74.6946,343.821 79.6946,343.487 84.5,342.5 Z"/></g>
<g><path style="opacity:1" fill="#f1f1f1" d="M 69.5,343.5 C 69.5,343.833 69.5,344.167 69.5,344.5C 70.2921,345.518 71.9588,345.851 74.5,345.5C 74.5,350.167 74.5,354.833 74.5,359.5C 79.5,359.5 84.5,359.5 89.5,359.5C 89.5,364.5 89.5,369.5 89.5,374.5C 94.5,374.5 99.5,374.5 104.5,374.5C 104.5,369.5 104.5,364.5 104.5,359.5C 109.5,359.5 114.5,359.5 119.5,359.5C 119.5,364.5 119.5,369.5 119.5,374.5C 124.5,374.5 129.5,374.5 134.5,374.5C 134.5,369.5 134.5,364.5 134.5,359.5C 139.5,359.5 144.5,359.5 149.5,359.5C 149.5,364.5 149.5,369.5 149.5,374.5C 154.5,374.5 159.5,374.5 164.5,374.5C 164.5,369.5 164.5,364.5 164.5,359.5C 169.5,359.5 174.5,359.5 179.5,359.5C 179.5,364.5 179.5,369.5 179.5,374.5C 184.5,374.5 189.5,374.5 194.5,374.5C 194.5,369.5 194.5,364.5 194.5,359.5C 199.5,359.5 204.5,359.5 209.5,359.5C 209.5,364.5 209.5,369.5 209.5,374.5C 214.5,374.5 219.5,374.5 224.5,374.5C 224.5,369.5 224.5,364.5 224.5,359.5C 229.5,359.5 234.5,359.5 239.5,359.5C 239.5,364.5 239.5,369.5 239.5,374.5C 244.5,374.5 249.5,374.5 254.5,374.5C 254.5,369.5 254.5,364.5 254.5,359.5C 259.5,359.5 264.5,359.5 269.5,359.5C 269.5,364.5 269.5,369.5 269.5,374.5C 274.5,374.5 279.5,374.5 284.5,374.5C 284.5,369.5 284.5,364.5 284.5,359.5C 289.5,359.5 294.5,359.5 299.5,359.5C 299.5,364.5 299.5,369.5 299.5,374.5C 304.5,374.5 309.5,374.5 314.5,374.5C 314.5,369.5 314.5,364.5 314.5,359.5C 319.5,359.5 324.5,359.5 329.5,359.5C 329.5,364.5 329.5,369.5 329.5,374.5C 334.5,374.5 339.5,374.5 344.5,374.5C 344.5,369.5 344.5,364.5 344.5,359.5C 345.5,359.5 346.5,359.5 347.5,359.5C 347.5,365.833 347.5,372.167 347.5,378.5C 231.5,378.5 115.5,378.5 -0.5,378.5C -0.5,367.167 -0.5,355.833 -0.5,344.5C 4.5,344.5 9.5,344.5 14.5,344.5C 14.5,349.5 14.5,354.5 14.5,359.5C 19.5,359.5 24.5,359.5 29.5,359.5C 29.5,364.5 29.5,369.5 29.5,374.5C 34.5,374.5 39.5,374.5 44.5,374.5C 44.5,369.5 44.5,364.5 44.5,359.5C 49.5,359.5 54.5,359.5 59.5,359.5C 59.5,354.5 59.5,349.5 59.5,344.5C 50.9832,344.826 42.6499,344.493 34.5,343.5C 39.1667,343.5 43.8333,343.5 48.5,343.5C 48.3335,334.161 48.5002,324.827 49,315.5C 55.6966,325.016 62.5299,334.349 69.5,343.5 Z"/></g>
</svg>
