<?xml version="1.0" encoding="UTF-8"?>
<!DOCTYPE svg PUBLIC "-//W3C//DTD SVG 1.1//EN" "http://www.w3.org/Graphics/SVG/1.1/DTD/svg11.dtd">
<svg xmlns="http://www.w3.org/2000/svg" version="1.1" width="3000px" height="2000px" style="shape-rendering:geometricPrecision; text-rendering:geometricPrecision; image-rendering:optimizeQuality; fill-rule:evenodd; clip-rule:evenodd" xmlns:xlink="http://www.w3.org/1999/xlink">
<g><path style="opacity:0.999" fill="#326ce5" d="M 1488.5,332.5 C 1507.84,330.857 1526.17,334.357 1543.5,343C 1699.05,417.606 1854.71,491.939 2010.5,566C 2037.67,577.169 2055.84,596.669 2065,624.5C 2105,797.833 2145,971.167 2185,1144.5C 2190.24,1172.82 2184.57,1198.16 2168,1220.5C 2057.02,1357.72 1946.19,1495.72 1835.5,1634.5C 1819.64,1651.34 1800.48,1662.01 1778,1666.5C 1593.29,1666.66 1408.46,1666.5 1223.5,1666C 1193.35,1661.48 1170.35,1646.82 1154.5,1622C 1046.14,1487.94 937.973,1353.44 830,1218.5C 828.786,1216.95 827.286,1215.78 825.5,1215C 825.833,1214.67 826.167,1214.33 826.5,1214C 813.394,1193.4 809.228,1170.24 814,1144.5C 853.158,974.869 892.158,805.203 931,635.5C 937.724,604.118 955.558,581.618 984.5,568C 1142.29,492.939 1299.95,417.606 1457.5,342C 1467.56,337.477 1477.89,334.311 1488.5,332.5 Z"/></g>
<g><path style="opacity:1" fill="#fefefe" d="M 1467.5,1393.5 C 1462.38,1392.19 1457.05,1391.53 1451.5,1391.5C 1422.93,1388.11 1395.26,1381.11 1368.5,1370.5C 1366.33,1374.17 1364.17,1377.83 1362,1381.5C 1352.93,1383.57 1346.59,1388.91 1343,1397.5C 1334.34,1419.15 1326.67,1441.15 1320,1463.5C 1316.81,1473.07 1311.31,1480.91 1303.5,1487C 1288.84,1494.83 1276.01,1492.67 1265,1480.5C 1259.91,1472.04 1258.57,1463.04 1261,1453.5C 1263.39,1447.71 1266.06,1442.05 1269,1436.5C 1282.5,1418.17 1294.5,1398.84 1305,1378.5C 1309.47,1370.78 1309.64,1362.95 1305.5,1355C 1306.87,1351.04 1308.54,1347.21 1310.5,1343.5C 1239.16,1299.99 1187.32,1239.65 1155,1162.5C 1151.86,1154.24 1149.03,1145.91 1146.5,1137.5C 1141.52,1138.33 1136.52,1138.5 1131.5,1138C 1124.33,1133.31 1116.66,1132.31 1108.5,1135C 1086.86,1140.55 1065.86,1147.88 1045.5,1157C 1036.72,1160.03 1027.72,1161.03 1018.5,1160C 997.006,1152.52 990.839,1138.35 1000,1117.5C 1007.72,1107.72 1017.88,1102.22 1030.5,1101C 1055.09,1100.04 1079.42,1097.04 1103.5,1092C 1105.5,1091.33 1107.5,1090.67 1109.5,1090C 1113.54,1086.3 1117.2,1082.3 1120.5,1078C 1124.11,1076.85 1127.78,1076.02 1131.5,1075.5C 1127.34,1046.23 1126.67,1016.89 1129.5,987.5C 1130.89,982.731 1131.56,977.731 1131.5,972.5C 1139,916.309 1158.34,864.642 1189.5,817.5C 1186.54,815.044 1183.71,812.378 1181,809.5C 1180.4,803.036 1178.24,797.203 1174.5,792C 1155.19,776.673 1134.53,763.339 1112.5,752C 1103.95,746.453 1097.12,739.287 1092,730.5C 1085.75,711.529 1091.92,698.696 1110.5,692C 1119.84,690.284 1128.5,691.95 1136.5,697C 1147,704.833 1156.17,714 1164,724.5C 1176.61,737.451 1190.11,749.284 1204.5,760C 1206.65,760.579 1208.82,761.079 1211,761.5C 1214.14,760.574 1217.31,760.408 1220.5,761C 1223.07,763.243 1225.91,765.076 1229,766.5C 1289.26,705.449 1362.1,668.282 1447.5,655C 1454.14,654.048 1460.8,653.548 1467.5,653.5C 1467.31,649.085 1467.81,644.751 1469,640.5C 1476.86,633.165 1479.7,624.165 1477.5,613.5C 1477.06,593.648 1474.89,573.981 1471,554.5C 1467.31,538.397 1471.15,524.564 1482.5,513C 1505.05,502.022 1520.22,508.522 1528,532.5C 1528.67,539.5 1528.67,546.5 1528,553.5C 1522.89,578.263 1520.89,603.263 1522,628.5C 1523.46,633.095 1526.12,636.761 1530,639.5C 1531.23,644.085 1531.73,648.752 1531.5,653.5C 1624.58,662.879 1703.58,700.879 1768.5,767.5C 1771.64,765.527 1774.64,763.36 1777.5,761C 1786.83,761.92 1795.16,759.587 1802.5,754C 1820.17,739 1836.5,722.667 1851.5,705C 1856.5,701.333 1861.5,697.667 1866.5,694C 1885.2,686.443 1899.03,691.609 1908,709.5C 1910.2,719.188 1908.53,728.188 1903,736.5C 1898.8,741.034 1894.3,745.201 1889.5,749C 1868.99,760.082 1849.32,772.416 1830.5,786C 1827.31,789.194 1824.14,792.36 1821,795.5C 1819.26,799.649 1818.26,803.983 1818,808.5C 1814.96,811.711 1811.79,814.711 1808.5,817.5C 1859.31,895.768 1879.48,981.435 1869,1074.5C 1872.47,1075.66 1875.97,1076.82 1879.5,1078C 1882.65,1084.48 1887.65,1088.82 1894.5,1091C 1919.9,1096.3 1945.57,1099.64 1971.5,1101C 1987.44,1102.95 1997.94,1111.45 2003,1126.5C 2003.9,1147.27 1993.9,1158.27 1973,1159.5C 1967.04,1159.57 1961.2,1158.74 1955.5,1157C 1930.98,1146.33 1905.64,1138.16 1879.5,1132.5C 1874.7,1133.24 1870.36,1135.07 1866.5,1138C 1862.4,1138.48 1858.4,1137.98 1854.5,1136.5C 1823.89,1225.42 1768.89,1294.75 1689.5,1344.5C 1690.84,1348.17 1692.17,1351.84 1693.5,1355.5C 1689.9,1362.1 1689.73,1368.77 1693,1375.5C 1703.35,1396.82 1715.68,1416.82 1730,1435.5C 1733.83,1442.16 1736.83,1449.16 1739,1456.5C 1740.41,1479.75 1729.58,1491.25 1706.5,1491C 1699.05,1489.21 1692.88,1485.38 1688,1479.5C 1684.63,1474.08 1681.63,1468.42 1679,1462.5C 1672.78,1439.5 1664.78,1417.17 1655,1395.5C 1651.4,1388.07 1645.57,1383.4 1637.5,1381.5C 1635.57,1377.97 1633.4,1374.63 1631,1371.5C 1578.16,1391.17 1523.66,1398.5 1467.5,1393.5 Z"/></g>
<g><path style="opacity:1" fill="#326ce5" d="M 1461.5,767.5 C 1460.51,775.325 1459.84,783.325 1459.5,791.5C 1458.97,801.158 1458.64,810.825 1458.5,820.5C 1457.51,828.325 1456.84,836.325 1456.5,844.5C 1456.33,858.257 1455.16,871.924 1453,885.5C 1446.25,901.089 1434.75,906.256 1418.5,901C 1376.06,871.717 1334.06,841.884 1292.5,811.5C 1340.08,765.214 1397.08,737.88 1463.5,729.5C 1462.34,742.134 1461.67,754.801 1461.5,767.5 Z"/></g>
<g><path style="opacity:1" fill="#326ce5" d="M 1535.5,729.5 C 1601.22,738.698 1657.89,766.031 1705.5,811.5C 1666.33,839.828 1627,867.995 1587.5,896C 1579.03,902.378 1569.69,904.044 1559.5,901C 1552.09,897.261 1547.26,891.428 1545,883.5C 1541.77,832.158 1538.6,780.824 1535.5,729.5 Z"/></g>
<g><path style="opacity:1" fill="#c8d6f8" d="M 1461.5,767.5 C 1461.88,775.736 1461.22,783.736 1459.5,791.5C 1459.84,783.325 1460.51,775.325 1461.5,767.5 Z"/></g>
<g><path style="opacity:1" fill="#c8d6f8" d="M 1458.5,820.5 C 1458.88,828.736 1458.22,836.736 1456.5,844.5C 1456.84,836.325 1457.51,828.325 1458.5,820.5 Z"/></g>
<g><path style="opacity:1" fill="#326ce5" d="M 1246.5,868.5 C 1283.8,901.292 1320.96,934.292 1358,967.5C 1370.43,980.545 1370.59,993.711 1358.5,1007C 1354.78,1009.53 1350.78,1011.53 1346.5,1013C 1299.74,1026.2 1253.07,1039.7 1206.5,1053.5C 1198.8,987.313 1212.13,925.646 1246.5,868.5 Z"/></g>
<g><path style="opacity:1" fill="#326ce5" d="M 1750.5,868.5 C 1773.64,904.414 1787.81,943.748 1793,986.5C 1795.57,1008.46 1796.07,1030.46 1794.5,1052.5C 1746.44,1039.32 1698.44,1025.82 1650.5,1012C 1632.28,1003.73 1627.45,990.567 1636,972.5C 1674.06,937.598 1712.23,902.932 1750.5,868.5 Z"/></g>
<g><path style="opacity:1" fill="#326ce5" d="M 1476.5,976.5 C 1491.84,976.333 1507.17,976.5 1522.5,977C 1531.67,988.167 1540.83,999.333 1550,1010.5C 1547.45,1026.02 1543.95,1041.35 1539.5,1056.5C 1526.16,1062.84 1512.83,1069.17 1499.5,1075.5C 1485.68,1069.09 1472.02,1062.43 1458.5,1055.5C 1455.01,1041.21 1451.68,1026.88 1448.5,1012.5C 1457.44,1000.22 1466.78,988.221 1476.5,976.5 Z"/></g>
<g><path style="opacity:1" fill="#c7d6f8" d="M 1131.5,972.5 C 1131.56,977.731 1130.89,982.731 1129.5,987.5C 1129.44,982.269 1130.11,977.269 1131.5,972.5 Z"/></g>
<g><path style="opacity:1" fill="#326ce5" d="M 1365.5,1099.5 C 1391.64,1098.8 1401.8,1111.13 1396,1136.5C 1377.37,1181.76 1358.37,1226.76 1339,1271.5C 1284.02,1235.5 1244.85,1186.67 1221.5,1125C 1269.59,1116.38 1317.59,1107.88 1365.5,1099.5 Z"/></g>
<g><path style="opacity:1" fill="#326ce5" d="M 1621.5,1098.5 C 1673.56,1106.4 1725.56,1114.73 1777.5,1123.5C 1755.32,1186.35 1716.32,1236.02 1660.5,1272.5C 1639.85,1224.86 1620.02,1176.86 1601,1128.5C 1599.68,1112.77 1606.52,1102.77 1621.5,1098.5 Z"/></g>
<g><path style="opacity:1" fill="#326ce5" d="M 1496.5,1159.5 C 1508.21,1159.44 1517.05,1164.44 1523,1174.5C 1546.63,1217.63 1570.47,1260.63 1594.5,1303.5C 1531.48,1324.77 1468.48,1324.77 1405.5,1303.5C 1429.08,1260.01 1452.91,1216.67 1477,1173.5C 1481.46,1165.85 1487.96,1161.18 1496.5,1159.5 Z"/></g>
<g><path style="opacity:1" fill="#c8d6f8" d="M 1451.5,1391.5 C 1457.05,1391.53 1462.38,1392.19 1467.5,1393.5C 1461.93,1393.62 1456.6,1392.96 1451.5,1391.5 Z"/></g>
</svg>
