<?xml version="1.0" encoding="UTF-8"?>
<!DOCTYPE svg PUBLIC "-//W3C//DTD SVG 1.1//EN" "http://www.w3.org/Graphics/SVG/1.1/DTD/svg11.dtd">
<svg xmlns="http://www.w3.org/2000/svg" version="1.1" width="90px" height="86px" style="shape-rendering:geometricPrecision; text-rendering:geometricPrecision; image-rendering:optimizeQuality; fill-rule:evenodd; clip-rule:evenodd" xmlns:xlink="http://www.w3.org/1999/xlink">
<g><path style="opacity:1" fill="#202020" d="M 23.5,-0.5 C 38.1667,-0.5 52.8333,-0.5 67.5,-0.5C 66.4376,0.575371 66.4376,1.57537 67.5,2.5C 76.7975,5.36408 76.7975,6.53075 67.5,6C 69.4178,8.73117 71.4178,11.2312 73.5,13.5C 71.5,13.5 69.5,13.5 67.5,13.5C 67.9848,20.5309 65.3181,25.8643 59.5,29.5C 58.5119,24.3595 58.1786,19.0262 58.5,13.5C 56.1667,13.5 53.8333,13.5 51.5,13.5C 50.3836,10.3359 48.717,7.33592 46.5,4.5C 44.9539,5.68401 43.2873,6.68401 41.5,7.5C 43.1353,8.68084 44.802,8.68084 46.5,7.5C 47.3816,8.75978 48.3816,9.92644 49.5,11C 46.7215,11.1492 46.2215,11.9826 48,13.5C 48.1706,22.0101 48.6706,30.3434 49.5,38.5C 54.602,39.6889 59.602,39.0222 64.5,36.5C 64.0844,38.7525 62.751,40.2525 60.5,41C 63.1899,41.3345 63.8565,42.5012 62.5,44.5C 58.3431,42.9376 54.0097,42.271 49.5,42.5C 48.5184,45.9619 48.185,49.6286 48.5,53.5C 47.1667,53.5 45.8333,53.5 44.5,53.5C 44.8195,58.3633 44.4861,63.03 43.5,67.5C 43.5,59.1667 43.5,50.8333 43.5,42.5C 36.7961,42.0067 30.7961,43.6733 25.5,47.5C 24.7375,46.7321 23.7375,46.2321 22.5,46C 24.108,43.391 26.4413,42.0577 29.5,42C 28.8333,41.3333 28.1667,40.6667 27.5,40C 25.4259,40.2273 23.4259,40.0606 21.5,39.5C 20.646,40.5217 19.646,41.3551 18.5,42C 19.6537,42.9138 19.487,43.7471 18,44.5C 17.0293,43.8016 15.8626,43.8016 14.5,44.5C 11.9897,43.6578 11.323,42.1578 12.5,40C 10.5506,38.1653 8.21725,36.9986 5.5,36.5C 8.05466,35.5389 10.388,34.2055 12.5,32.5C 13.086,32.7093 13.586,33.0426 14,33.5C 15.1096,31.9632 16.6096,31.2965 18.5,31.5C 18.264,29.0268 16.9307,27.3601 14.5,26.5C 15.152,24.5497 14.152,23.5497 11.5,23.5C 13.5,23.1667 15.5,22.8333 17.5,22.5C 21.7653,34.6467 30.432,40.3133 43.5,39.5C 43.5,30.8333 43.5,22.1667 43.5,13.5C 42.5,13.5 41.5,13.5 40.5,13.5C 39.4975,11.9891 38.8308,10.3224 38.5,8.5C 36.1944,8.00745 33.861,7.67412 31.5,7.5C 31.752,4.63006 30.752,2.29673 28.5,0.5C 27.792,2.10257 27.1253,4.10257 26.5,6.5C 23.8333,6.5 21.1667,6.5 18.5,6.5C 17.3918,4.30488 17.5585,2.30488 19,0.5C 20.6169,1.53585 20.7836,2.70251 19.5,4C 20,4.16667 20.5,4.33333 21,4.5C 21.1878,2.65659 22.0211,0.989926 23.5,-0.5 Z"/></g>
<g><path style="opacity:1" fill="#1c1c1c" d="M 67.5,-0.5 C 74.8333,-0.5 82.1667,-0.5 89.5,-0.5C 89.5,13.1667 89.5,26.8333 89.5,40.5C 87.2362,41.2186 84.9029,41.552 82.5,41.5C 82.3601,43.1238 83.0267,44.2904 84.5,45C 82.1913,45.7562 80.1913,45.2562 78.5,43.5C 77.8333,44.1667 77.1667,44.8333 76.5,45.5C 75.065,43.5989 73.3983,43.2655 71.5,44.5C 72.9501,45.8498 73.6168,47.5165 73.5,49.5C 72.5,49.5 71.5,49.5 70.5,49.5C 68.1698,47.3328 65.5032,45.6662 62.5,44.5C 63.8565,42.5012 63.1899,41.3345 60.5,41C 62.751,40.2525 64.0844,38.7525 64.5,36.5C 71.3375,32.3402 75.0042,26.1736 75.5,18C 75.4313,16.0145 74.7647,14.5145 73.5,13.5C 71.4178,11.2312 69.4178,8.73117 67.5,6C 76.7975,6.53075 76.7975,5.36408 67.5,2.5C 66.4376,1.57537 66.4376,0.575371 67.5,-0.5 Z"/></g>
<g><path style="opacity:1" fill="#434343" d="M 59.5,29.5 C 59.44,30.0431 59.1067,30.3764 58.5,30.5C 57.5052,25.2079 57.1718,19.8746 57.5,14.5C 54.8333,14.5 52.1667,14.5 49.5,14.5C 49.5,22.5 49.5,30.5 49.5,38.5C 48.6706,30.3434 48.1706,22.0101 48,13.5C 46.2215,11.9826 46.7215,11.1492 49.5,11C 48.3816,9.92644 47.3816,8.75978 46.5,7.5C 44.802,8.68084 43.1353,8.68084 41.5,7.5C 43.2873,6.68401 44.9539,5.68401 46.5,4.5C 48.717,7.33592 50.3836,10.3359 51.5,13.5C 53.8333,13.5 56.1667,13.5 58.5,13.5C 58.1786,19.0262 58.5119,24.3595 59.5,29.5 Z"/></g>
<g><path style="opacity:1" fill="#f6f6f6" d="M 33.5,29.5 C 33.56,30.0431 33.8933,30.3764 34.5,30.5C 35.4948,25.2079 35.8282,19.8746 35.5,14.5C 36.9187,13.5489 38.5853,13.2155 40.5,13.5C 41.5,13.5 42.5,13.5 43.5,13.5C 43.5,22.1667 43.5,30.8333 43.5,39.5C 30.432,40.3133 21.7653,34.6467 17.5,22.5C 17.5,19.5 17.5,16.5 17.5,13.5C 20.1667,13.5 22.8333,13.5 25.5,13.5C 24.9994,20.4989 27.666,25.8323 33.5,29.5 Z"/></g>
<g><path style="opacity:1" fill="#f9f9f9" d="M 73.5,13.5 C 74.7647,14.5145 75.4313,16.0145 75.5,18C 75.0042,26.1736 71.3375,32.3402 64.5,36.5C 59.602,39.0222 54.602,39.6889 49.5,38.5C 49.5,30.5 49.5,22.5 49.5,14.5C 52.1667,14.5 54.8333,14.5 57.5,14.5C 57.1718,19.8746 57.5052,25.2079 58.5,30.5C 59.1067,30.3764 59.44,30.0431 59.5,29.5C 65.3181,25.8643 67.9848,20.5309 67.5,13.5C 69.5,13.5 71.5,13.5 73.5,13.5 Z"/></g>
<g><path style="opacity:1" fill="#1b1b1b" d="M -0.5,-0.5 C 7.5,-0.5 15.5,-0.5 23.5,-0.5C 22.0211,0.989926 21.1878,2.65659 21,4.5C 20.5,4.33333 20,4.16667 19.5,4C 20.7836,2.70251 20.6169,1.53585 19,0.5C 17.5585,2.30488 17.3918,4.30488 18.5,6.5C 21.1667,6.5 23.8333,6.5 26.5,6.5C 27.1253,4.10257 27.792,2.10257 28.5,0.5C 30.752,2.29673 31.752,4.63006 31.5,7.5C 33.861,7.67412 36.1944,8.00745 38.5,8.5C 38.8308,10.3224 39.4975,11.9891 40.5,13.5C 38.5853,13.2155 36.9187,13.5489 35.5,14.5C 34.8333,19.5 34.1667,24.5 33.5,29.5C 27.666,25.8323 24.9994,20.4989 25.5,13.5C 22.8333,13.5 20.1667,13.5 17.5,13.5C 17.5,16.5 17.5,19.5 17.5,22.5C 15.5,22.8333 13.5,23.1667 11.5,23.5C 10.1889,26.1331 8.68886,26.1331 7,23.5C 6.29044,24.9733 5.12377,25.6399 3.5,25.5C 3.08894,28.2763 3.92228,28.943 6,27.5C 8.83961,28.2343 9.50628,29.5677 8,31.5C 6.77733,29.0147 5.27733,28.848 3.5,31C 4.62402,31.2492 5.62402,31.7492 6.5,32.5C 4.29326,33.6348 1.95993,34.3015 -0.5,34.5C -0.5,22.8333 -0.5,11.1667 -0.5,-0.5 Z"/></g>
<g><path style="opacity:1" fill="#5c5c5c" d="M 35.5,14.5 C 35.8282,19.8746 35.4948,25.2079 34.5,30.5C 33.8933,30.3764 33.56,30.0431 33.5,29.5C 34.1667,24.5 34.8333,19.5 35.5,14.5 Z"/></g>
<g><path style="opacity:1" fill="#181818" d="M 11.5,23.5 C 14.152,23.5497 15.152,24.5497 14.5,26.5C 16.9307,27.3601 18.264,29.0268 18.5,31.5C 16.6096,31.2965 15.1096,31.9632 14,33.5C 13.586,33.0426 13.086,32.7093 12.5,32.5C 10.388,34.2055 8.05466,35.5389 5.5,36.5C 8.21725,36.9986 10.5506,38.1653 12.5,40C 11.323,42.1578 11.9897,43.6578 14.5,44.5C 15.8626,43.8016 17.0293,43.8016 18,44.5C 19.487,43.7471 19.6537,42.9138 18.5,42C 19.646,41.3551 20.646,40.5217 21.5,39.5C 23.4259,40.0606 25.4259,40.2273 27.5,40C 28.1667,40.6667 28.8333,41.3333 29.5,42C 26.4413,42.0577 24.108,43.391 22.5,46C 23.7375,46.2321 24.7375,46.7321 25.5,47.5C 23.8333,48.5 22.5,49.8333 21.5,51.5C 20.4466,48.7861 18.4466,47.1195 15.5,46.5C 13.5,46.5 12.5,47.5 12.5,49.5C 15.1804,52.3743 14.3471,53.7076 10,53.5C 8.18669,53.1734 6.52002,52.5067 5,51.5C 3.09994,52.0769 1.26661,52.7435 -0.5,53.5C -0.5,47.1667 -0.5,40.8333 -0.5,34.5C 1.95993,34.3015 4.29326,33.6348 6.5,32.5C 5.62402,31.7492 4.62402,31.2492 3.5,31C 5.27733,28.848 6.77733,29.0147 8,31.5C 9.50628,29.5677 8.83961,28.2343 6,27.5C 3.92228,28.943 3.08894,28.2763 3.5,25.5C 5.12377,25.6399 6.29044,24.9733 7,23.5C 8.68886,26.1331 10.1889,26.1331 11.5,23.5 Z"/></g>
<g><path style="opacity:1" fill="#f8f8f8" d="M 43.5,67.5 C 40.8333,67.5 38.1667,67.5 35.5,67.5C 35.8282,62.1254 35.4948,56.7921 34.5,51.5C 33.8933,51.6236 33.56,51.9569 33.5,52.5C 27.666,56.1677 24.9994,61.5011 25.5,68.5C 23.5,68.5 21.5,68.5 19.5,68.5C 18.2227,67.3064 17.5561,65.6397 17.5,63.5C 17.6935,59.1146 19.0268,55.1146 21.5,51.5C 22.5,49.8333 23.8333,48.5 25.5,47.5C 30.7961,43.6733 36.7961,42.0067 43.5,42.5C 43.5,50.8333 43.5,59.1667 43.5,67.5 Z"/></g>
<g><path style="opacity:1" fill="#f8f8f8" d="M 49.5,42.5 C 54.0097,42.271 58.3431,42.9376 62.5,44.5C 65.5032,45.6662 68.1698,47.3328 70.5,49.5C 73.3406,53.6845 75.0073,58.3512 75.5,63.5C 75.4439,65.6397 74.7773,67.3064 73.5,68.5C 71.5,68.5 69.5,68.5 67.5,68.5C 67.8016,65.9407 67.4682,63.6074 66.5,61.5C 65.2316,57.2329 62.5649,54.2329 58.5,52.5C 57.4997,56.7322 57.1663,61.7322 57.5,67.5C 54.8333,67.5 52.1667,67.5 49.5,67.5C 49.5,59.1667 49.5,50.8333 49.5,42.5 Z"/></g>
<g><path style="opacity:1" fill="#1b1b1b" d="M 58.5,52.5 C 62.5649,54.2329 65.2316,57.2329 66.5,61.5C 66.6495,62.552 66.4828,63.552 66,64.5C 64.4447,62.4848 62.6114,62.1515 60.5,63.5C 64.1034,65.6463 63.4367,66.6463 58.5,66.5C 58.5,61.8333 58.5,57.1667 58.5,52.5 Z"/></g>
<g><path style="opacity:1" fill="#1e1e1e" d="M 89.5,40.5 C 89.5,52.1667 89.5,63.8333 89.5,75.5C 86.5505,77.0556 83.8838,76.7223 81.5,74.5C 77.6391,75.4988 77.6391,76.6655 81.5,78C 78.262,78.0256 75.4287,76.8589 73,74.5C 72.3333,73.8333 72.3333,73.1667 73,72.5C 74.2051,71.9288 75.3717,71.2621 76.5,70.5C 75.3984,69.8243 74.3984,69.1577 73.5,68.5C 74.7773,67.3064 75.4439,65.6397 75.5,63.5C 75.0073,58.3512 73.3406,53.6845 70.5,49.5C 71.5,49.5 72.5,49.5 73.5,49.5C 73.6168,47.5165 72.9501,45.8498 71.5,44.5C 73.3983,43.2655 75.065,43.5989 76.5,45.5C 77.1667,44.8333 77.8333,44.1667 78.5,43.5C 80.1913,45.2562 82.1913,45.7562 84.5,45C 83.0267,44.2904 82.3601,43.1238 82.5,41.5C 84.9029,41.552 87.2362,41.2186 89.5,40.5 Z"/></g>
<g><path style="opacity:1" fill="#1c1c1c" d="M 21.5,51.5 C 19.0268,55.1146 17.6935,59.1146 17.5,63.5C 17.5561,65.6397 18.2227,67.3064 19.5,68.5C 18.059,71.5555 18.8923,72.5555 22,71.5C 23.6349,71.8777 25.1349,72.5444 26.5,73.5C 26.2907,74.086 25.9574,74.586 25.5,75C 29.6535,73.9964 30.3202,75.163 27.5,78.5C 27.8333,78.8333 28.1667,79.1667 28.5,79.5C 29.1667,78.8333 29.8333,78.1667 30.5,77.5C 31.7112,78.2739 31.7112,79.1072 30.5,80C 35.6773,80.2658 40.0107,82.0991 43.5,85.5C 28.8333,85.5 14.1667,85.5 -0.5,85.5C -0.5,74.8333 -0.5,64.1667 -0.5,53.5C 1.26661,52.7435 3.09994,52.0769 5,51.5C 6.52002,52.5067 8.18669,53.1734 10,53.5C 14.3471,53.7076 15.1804,52.3743 12.5,49.5C 12.5,47.5 13.5,46.5 15.5,46.5C 18.4466,47.1195 20.4466,48.7861 21.5,51.5 Z"/></g>
<g><path style="opacity:1" fill="#626262" d="M 33.5,52.5 C 33.56,51.9569 33.8933,51.6236 34.5,51.5C 35.4948,56.7921 35.8282,62.1254 35.5,67.5C 38.1667,67.5 40.8333,67.5 43.5,67.5C 40.7131,68.4767 37.7131,68.81 34.5,68.5C 34.8214,62.9738 34.4881,57.6405 33.5,52.5 Z"/></g>
<g><path style="opacity:1" fill="#1b1b1b" d="M 33.5,52.5 C 34.4881,57.6405 34.8214,62.9738 34.5,68.5C 37.7131,68.81 40.7131,68.4767 43.5,67.5C 44.4861,63.03 44.8195,58.3633 44.5,53.5C 45.8333,53.5 47.1667,53.5 48.5,53.5C 48.5,58.8333 48.5,64.1667 48.5,69.5C 46.2495,69.1814 44.2495,69.6814 42.5,71C 43.8989,71.5946 45.2322,71.4279 46.5,70.5C 47.1667,71.1667 47.8333,71.8333 48.5,72.5C 49.2621,71.3717 49.9288,70.2051 50.5,69C 54.5351,68.3035 58.5351,68.4701 62.5,69.5C 64.6656,69.5704 64.9989,68.9038 63.5,67.5C 63.8333,66.5 64.5,65.8333 65.5,65.5C 66.1757,66.6016 66.8423,67.6016 67.5,68.5C 69.5,68.5 71.5,68.5 73.5,68.5C 74.3984,69.1577 75.3984,69.8243 76.5,70.5C 75.3717,71.2621 74.2051,71.9288 73,72.5C 72.3333,73.1667 72.3333,73.8333 73,74.5C 75.4287,76.8589 78.262,78.0256 81.5,78C 77.6391,76.6655 77.6391,75.4988 81.5,74.5C 83.8838,76.7223 86.5505,77.0556 89.5,75.5C 89.5,78.8333 89.5,82.1667 89.5,85.5C 74.1667,85.5 58.8333,85.5 43.5,85.5C 40.0107,82.0991 35.6773,80.2658 30.5,80C 31.7112,79.1072 31.7112,78.2739 30.5,77.5C 29.8333,78.1667 29.1667,78.8333 28.5,79.5C 28.1667,79.1667 27.8333,78.8333 27.5,78.5C 30.3202,75.163 29.6535,73.9964 25.5,75C 25.9574,74.586 26.2907,74.086 26.5,73.5C 25.1349,72.5444 23.6349,71.8777 22,71.5C 18.8923,72.5555 18.059,71.5555 19.5,68.5C 21.5,68.5 23.5,68.5 25.5,68.5C 24.9994,61.5011 27.666,56.1677 33.5,52.5 Z"/></g>
<g><path style="opacity:1" fill="#444444" d="M 49.5,42.5 C 49.5,50.8333 49.5,59.1667 49.5,67.5C 52.1667,67.5 54.8333,67.5 57.5,67.5C 57.1663,61.7322 57.4997,56.7322 58.5,52.5C 58.5,57.1667 58.5,61.8333 58.5,66.5C 63.4367,66.6463 64.1034,65.6463 60.5,63.5C 62.6114,62.1515 64.4447,62.4848 66,64.5C 66.4828,63.552 66.6495,62.552 66.5,61.5C 67.4682,63.6074 67.8016,65.9407 67.5,68.5C 66.8423,67.6016 66.1757,66.6016 65.5,65.5C 64.5,65.8333 63.8333,66.5 63.5,67.5C 64.9989,68.9038 64.6656,69.5704 62.5,69.5C 58.5351,68.4701 54.5351,68.3035 50.5,69C 49.9288,70.2051 49.2621,71.3717 48.5,72.5C 47.8333,71.8333 47.1667,71.1667 46.5,70.5C 45.2322,71.4279 43.8989,71.5946 42.5,71C 44.2495,69.6814 46.2495,69.1814 48.5,69.5C 48.5,64.1667 48.5,58.8333 48.5,53.5C 48.185,49.6286 48.5184,45.9619 49.5,42.5 Z"/></g>
</svg>
