<?xml version="1.0" encoding="UTF-8"?>
<!DOCTYPE svg PUBLIC "-//W3C//DTD SVG 1.1//EN" "http://www.w3.org/Graphics/SVG/1.1/DTD/svg11.dtd">
<svg xmlns="http://www.w3.org/2000/svg" version="1.1" width="264px" height="85px" style="shape-rendering:geometricPrecision; text-rendering:geometricPrecision; image-rendering:optimizeQuality; fill-rule:evenodd; clip-rule:evenodd" xmlns:xlink="http://www.w3.org/1999/xlink">
<g><path style="opacity:1" fill="#1e1e1e" d="M 23.5,-0.5 C 38.1667,-0.5 52.8333,-0.5 67.5,-0.5C 66.4376,0.575371 66.4376,1.57537 67.5,2.5C 76.7975,5.36408 76.7975,6.53075 67.5,6C 69.4178,8.73117 71.4178,11.2312 73.5,13.5C 71.5,13.5 69.5,13.5 67.5,13.5C 67.9848,20.5309 65.3181,25.8643 59.5,29.5C 58.5119,24.3595 58.1786,19.0262 58.5,13.5C 56.1667,13.5 53.8333,13.5 51.5,13.5C 50.3836,10.3359 48.717,7.33592 46.5,4.5C 45.3777,5.63023 44.0443,6.29689 42.5,6.5C 42.631,5.76109 42.4643,5.09442 42,4.5C 40.9887,5.33663 39.8221,5.66997 38.5,5.5C 38.5,6.5 38.5,7.5 38.5,8.5C 36.1944,8.00745 33.861,7.67412 31.5,7.5C 31.752,4.63006 30.752,2.29673 28.5,0.5C 27.792,2.10257 27.1253,4.10257 26.5,6.5C 23.8333,6.5 21.1667,6.5 18.5,6.5C 17.3918,4.30488 17.5585,2.30488 19,0.5C 20.6169,1.53585 20.7836,2.70251 19.5,4C 20,4.16667 20.5,4.33333 21,4.5C 21.1878,2.65659 22.0211,0.989926 23.5,-0.5 Z"/></g>
<g><path style="opacity:1" fill="#222222" d="M 196.5,-0.5 C 215.167,-0.5 233.833,-0.5 252.5,-0.5C 250.968,1.52072 248.968,3.02072 246.5,4C 247.946,6.49322 247.279,8.32655 244.5,9.5C 242.041,6.58133 239.541,6.248 237,8.5C 233.823,8.10934 230.99,6.94267 228.5,5C 226.5,4.33333 224.5,4.33333 222.5,5C 224.952,5.28953 227.285,5.9562 229.5,7C 230.051,8.39849 230.384,9.73182 230.5,11C 233.606,11.8438 236.439,11.3438 239,9.5C 240.826,10.0104 240.993,10.8438 239.5,12C 241.433,12.2511 243.266,12.7511 245,13.5C 246.049,11.8934 247.549,11.2267 249.5,11.5C 249.5,12.5 249.5,13.5 249.5,14.5C 244.555,15.4799 239.721,16.8132 235,18.5C 234.885,16.8932 235.385,15.3932 236.5,14C 236.167,13.5 235.833,13 235.5,12.5C 234.167,13.5 232.833,14.5 231.5,15.5C 230.167,14.5 228.833,13.5 227.5,12.5C 228.902,11.1575 228.569,10.3242 226.5,10C 227.833,9.33333 227.833,8.66667 226.5,8C 224.5,7.66667 222.5,7.33333 220.5,7C 219.874,6.24956 219.374,5.41623 219,4.5C 218.316,5.78387 218.483,6.95054 219.5,8C 216.512,8.21723 213.845,9.21723 211.5,11C 214.647,9.63417 217.98,9.13417 221.5,9.5C 222.774,10.3594 222.608,11.0261 221,11.5C 218.001,12.4995 215.001,13.4995 212,14.5C 210.833,14.1667 209.667,13.8333 208.5,13.5C 208.709,12.914 209.043,12.414 209.5,12C 207.527,11.5045 205.527,11.3379 203.5,11.5C 204.289,8.56574 206.289,6.73241 209.5,6C 208.027,5.29044 207.36,4.12377 207.5,2.5C 209.604,2.7989 211.604,2.46557 213.5,1.5C 210.798,0.927773 208.131,0.59444 205.5,0.5C 204.334,2.3649 204.667,4.03156 206.5,5.5C 205.309,5.40466 203.975,5.738 202.5,6.5C 202.461,5.41683 202.127,4.41683 201.5,3.5C 199.539,2.42207 197.872,1.08874 196.5,-0.5 Z"/></g>
<g><path style="opacity:1" fill="#1e1e1e" d="M 68.5,-0.5 C 94.8333,-0.5 121.167,-0.5 147.5,-0.5C 146.602,0.157674 145.602,0.824341 144.5,1.5C 145.517,4.02797 146.684,4.02797 148,1.5C 148.741,2.64055 149.575,2.64055 150.5,1.5C 151.386,2.32496 151.719,3.32496 151.5,4.5C 145.676,4.34659 145.343,5.01326 150.5,6.5C 149.313,7.51948 148.313,8.68614 147.5,10C 144.246,9.79527 140.913,10.2953 137.5,11.5C 135.173,11.6646 133.007,12.3313 131,13.5C 129.751,11.0085 128.584,11.1751 127.5,14C 135.336,14.4335 135.336,15.4335 127.5,17C 129.705,18.0765 131.705,18.7432 133.5,19C 131.631,21.2375 129.464,23.0709 127,24.5C 123.146,22.1547 119.646,22.1547 116.5,24.5C 117.939,26.3432 117.772,28.0099 116,29.5C 112.851,27.6375 109.351,26.9709 105.5,27.5C 105.167,26.5 104.5,25.8333 103.5,25.5C 103.918,24.7784 104.584,24.2784 105.5,24C 104.253,22.5064 104.253,21.0064 105.5,19.5C 106.738,23.3107 107.404,23.3107 107.5,19.5C 111.257,19.7268 114.757,20.0602 118,20.5C 118.5,20 119,19.5 119.5,19C 118.62,17.6439 118.286,16.1439 118.5,14.5C 119.822,14.33 120.989,14.6634 122,15.5C 122.688,14.6683 122.521,14.0016 121.5,13.5C 117.825,13.0029 114.325,12.0029 111,10.5C 110.333,9.83333 110.333,9.16667 111,8.5C 112.609,7.85336 114.109,7.02003 115.5,6C 113.39,5.44565 111.39,4.61231 109.5,3.5C 107.617,4.02427 105.784,4.69094 104,5.5C 103.228,5.3552 102.561,5.02186 102,4.5C 99.6996,6.06652 97.1996,7.23318 94.5,8C 98.5017,9.45243 102.502,9.78576 106.5,9C 108.156,10.8294 110.156,12.1628 112.5,13C 111.378,14.6134 111.878,15.7801 114,16.5C 114.688,17.3317 114.521,17.9984 113.5,18.5C 111.954,17.316 110.287,16.316 108.5,15.5C 111.321,14.1582 111.154,13.4916 108,13.5C 105.211,16.0591 103.044,15.3924 101.5,11.5C 100.833,12.1667 100.167,12.8333 99.5,13.5C 97.9017,12.5153 96.235,12.3486 94.5,13C 95.6956,13.6543 95.6956,14.1543 94.5,14.5C 93.5642,9.38694 92.2309,9.38694 90.5,14.5C 91.0402,15.7481 91.7069,16.9148 92.5,18C 90.8016,17.5031 89.1349,17.6698 87.5,18.5C 86.5224,18.0233 85.6891,17.3567 85,16.5C 83.5064,17.7472 82.0064,17.7472 80.5,16.5C 83.2285,15.9382 84.7285,14.2715 85,11.5C 86.0665,13.2826 87.5665,13.7826 89.5,13C 84.9263,10.3265 80.0929,9.49321 75,10.5C 74.8333,10.1667 74.6667,9.83333 74.5,9.5C 75.376,8.74917 76.376,8.24917 77.5,8C 76.6919,7.69238 76.0253,7.19238 75.5,6.5C 76.4167,5.02947 77.4167,3.52947 78.5,2C 75.0477,1.11534 71.7144,0.282003 68.5,-0.5 Z"/></g>
<g><path style="opacity:1" fill="#191919" d="M 147.5,-0.5 C 162.833,-0.5 178.167,-0.5 193.5,-0.5C 191.946,4.19593 188.612,6.36259 183.5,6C 184.888,6.88934 184.722,7.38934 183,7.5C 180.902,5.95124 178.569,4.95124 176,4.5C 175.333,5.16667 174.667,5.83333 174,6.5C 172.7,5.54801 171.533,5.54801 170.5,6.5C 173.212,8.52273 176.212,10.0227 179.5,11C 175.779,11.2068 172.112,10.7068 168.5,9.5C 168.833,8.83333 169.167,8.16667 169.5,7.5C 166.674,6.4204 163.841,5.4204 161,4.5C 157.077,8.61459 155.244,7.94792 155.5,2.5C 153.512,3.28881 153.179,4.45548 154.5,6C 153.5,6.33333 152.5,6.66667 151.5,7C 153.514,8.79582 155.681,9.29582 158,8.5C 159.438,9.90029 160.271,11.567 160.5,13.5C 158.035,12.5349 155.535,11.5349 153,10.5C 152.5,10.8333 152,11.1667 151.5,11.5C 153.475,12.2752 154.309,13.6086 154,15.5C 152.168,14.1417 150.335,13.8084 148.5,14.5C 149.325,15.3857 150.325,15.719 151.5,15.5C 151.354,17.9424 152.187,18.6091 154,17.5C 154.54,19.1346 154.04,20.4679 152.5,21.5C 155.654,23.0259 158.987,23.6925 162.5,23.5C 162.366,25.2915 162.699,26.9582 163.5,28.5C 163.167,29.5 162.5,30.1667 161.5,30.5C 161.799,28.396 161.466,26.396 160.5,24.5C 159.817,24.8627 159.15,25.1961 158.5,25.5C 156.5,25.5 154.5,25.5 152.5,25.5C 151.012,24.1689 150.345,22.8355 150.5,21.5C 147.196,21.3226 143.862,21.9893 140.5,23.5C 138.465,22.9588 136.465,22.2922 134.5,21.5C 136.617,19.1692 139.284,18.0026 142.5,18C 139.83,16.276 140.163,15.1093 143.5,14.5C 143.833,15.8333 144.167,17.1667 144.5,18.5C 147.472,17.1639 147.805,15.6639 145.5,14C 146.167,13.6667 146.833,13.3333 147.5,13C 144.978,12.5014 142.478,12.6681 140,13.5C 138.624,13.3158 137.791,12.6491 137.5,11.5C 140.913,10.2953 144.246,9.79527 147.5,10C 148.313,8.68614 149.313,7.51948 150.5,6.5C 145.343,5.01326 145.676,4.34659 151.5,4.5C 151.719,3.32496 151.386,2.32496 150.5,1.5C 149.575,2.64055 148.741,2.64055 148,1.5C 146.684,4.02797 145.517,4.02797 144.5,1.5C 145.602,0.824341 146.602,0.157674 147.5,-0.5 Z"/></g>
<g><path style="opacity:1" fill="#191919" d="M 252.5,-0.5 C 256.167,-0.5 259.833,-0.5 263.5,-0.5C 263.5,3.5 263.5,7.5 263.5,11.5C 260.137,12.4738 256.803,12.6404 253.5,12C 252.816,13.6934 251.816,15.1934 250.5,16.5C 251.689,17.4287 253.022,17.762 254.5,17.5C 254.343,16.1266 254.51,14.7932 255,13.5C 255.44,15.0762 256.273,16.4096 257.5,17.5C 256.902,18.7946 256.402,20.1279 256,21.5C 250.19,19.811 244.857,20.811 240,24.5C 239.161,23.3759 237.994,22.7092 236.5,22.5C 233.898,22.4672 231.898,23.4672 230.5,25.5C 227.918,25.0254 225.918,25.6921 224.5,27.5C 223.022,27.762 221.689,27.4287 220.5,26.5C 222.046,25.316 223.713,24.316 225.5,23.5C 223.665,22.5723 223.332,21.4056 224.5,20C 222.953,19.6666 221.62,20.1666 220.5,21.5C 220.167,21.1667 219.833,20.8333 219.5,20.5C 221.929,19.1449 223.262,17.4783 223.5,15.5C 221.5,14.1667 219.5,14.1667 217.5,15.5C 218.025,16.1924 218.692,16.6924 219.5,17C 217.527,17.4955 215.527,17.6621 213.5,17.5C 213.5,18.8333 213.5,20.1667 213.5,21.5C 217.172,22.0447 216.838,22.3781 212.5,22.5C 212.5,21.5 212.5,20.5 212.5,19.5C 209.819,19.4621 207.319,20.1287 205,21.5C 203.073,20.139 200.906,19.3057 198.5,19C 202.211,18.8253 205.878,18.3253 209.5,17.5C 209.709,16.914 210.043,16.414 210.5,16C 209.256,15.5439 208.423,16.0439 208,17.5C 206.933,16.8095 205.766,16.3095 204.5,16C 206.26,15.0347 206.594,13.868 205.5,12.5C 204.497,14.542 203.163,14.8754 201.5,13.5C 199.665,17.2651 198.165,16.9317 197,12.5C 196.086,13.6537 195.253,13.487 194.5,12C 197.682,8.90332 197.015,7.23665 192.5,7C 192.833,6.66667 193.167,6.33333 193.5,6C 196.245,5.81742 198.745,6.65076 201,8.5C 202.03,8.16389 202.53,7.49722 202.5,6.5C 203.975,5.738 205.309,5.40466 206.5,5.5C 204.667,4.03156 204.334,2.3649 205.5,0.5C 208.131,0.59444 210.798,0.927773 213.5,1.5C 211.604,2.46557 209.604,2.7989 207.5,2.5C 207.36,4.12377 208.027,5.29044 209.5,6C 206.289,6.73241 204.289,8.56574 203.5,11.5C 205.527,11.3379 207.527,11.5045 209.5,12C 209.043,12.414 208.709,12.914 208.5,13.5C 209.667,13.8333 210.833,14.1667 212,14.5C 215.001,13.4995 218.001,12.4995 221,11.5C 222.608,11.0261 222.774,10.3594 221.5,9.5C 217.98,9.13417 214.647,9.63417 211.5,11C 213.845,9.21723 216.512,8.21723 219.5,8C 218.483,6.95054 218.316,5.78387 219,4.5C 219.374,5.41623 219.874,6.24956 220.5,7C 222.5,7.33333 224.5,7.66667 226.5,8C 227.833,8.66667 227.833,9.33333 226.5,10C 228.569,10.3242 228.902,11.1575 227.5,12.5C 228.833,13.5 230.167,14.5 231.5,15.5C 232.833,14.5 234.167,13.5 235.5,12.5C 235.833,13 236.167,13.5 236.5,14C 235.385,15.3932 234.885,16.8932 235,18.5C 239.721,16.8132 244.555,15.4799 249.5,14.5C 249.5,13.5 249.5,12.5 249.5,11.5C 247.549,11.2267 246.049,11.8934 245,13.5C 243.266,12.7511 241.433,12.2511 239.5,12C 240.993,10.8438 240.826,10.0104 239,9.5C 236.439,11.3438 233.606,11.8438 230.5,11C 230.384,9.73182 230.051,8.39849 229.5,7C 227.285,5.9562 224.952,5.28953 222.5,5C 224.5,4.33333 226.5,4.33333 228.5,5C 230.99,6.94267 233.823,8.10934 237,8.5C 239.541,6.248 242.041,6.58133 244.5,9.5C 247.279,8.32655 247.946,6.49322 246.5,4C 248.968,3.02072 250.968,1.52072 252.5,-0.5 Z"/></g>
<g><path style="opacity:1" fill="#202020" d="M 42.5,6.5 C 41.9569,6.55999 41.6236,6.89333 41.5,7.5C 43.1353,8.68084 44.802,8.68084 46.5,7.5C 47.3816,8.75978 48.3816,9.92644 49.5,11C 46.7215,11.1492 46.2215,11.9826 48,13.5C 48.1706,22.0101 48.6706,30.3434 49.5,38.5C 54.885,39.5683 60.2184,38.9016 65.5,36.5C 69.5101,37.3308 70.1768,39.1642 67.5,42C 68.0712,43.2051 68.7379,44.3717 69.5,45.5C 69.1255,44.229 69.7922,43.0623 71.5,42C 75.0241,40.1797 78.3574,38.8464 81.5,38C 83.8333,37.3333 86.1667,37.3333 88.5,38C 81.4576,38.7141 81.1242,39.7141 87.5,41C 85.8659,41.4935 84.1992,41.6602 82.5,41.5C 82.3601,43.1238 83.0267,44.2904 84.5,45C 82.1913,45.7562 80.1913,45.2562 78.5,43.5C 77.8333,44.1667 77.1667,44.8333 76.5,45.5C 75.065,43.5989 73.3983,43.2655 71.5,44.5C 72.9501,45.8498 73.6168,47.5165 73.5,49.5C 72.5,49.5 71.5,49.5 70.5,49.5C 64.5348,44.2542 57.5348,41.9209 49.5,42.5C 48.5184,45.9619 48.185,49.6286 48.5,53.5C 47.1667,53.5 45.8333,53.5 44.5,53.5C 44.8195,58.3633 44.4861,63.03 43.5,67.5C 43.5,59.1667 43.5,50.8333 43.5,42.5C 36.7961,42.0067 30.7961,43.6733 25.5,47.5C 24.7375,46.7321 23.7375,46.2321 22.5,46C 24.108,43.391 26.4413,42.0577 29.5,42C 28.8333,41.3333 28.1667,40.6667 27.5,40C 25.4259,40.2273 23.4259,40.0606 21.5,39.5C 20.646,40.5217 19.646,41.3551 18.5,42C 19.6537,42.9138 19.487,43.7471 18,44.5C 17.0293,43.8016 15.8626,43.8016 14.5,44.5C 11.9897,43.6578 11.323,42.1578 12.5,40C 10.5506,38.1653 8.21725,36.9986 5.5,36.5C 8.05466,35.5389 10.388,34.2055 12.5,32.5C 13.086,32.7093 13.586,33.0426 14,33.5C 15.1096,31.9632 16.6096,31.2965 18.5,31.5C 18.264,29.0268 16.9307,27.3601 14.5,26.5C 15.152,24.5497 14.152,23.5497 11.5,23.5C 13.5,23.1667 15.5,22.8333 17.5,22.5C 21.7653,34.6467 30.432,40.3133 43.5,39.5C 43.5,30.8333 43.5,22.1667 43.5,13.5C 42.5,13.5 41.5,13.5 40.5,13.5C 39.4975,11.9891 38.8308,10.3224 38.5,8.5C 38.5,7.5 38.5,6.5 38.5,5.5C 39.8221,5.66997 40.9887,5.33663 42,4.5C 42.4643,5.09442 42.631,5.76109 42.5,6.5 Z"/></g>
<g><path style="opacity:1" fill="#222222" d="M 193.5,-0.5 C 194.5,-0.5 195.5,-0.5 196.5,-0.5C 197.872,1.08874 199.539,2.42207 201.5,3.5C 202.127,4.41683 202.461,5.41683 202.5,6.5C 202.53,7.49722 202.03,8.16389 201,8.5C 198.745,6.65076 196.245,5.81742 193.5,6C 193.167,6.33333 192.833,6.66667 192.5,7C 197.015,7.23665 197.682,8.90332 194.5,12C 195.253,13.487 196.086,13.6537 197,12.5C 198.165,16.9317 199.665,17.2651 201.5,13.5C 203.163,14.8754 204.497,14.542 205.5,12.5C 206.594,13.868 206.26,15.0347 204.5,16C 205.766,16.3095 206.933,16.8095 208,17.5C 208.423,16.0439 209.256,15.5439 210.5,16C 210.043,16.414 209.709,16.914 209.5,17.5C 205.878,18.3253 202.211,18.8253 198.5,19C 200.906,19.3057 203.073,20.139 205,21.5C 207.319,20.1287 209.819,19.4621 212.5,19.5C 212.5,20.5 212.5,21.5 212.5,22.5C 216.838,22.3781 217.172,22.0447 213.5,21.5C 213.5,20.1667 213.5,18.8333 213.5,17.5C 215.527,17.6621 217.527,17.4955 219.5,17C 218.692,16.6924 218.025,16.1924 217.5,15.5C 219.5,14.1667 221.5,14.1667 223.5,15.5C 223.262,17.4783 221.929,19.1449 219.5,20.5C 219.833,20.8333 220.167,21.1667 220.5,21.5C 221.62,20.1666 222.953,19.6666 224.5,20C 223.332,21.4056 223.665,22.5723 225.5,23.5C 223.713,24.316 222.046,25.316 220.5,26.5C 221.689,27.4287 223.022,27.762 224.5,27.5C 224.5,36.8333 224.5,46.1667 224.5,55.5C 223.564,56.9744 222.23,57.9744 220.5,58.5C 220.582,56.7483 219.749,55.7483 218,55.5C 214.717,58.2261 211.551,58.0595 208.5,55C 219.624,50.2401 222.458,42.4068 217,31.5C 209.449,24.5615 201.282,23.7282 192.5,29C 185.883,36.5967 185.883,44.2633 192.5,52C 198.317,53.6372 203.317,56.4705 207.5,60.5C 204.977,61.3844 202.31,62.2177 199.5,63C 200.973,63.7096 201.64,64.8762 201.5,66.5C 198.525,66.7134 195.858,67.7134 193.5,69.5C 192.808,68.9747 192.308,68.3081 192,67.5C 191.289,69.3668 191.789,70.8668 193.5,72C 196.32,71.0925 198.987,71.5925 201.5,73.5C 201.167,73.8333 200.833,74.1667 200.5,74.5C 197.227,73.4149 193.894,73.2483 190.5,74C 192.751,76.0129 192.084,77.1796 188.5,77.5C 187.942,76.2101 186.942,75.3768 185.5,75C 187.886,74.7165 188.552,73.7165 187.5,72C 188.861,70.4157 189.528,68.5824 189.5,66.5C 193.527,66.7404 194.861,65.0737 193.5,61.5C 190.947,61.9452 188.28,61.9452 185.5,61.5C 185.34,59.8008 185.506,58.1341 186,56.5C 191.791,56.6781 191.958,55.1781 186.5,52C 185.552,51.5172 184.552,51.3505 183.5,51.5C 183.739,53.4672 183.406,55.3005 182.5,57C 178.498,56.9678 178.498,56.3011 182.5,55C 181.552,54.5172 180.552,54.3505 179.5,54.5C 183.541,51.9342 185.041,48.2675 184,43.5C 182.786,41.9512 181.286,40.7845 179.5,40C 175.789,39.1557 172.123,38.1557 168.5,37C 165.728,32.3932 167.228,30.2265 173,30.5C 175.873,30.4455 178.54,31.1122 181,32.5C 181.402,31.1279 181.902,29.7946 182.5,28.5C 176.09,24.6323 169.756,24.6323 163.5,28.5C 162.699,26.9582 162.366,25.2915 162.5,23.5C 158.987,23.6925 155.654,23.0259 152.5,21.5C 154.04,20.4679 154.54,19.1346 154,17.5C 152.187,18.6091 151.354,17.9424 151.5,15.5C 150.325,15.719 149.325,15.3857 148.5,14.5C 150.335,13.8084 152.168,14.1417 154,15.5C 154.309,13.6086 153.475,12.2752 151.5,11.5C 152,11.1667 152.5,10.8333 153,10.5C 155.535,11.5349 158.035,12.5349 160.5,13.5C 160.271,11.567 159.438,9.90029 158,8.5C 155.681,9.29582 153.514,8.79582 151.5,7C 152.5,6.66667 153.5,6.33333 154.5,6C 153.179,4.45548 153.512,3.28881 155.5,2.5C 155.244,7.94792 157.077,8.61459 161,4.5C 163.841,5.4204 166.674,6.4204 169.5,7.5C 169.167,8.16667 168.833,8.83333 168.5,9.5C 172.112,10.7068 175.779,11.2068 179.5,11C 176.212,10.0227 173.212,8.52273 170.5,6.5C 171.533,5.54801 172.7,5.54801 174,6.5C 174.667,5.83333 175.333,5.16667 176,4.5C 178.569,4.95124 180.902,5.95124 183,7.5C 184.722,7.38934 184.888,6.88934 183.5,6C 188.612,6.36259 191.946,4.19593 193.5,-0.5 Z"/></g>
<g><path style="opacity:1" fill="#434343" d="M 59.5,29.5 C 59.44,30.0431 59.1067,30.3764 58.5,30.5C 57.5052,25.2079 57.1718,19.8746 57.5,14.5C 54.8333,14.5 52.1667,14.5 49.5,14.5C 49.5,22.5 49.5,30.5 49.5,38.5C 48.6706,30.3434 48.1706,22.0101 48,13.5C 46.2215,11.9826 46.7215,11.1492 49.5,11C 48.3816,9.92644 47.3816,8.75978 46.5,7.5C 44.802,8.68084 43.1353,8.68084 41.5,7.5C 41.6236,6.89333 41.9569,6.55999 42.5,6.5C 44.0443,6.29689 45.3777,5.63023 46.5,4.5C 48.717,7.33592 50.3836,10.3359 51.5,13.5C 53.8333,13.5 56.1667,13.5 58.5,13.5C 58.1786,19.0262 58.5119,24.3595 59.5,29.5 Z"/></g>
<g><path style="opacity:1" fill="#2c282b" d="M 137.5,11.5 C 137.791,12.6491 138.624,13.3158 140,13.5C 142.478,12.6681 144.978,12.5014 147.5,13C 146.833,13.3333 146.167,13.6667 145.5,14C 147.805,15.6639 147.472,17.1639 144.5,18.5C 144.167,17.1667 143.833,15.8333 143.5,14.5C 140.163,15.1093 139.83,16.276 142.5,18C 139.284,18.0026 136.617,19.1692 134.5,21.5C 136.465,22.2922 138.465,22.9588 140.5,23.5C 143.862,21.9893 147.196,21.3226 150.5,21.5C 150.345,22.8355 151.012,24.1689 152.5,25.5C 148.578,30.9276 144.078,35.9276 139,40.5C 138.501,35.5111 138.334,30.5111 138.5,25.5C 136.833,25.5 135.167,25.5 133.5,25.5C 133.5,35.5 133.5,45.5 133.5,55.5C 132.506,45.6806 132.173,35.6806 132.5,25.5C 130.5,25.5 128.5,25.5 126.5,25.5C 126.827,35.6806 126.494,45.6806 125.5,55.5C 125.5,45.5 125.5,35.5 125.5,25.5C 123.5,25.5 121.5,25.5 119.5,25.5C 119.666,31.8421 119.5,38.1754 119,44.5C 114.667,38.6705 110.167,33.0038 105.5,27.5C 109.351,26.9709 112.851,27.6375 116,29.5C 117.772,28.0099 117.939,26.3432 116.5,24.5C 119.646,22.1547 123.146,22.1547 127,24.5C 129.464,23.0709 131.631,21.2375 133.5,19C 131.705,18.7432 129.705,18.0765 127.5,17C 135.336,15.4335 135.336,14.4335 127.5,14C 128.584,11.1751 129.751,11.0085 131,13.5C 133.007,12.3313 135.173,11.6646 137.5,11.5 Z"/></g>
<g><path style="opacity:1" fill="#f6f6f6" d="M 33.5,29.5 C 33.56,30.0431 33.8933,30.3764 34.5,30.5C 35.4948,25.2079 35.8282,19.8746 35.5,14.5C 36.9187,13.5489 38.5853,13.2155 40.5,13.5C 41.5,13.5 42.5,13.5 43.5,13.5C 43.5,22.1667 43.5,30.8333 43.5,39.5C 30.432,40.3133 21.7653,34.6467 17.5,22.5C 17.5,19.5 17.5,16.5 17.5,13.5C 20.1667,13.5 22.8333,13.5 25.5,13.5C 24.9994,20.4989 27.666,25.8323 33.5,29.5 Z"/></g>
<g><path style="opacity:1" fill="#f9f9f9" d="M 73.5,13.5 C 75.3878,15.9878 76.0545,18.9878 75.5,22.5C 73.9235,25.3522 72.4235,28.3522 71,31.5C 69.1881,33.3003 67.3548,34.9669 65.5,36.5C 60.2184,38.9016 54.885,39.5683 49.5,38.5C 49.5,30.5 49.5,22.5 49.5,14.5C 52.1667,14.5 54.8333,14.5 57.5,14.5C 57.1718,19.8746 57.5052,25.2079 58.5,30.5C 59.1067,30.3764 59.44,30.0431 59.5,29.5C 65.3181,25.8643 67.9848,20.5309 67.5,13.5C 69.5,13.5 71.5,13.5 73.5,13.5 Z"/></g>
<g><path style="opacity:1" fill="#1b1b1b" d="M -0.5,-0.5 C 7.5,-0.5 15.5,-0.5 23.5,-0.5C 22.0211,0.989926 21.1878,2.65659 21,4.5C 20.5,4.33333 20,4.16667 19.5,4C 20.7836,2.70251 20.6169,1.53585 19,0.5C 17.5585,2.30488 17.3918,4.30488 18.5,6.5C 21.1667,6.5 23.8333,6.5 26.5,6.5C 27.1253,4.10257 27.792,2.10257 28.5,0.5C 30.752,2.29673 31.752,4.63006 31.5,7.5C 33.861,7.67412 36.1944,8.00745 38.5,8.5C 38.8308,10.3224 39.4975,11.9891 40.5,13.5C 38.5853,13.2155 36.9187,13.5489 35.5,14.5C 34.8333,19.5 34.1667,24.5 33.5,29.5C 27.666,25.8323 24.9994,20.4989 25.5,13.5C 22.8333,13.5 20.1667,13.5 17.5,13.5C 17.5,16.5 17.5,19.5 17.5,22.5C 15.5,22.8333 13.5,23.1667 11.5,23.5C 10.1889,26.1331 8.68886,26.1331 7,23.5C 6.29044,24.9733 5.12377,25.6399 3.5,25.5C 3.08894,28.2763 3.92228,28.943 6,27.5C 8.83961,28.2343 9.50628,29.5677 8,31.5C 6.77733,29.0147 5.27733,28.848 3.5,31C 4.62402,31.2492 5.62402,31.7492 6.5,32.5C 4.29326,33.6348 1.95993,34.3015 -0.5,34.5C -0.5,22.8333 -0.5,11.1667 -0.5,-0.5 Z"/></g>
<g><path style="opacity:1" fill="#191919" d="M 67.5,-0.5 C 67.8333,-0.5 68.1667,-0.5 68.5,-0.5C 71.7144,0.282003 75.0477,1.11534 78.5,2C 77.4167,3.52947 76.4167,5.02947 75.5,6.5C 76.0253,7.19238 76.6919,7.69238 77.5,8C 76.376,8.24917 75.376,8.74917 74.5,9.5C 74.6667,9.83333 74.8333,10.1667 75,10.5C 80.0929,9.49321 84.9263,10.3265 89.5,13C 87.5665,13.7826 86.0665,13.2826 85,11.5C 84.7285,14.2715 83.2285,15.9382 80.5,16.5C 82.0064,17.7472 83.5064,17.7472 85,16.5C 85.6891,17.3567 86.5224,18.0233 87.5,18.5C 89.1349,17.6698 90.8016,17.5031 92.5,18C 91.7069,16.9148 91.0402,15.7481 90.5,14.5C 92.2309,9.38694 93.5642,9.38694 94.5,14.5C 95.6956,14.1543 95.6956,13.6543 94.5,13C 96.235,12.3486 97.9017,12.5153 99.5,13.5C 100.167,12.8333 100.833,12.1667 101.5,11.5C 103.044,15.3924 105.211,16.0591 108,13.5C 111.154,13.4916 111.321,14.1582 108.5,15.5C 110.287,16.316 111.954,17.316 113.5,18.5C 114.521,17.9984 114.688,17.3317 114,16.5C 111.878,15.7801 111.378,14.6134 112.5,13C 110.156,12.1628 108.156,10.8294 106.5,9C 102.502,9.78576 98.5017,9.45243 94.5,8C 97.1996,7.23318 99.6996,6.06652 102,4.5C 102.561,5.02186 103.228,5.3552 104,5.5C 105.784,4.69094 107.617,4.02427 109.5,3.5C 111.39,4.61231 113.39,5.44565 115.5,6C 114.109,7.02003 112.609,7.85336 111,8.5C 110.333,9.16667 110.333,9.83333 111,10.5C 114.325,12.0029 117.825,13.0029 121.5,13.5C 122.521,14.0016 122.688,14.6683 122,15.5C 120.989,14.6634 119.822,14.33 118.5,14.5C 118.286,16.1439 118.62,17.6439 119.5,19C 119,19.5 118.5,20 118,20.5C 114.757,20.0602 111.257,19.7268 107.5,19.5C 107.404,23.3107 106.738,23.3107 105.5,19.5C 104.253,21.0064 104.253,22.5064 105.5,24C 104.584,24.2784 103.918,24.7784 103.5,25.5C 102.167,25.5 100.833,25.5 99.5,25.5C 98.5206,28.6248 98.1872,31.9581 98.5,35.5C 96.146,35.162 93.8127,34.662 91.5,34C 89.9632,32.8904 89.2965,31.3904 89.5,29.5C 86.4884,30.255 83.8217,31.5884 81.5,33.5C 81.5,32.5 81.5,31.5 81.5,30.5C 76.5714,29.6539 76.4047,28.3206 81,26.5C 85.2612,29.5407 88.7612,28.874 91.5,24.5C 90.675,23.6143 89.675,23.281 88.5,23.5C 88.6882,25.1033 88.1882,26.4366 87,27.5C 87.2626,26.0494 87.0959,24.7161 86.5,23.5C 85.8333,24.1667 85.1667,24.8333 84.5,25.5C 81.7238,24.9109 79.3904,23.5776 77.5,21.5C 76.8076,22.0253 76.3076,22.6919 76,23.5C 75.6012,23.2716 75.4346,22.9382 75.5,22.5C 76.0545,18.9878 75.3878,15.9878 73.5,13.5C 71.4178,11.2312 69.4178,8.73117 67.5,6C 76.7975,6.53075 76.7975,5.36408 67.5,2.5C 66.4376,1.57537 66.4376,0.575371 67.5,-0.5 Z"/></g>
<g><path style="opacity:1" fill="#282828" d="M 263.5,11.5 C 263.5,16.5 263.5,21.5 263.5,26.5C 260.687,26.5481 258.021,27.2147 255.5,28.5C 255.331,27.6034 254.998,26.6034 254.5,25.5C 253.032,27.3329 251.365,27.6662 249.5,26.5C 253.584,23.377 252.917,22.2103 247.5,23C 248.634,24.016 248.301,24.6827 246.5,25C 247.684,26.1455 247.684,27.3121 246.5,28.5C 241.623,25.7478 236.29,24.7478 230.5,25.5C 231.898,23.4672 233.898,22.4672 236.5,22.5C 237.994,22.7092 239.161,23.3759 240,24.5C 244.857,20.811 250.19,19.811 256,21.5C 256.402,20.1279 256.902,18.7946 257.5,17.5C 256.273,16.4096 255.44,15.0762 255,13.5C 254.51,14.7932 254.343,16.1266 254.5,17.5C 253.022,17.762 251.689,17.4287 250.5,16.5C 251.816,15.1934 252.816,13.6934 253.5,12C 256.803,12.6404 260.137,12.4738 263.5,11.5 Z"/></g>
<g><path style="opacity:1" fill="#5c5c5c" d="M 35.5,14.5 C 35.8282,19.8746 35.4948,25.2079 34.5,30.5C 33.8933,30.3764 33.56,30.0431 33.5,29.5C 34.1667,24.5 34.8333,19.5 35.5,14.5 Z"/></g>
<g><path style="opacity:1" fill="#f5f4ef" d="M 99.5,25.5 C 100.833,25.5 102.167,25.5 103.5,25.5C 104.5,25.8333 105.167,26.5 105.5,27.5C 110.167,33.0038 114.667,38.6705 119,44.5C 119.5,38.1754 119.666,31.8421 119.5,25.5C 121.5,25.5 123.5,25.5 125.5,25.5C 125.5,35.5 125.5,45.5 125.5,55.5C 124.5,55.5 123.5,55.5 122.5,55.5C 120.983,55.4894 119.816,54.8228 119,53.5C 114.711,47.5422 110.044,41.8756 105,36.5C 104.5,42.8246 104.334,49.1579 104.5,55.5C 102.833,55.5 101.167,55.5 99.5,55.5C 99.5,45.5 99.5,35.5 99.5,25.5 Z"/></g>
<g><path style="opacity:1" fill="#f8f7f1" d="M 152.5,25.5 C 154.5,25.5 156.5,25.5 158.5,25.5C 155.056,30.1181 151.389,34.6181 147.5,39C 151.295,44.2986 155.295,49.4652 159.5,54.5C 157.579,55.641 155.579,55.8077 153.5,55C 150.324,50.9935 146.991,47.1602 143.5,43.5C 138.974,46.2033 137.308,50.2033 138.5,55.5C 136.833,55.5 135.167,55.5 133.5,55.5C 133.5,45.5 133.5,35.5 133.5,25.5C 135.167,25.5 136.833,25.5 138.5,25.5C 138.334,30.5111 138.501,35.5111 139,40.5C 144.078,35.9276 148.578,30.9276 152.5,25.5 Z"/></g>
<g><path style="opacity:1" fill="#f0f0ef" d="M 179.5,54.5 C 179.167,54.5 178.833,54.5 178.5,54.5C 171.993,56.4848 165.993,55.4848 160.5,51.5C 160.865,50.0981 161.699,49.0981 163,48.5C 167.321,50.4157 171.821,50.9157 176.5,50C 178.658,48.6883 178.991,47.0217 177.5,45C 173.511,43.6686 169.511,42.3353 165.5,41C 161.952,38.4093 160.618,34.9093 161.5,30.5C 162.5,30.1667 163.167,29.5 163.5,28.5C 169.756,24.6323 176.09,24.6323 182.5,28.5C 181.902,29.7946 181.402,31.1279 181,32.5C 178.54,31.1122 175.873,30.4455 173,30.5C 167.228,30.2265 165.728,32.3932 168.5,37C 172.123,38.1557 175.789,39.1557 179.5,40C 181.286,40.7845 182.786,41.9512 184,43.5C 185.041,48.2675 183.541,51.9342 179.5,54.5 Z"/></g>
<g><path style="opacity:1" fill="#ececec" d="M 230.5,25.5 C 236.29,24.7478 241.623,25.7478 246.5,28.5C 247.79,29.0577 248.623,30.0577 249,31.5C 250.742,37.5798 249.242,42.5798 244.5,46.5C 246.167,49.1667 247.833,51.8333 249.5,54.5C 247.604,55.4656 245.604,55.7989 243.5,55.5C 241.738,48.7488 237.404,46.0822 230.5,47.5C 230.5,50.1667 230.5,52.8333 230.5,55.5C 228.5,55.5 226.5,55.5 224.5,55.5C 224.5,46.1667 224.5,36.8333 224.5,27.5C 225.918,25.6921 227.918,25.0254 230.5,25.5 Z"/></g>
<g><path style="opacity:1" fill="#f1efec" d="M 220.5,58.5 C 216.556,61.3972 212.223,62.0639 207.5,60.5C 203.317,56.4705 198.317,53.6372 192.5,52C 185.883,44.2633 185.883,36.5967 192.5,29C 201.282,23.7282 209.449,24.5615 217,31.5C 222.458,42.4068 219.624,50.2401 208.5,55C 211.551,58.0595 214.717,58.2261 218,55.5C 219.749,55.7483 220.582,56.7483 220.5,58.5 Z"/></g>
<g><path style="opacity:1" fill="#242021" d="M 230.5,30.5 C 234.911,30.021 239.078,30.6876 243,32.5C 243.978,35.6693 243.478,38.5027 241.5,41C 237.974,42.3368 234.308,42.8368 230.5,42.5C 230.5,38.5 230.5,34.5 230.5,30.5 Z"/></g>
<g><path style="opacity:1" fill="#252629" d="M 99.5,25.5 C 99.5,35.5 99.5,45.5 99.5,55.5C 98.5139,51.03 98.1805,46.3633 98.5,41.5C 94.7104,41.9923 94.0437,41.159 96.5,39C 95.9535,38.0754 95.2868,37.2421 94.5,36.5C 93.2813,37.6461 91.9479,38.6461 90.5,39.5C 91.6469,41.5846 90.9803,43.0846 88.5,44C 95.5618,44.03 96.5618,45.8633 91.5,49.5C 90.2685,47.5501 88.6019,46.7168 86.5,47C 88.2603,47.9653 88.5937,49.132 87.5,50.5C 84.5719,50.4556 81.7386,50.1223 79,49.5C 78.8333,50 78.6667,50.5 78.5,51C 79.9958,52.3307 81.3291,53.8307 82.5,55.5C 82.1667,55.8333 81.8333,56.1667 81.5,56.5C 79.5101,55.1268 77.3434,54.1268 75,53.5C 74.5172,54.448 74.3505,55.448 74.5,56.5C 73.2072,54.1917 71.8739,51.8583 70.5,49.5C 71.5,49.5 72.5,49.5 73.5,49.5C 73.6168,47.5165 72.9501,45.8498 71.5,44.5C 73.3983,43.2655 75.065,43.5989 76.5,45.5C 77.1667,44.8333 77.8333,44.1667 78.5,43.5C 80.1913,45.2562 82.1913,45.7562 84.5,45C 83.0267,44.2904 82.3601,43.1238 82.5,41.5C 84.1992,41.6602 85.8659,41.4935 87.5,41C 81.1242,39.7141 81.4576,38.7141 88.5,38C 86.1667,37.3333 83.8333,37.3333 81.5,38C 78.3574,38.8464 75.0241,40.1797 71.5,42C 69.7922,43.0623 69.1255,44.229 69.5,45.5C 68.7379,44.3717 68.0712,43.2051 67.5,42C 70.1768,39.1642 69.5101,37.3308 65.5,36.5C 67.3548,34.9669 69.1881,33.3003 71,31.5C 72.4235,28.3522 73.9235,25.3522 75.5,22.5C 75.4346,22.9382 75.6012,23.2716 76,23.5C 76.3076,22.6919 76.8076,22.0253 77.5,21.5C 79.3904,23.5776 81.7238,24.9109 84.5,25.5C 85.1667,24.8333 85.8333,24.1667 86.5,23.5C 87.0959,24.7161 87.2626,26.0494 87,27.5C 88.1882,26.4366 88.6882,25.1033 88.5,23.5C 89.675,23.281 90.675,23.6143 91.5,24.5C 88.7612,28.874 85.2612,29.5407 81,26.5C 76.4047,28.3206 76.5714,29.6539 81.5,30.5C 81.5,31.5 81.5,32.5 81.5,33.5C 83.8217,31.5884 86.4884,30.255 89.5,29.5C 89.2965,31.3904 89.9632,32.8904 91.5,34C 93.8127,34.662 96.146,35.162 98.5,35.5C 98.1872,31.9581 98.5206,28.6248 99.5,25.5 Z"/></g>
<g><path style="opacity:1" fill="#1e1d1d" d="M 263.5,26.5 C 263.5,45.8333 263.5,65.1667 263.5,84.5C 258.167,84.5 252.833,84.5 247.5,84.5C 248.981,82.7531 250.981,81.5864 253.5,81C 251.167,80.6667 248.833,80.3333 246.5,80C 251.044,77.6527 255.211,78.1527 259,81.5C 259.5,81 260,80.5 260.5,80C 258.208,78.2772 256.042,76.4438 254,74.5C 253.127,74.7355 252.293,75.0688 251.5,75.5C 250.868,73.2632 249.535,71.5965 247.5,70.5C 246.571,71.6888 246.238,73.0222 246.5,74.5C 243.248,74.7105 240.248,74.0438 237.5,72.5C 239.75,71.9589 242.084,71.6255 244.5,71.5C 242.275,70.1065 239.942,68.9398 237.5,68C 240.486,68.1276 243.486,68.1276 246.5,68C 245.167,67.6667 243.833,67.3333 242.5,67C 243.336,65.7567 243.003,64.5901 241.5,63.5C 240.406,65.8362 239.073,65.8362 237.5,63.5C 238.802,60.3658 241.135,58.5324 244.5,58C 243.748,57.3292 243.414,56.4959 243.5,55.5C 245.604,55.7989 247.604,55.4656 249.5,54.5C 247.833,51.8333 246.167,49.1667 244.5,46.5C 249.242,42.5798 250.742,37.5798 249,31.5C 248.623,30.0577 247.79,29.0577 246.5,28.5C 247.684,27.3121 247.684,26.1455 246.5,25C 248.301,24.6827 248.634,24.016 247.5,23C 252.917,22.2103 253.584,23.377 249.5,26.5C 251.365,27.6662 253.032,27.3329 254.5,25.5C 254.998,26.6034 255.331,27.6034 255.5,28.5C 258.021,27.2147 260.687,26.5481 263.5,26.5 Z"/></g>
<g><path style="opacity:1" fill="#181818" d="M 11.5,23.5 C 14.152,23.5497 15.152,24.5497 14.5,26.5C 16.9307,27.3601 18.264,29.0268 18.5,31.5C 16.6096,31.2965 15.1096,31.9632 14,33.5C 13.586,33.0426 13.086,32.7093 12.5,32.5C 10.388,34.2055 8.05466,35.5389 5.5,36.5C 8.21725,36.9986 10.5506,38.1653 12.5,40C 11.323,42.1578 11.9897,43.6578 14.5,44.5C 15.8626,43.8016 17.0293,43.8016 18,44.5C 19.487,43.7471 19.6537,42.9138 18.5,42C 19.646,41.3551 20.646,40.5217 21.5,39.5C 23.4259,40.0606 25.4259,40.2273 27.5,40C 28.1667,40.6667 28.8333,41.3333 29.5,42C 26.4413,42.0577 24.108,43.391 22.5,46C 23.7375,46.2321 24.7375,46.7321 25.5,47.5C 23.8333,48.5 22.5,49.8333 21.5,51.5C 20.4466,48.7861 18.4466,47.1195 15.5,46.5C 13.5,46.5 12.5,47.5 12.5,49.5C 15.1804,52.3743 14.3471,53.7076 10,53.5C 8.18669,53.1734 6.52002,52.5067 5,51.5C 3.09994,52.0769 1.26661,52.7435 -0.5,53.5C -0.5,47.1667 -0.5,40.8333 -0.5,34.5C 1.95993,34.3015 4.29326,33.6348 6.5,32.5C 5.62402,31.7492 4.62402,31.2492 3.5,31C 5.27733,28.848 6.77733,29.0147 8,31.5C 9.50628,29.5677 8.83961,28.2343 6,27.5C 3.92228,28.943 3.08894,28.2763 3.5,25.5C 5.12377,25.6399 6.29044,24.9733 7,23.5C 8.68886,26.1331 10.1889,26.1331 11.5,23.5 Z"/></g>
<g><path style="opacity:1" fill="#242224" d="M 199.5,30.5 C 209.564,29.3994 214.064,33.7328 213,43.5C 210.497,49.461 205.997,51.6277 199.5,50C 194.15,46.6295 192.317,41.7961 194,35.5C 195.73,33.5981 197.563,31.9314 199.5,30.5 Z"/></g>
<g><path style="opacity:1" fill="#f8f8f8" d="M 43.5,67.5 C 40.8333,67.5 38.1667,67.5 35.5,67.5C 35.8282,62.1254 35.4948,56.7921 34.5,51.5C 33.8933,51.6236 33.56,51.9569 33.5,52.5C 27.666,56.1677 24.9994,61.5011 25.5,68.5C 23.5,68.5 21.5,68.5 19.5,68.5C 18.2227,67.3064 17.5561,65.6397 17.5,63.5C 17.6935,59.1146 19.0268,55.1146 21.5,51.5C 22.5,49.8333 23.8333,48.5 25.5,47.5C 30.7961,43.6733 36.7961,42.0067 43.5,42.5C 43.5,50.8333 43.5,59.1667 43.5,67.5 Z"/></g>
<g><path style="opacity:1" fill="#f8f8f8" d="M 49.5,42.5 C 57.5348,41.9209 64.5348,44.2542 70.5,49.5C 71.8739,51.8583 73.2072,54.1917 74.5,56.5C 75.2653,59.0961 75.5987,61.7628 75.5,64.5C 75.8432,66.4832 75.1765,67.8166 73.5,68.5C 71.5,68.5 69.5,68.5 67.5,68.5C 67.8016,65.9407 67.4682,63.6074 66.5,61.5C 65.2316,57.2329 62.5649,54.2329 58.5,52.5C 57.4997,56.7322 57.1663,61.7322 57.5,67.5C 54.8333,67.5 52.1667,67.5 49.5,67.5C 49.5,59.1667 49.5,50.8333 49.5,42.5 Z"/></g>
<g><path style="opacity:1" fill="#1b1b1b" d="M 58.5,52.5 C 62.5649,54.2329 65.2316,57.2329 66.5,61.5C 66.6495,62.552 66.4828,63.552 66,64.5C 64.4447,62.4848 62.6114,62.1515 60.5,63.5C 64.1034,65.6463 63.4367,66.6463 58.5,66.5C 58.5,61.8333 58.5,57.1667 58.5,52.5 Z"/></g>
<g><path style="opacity:1" fill="#252222" d="M 122.5,55.5 C 119.695,56.3195 116.695,56.8195 113.5,57C 115.5,57.8333 117.5,58.6667 119.5,59.5C 118.252,62.0704 117.252,64.7371 116.5,67.5C 114.885,68.154 113.218,68.654 111.5,69C 112.833,70 112.833,71 111.5,72C 112.833,72 114.167,72 115.5,72C 113.845,73.4443 113.178,75.2776 113.5,77.5C 111.265,78.2481 111.598,79.0814 114.5,80C 112.899,80.2734 111.399,80.7734 110,81.5C 108.602,80.9491 107.268,80.6158 106,80.5C 105.395,82.4812 104.395,82.8146 103,81.5C 102.29,82.9733 101.124,83.6399 99.5,83.5C 99.5,82.1667 99.5,80.8333 99.5,79.5C 101.167,79.5 102.833,79.5 104.5,79.5C 104.308,76.1909 105.641,73.6909 108.5,72C 107.833,71.3333 107.167,70.6667 106.5,70C 103.429,69.8534 100.596,69.0201 98,67.5C 98.3333,69.1667 98.6667,70.8333 99,72.5C 98.586,72.0426 98.086,71.7093 97.5,71.5C 95.9246,72.4565 94.258,73.1231 92.5,73.5C 93.1223,71.665 94.4556,70.4983 96.5,70C 94.2157,67.9065 93.7157,65.7398 95,63.5C 99.2202,65.1057 103.387,66.7723 107.5,68.5C 109.556,66.9806 111.89,66.1472 114.5,66C 113.965,63.8913 112.965,63.3913 111.5,64.5C 108.924,63.1166 109.258,62.2833 112.5,62C 109.999,60.5823 110.332,59.5823 113.5,59C 112.151,58.2276 111.318,57.0609 111,55.5C 110.517,56.448 110.351,57.448 110.5,58.5C 108.801,58.6602 107.134,58.4935 105.5,58C 104.748,57.3292 104.414,56.4959 104.5,55.5C 104.334,49.1579 104.5,42.8246 105,36.5C 110.044,41.8756 114.711,47.5422 119,53.5C 119.816,54.8228 120.983,55.4894 122.5,55.5 Z"/></g>
<g><path style="opacity:1" fill="#1c1c1c" d="M 21.5,51.5 C 19.0268,55.1146 17.6935,59.1146 17.5,63.5C 17.5561,65.6397 18.2227,67.3064 19.5,68.5C 18.059,71.5555 18.8923,72.5555 22,71.5C 23.6349,71.8777 25.1349,72.5444 26.5,73.5C 26.2907,74.086 25.9574,74.586 25.5,75C 29.6535,73.9964 30.3202,75.163 27.5,78.5C 27.8333,78.8333 28.1667,79.1667 28.5,79.5C 29.1667,78.8333 29.8333,78.1667 30.5,77.5C 31.7112,78.2739 31.7112,79.1072 30.5,80C 35.306,80.4158 39.6393,81.9158 43.5,84.5C 28.8333,84.5 14.1667,84.5 -0.5,84.5C -0.5,74.1667 -0.5,63.8333 -0.5,53.5C 1.26661,52.7435 3.09994,52.0769 5,51.5C 6.52002,52.5067 8.18669,53.1734 10,53.5C 14.3471,53.7076 15.1804,52.3743 12.5,49.5C 12.5,47.5 13.5,46.5 15.5,46.5C 18.4466,47.1195 20.4466,48.7861 21.5,51.5 Z"/></g>
<g><path style="opacity:1" fill="#1f1f1f" d="M 133.5,55.5 C 135.167,55.5 136.833,55.5 138.5,55.5C 138.833,55.5 139.167,55.5 139.5,55.5C 139.5,57.1667 139.5,58.8333 139.5,60.5C 138.178,60.67 137.011,60.3366 136,59.5C 135.612,60.428 134.945,61.0946 134,61.5C 132.604,60.6057 131.104,59.9391 129.5,59.5C 126.61,60.685 123.776,60.685 121,59.5C 120.833,59.8333 120.667,60.1667 120.5,60.5C 123.7,61.5312 126.533,63.1979 129,65.5C 129.456,64.2559 128.956,63.4226 127.5,63C 128.416,62.6258 129.25,62.1258 130,61.5C 132.419,63.2126 134.919,63.8793 137.5,63.5C 137.833,63.8333 138.167,64.1667 138.5,64.5C 135.938,65.6409 133.272,66.4743 130.5,67C 132.087,67.8624 133.754,68.5291 135.5,69C 134.299,69.9025 133.465,71.0692 133,72.5C 132.517,71.552 132.351,70.552 132.5,69.5C 130.567,69.7286 128.9,70.5619 127.5,72C 129.991,72.6259 129.991,73.4593 127.5,74.5C 132.979,76.5082 132.812,77.8416 127,78.5C 125.901,75.9557 124.735,75.9557 123.5,78.5C 125.5,79.1667 127.5,79.8333 129.5,80.5C 127.319,82.3484 124.985,82.6817 122.5,81.5C 121.811,79.6619 121.478,77.9952 121.5,76.5C 118.905,76.3556 116.239,76.6889 113.5,77.5C 113.178,75.2776 113.845,73.4443 115.5,72C 114.167,72 112.833,72 111.5,72C 112.833,71 112.833,70 111.5,69C 113.218,68.654 114.885,68.154 116.5,67.5C 117.252,64.7371 118.252,62.0704 119.5,59.5C 117.5,58.6667 115.5,57.8333 113.5,57C 116.695,56.8195 119.695,56.3195 122.5,55.5C 123.5,55.5 124.5,55.5 125.5,55.5C 126.494,45.6806 126.827,35.6806 126.5,25.5C 128.5,25.5 130.5,25.5 132.5,25.5C 132.173,35.6806 132.506,45.6806 133.5,55.5 Z"/></g>
<g><path style="opacity:1" fill="#626262" d="M 33.5,52.5 C 33.56,51.9569 33.8933,51.6236 34.5,51.5C 35.4948,56.7921 35.8282,62.1254 35.5,67.5C 38.1667,67.5 40.8333,67.5 43.5,67.5C 40.7131,68.4767 37.7131,68.81 34.5,68.5C 34.8214,62.9738 34.4881,57.6405 33.5,52.5 Z"/></g>
<g><path style="opacity:1" fill="#201f1f" d="M 243.5,55.5 C 243.414,56.4959 243.748,57.3292 244.5,58C 241.135,58.5324 238.802,60.3658 237.5,63.5C 239.073,65.8362 240.406,65.8362 241.5,63.5C 243.003,64.5901 243.336,65.7567 242.5,67C 243.833,67.3333 245.167,67.6667 246.5,68C 243.486,68.1276 240.486,68.1276 237.5,68C 239.942,68.9398 242.275,70.1065 244.5,71.5C 242.084,71.6255 239.75,71.9589 237.5,72.5C 234.033,69.9707 230.533,69.9707 227,72.5C 226,71.5 225,70.5 224,69.5C 222.989,70.3366 221.822,70.67 220.5,70.5C 220.62,67.7952 219.62,67.1285 217.5,68.5C 215.064,67.4989 215.064,66.3323 217.5,65C 215.879,61.6876 215.545,61.6876 216.5,65C 214.064,66.1015 211.897,67.6015 210,69.5C 207.682,66.562 204.848,65.562 201.5,66.5C 201.64,64.8762 200.973,63.7096 199.5,63C 202.31,62.2177 204.977,61.3844 207.5,60.5C 212.223,62.0639 216.556,61.3972 220.5,58.5C 222.23,57.9744 223.564,56.9744 224.5,55.5C 226.5,55.5 228.5,55.5 230.5,55.5C 230.5,52.8333 230.5,50.1667 230.5,47.5C 237.404,46.0822 241.738,48.7488 243.5,55.5 Z"/></g>
<g><path style="opacity:1" fill="#1b1b1b" d="M 99.5,55.5 C 101.167,55.5 102.833,55.5 104.5,55.5C 104.414,56.4959 104.748,57.3292 105.5,58C 107.134,58.4935 108.801,58.6602 110.5,58.5C 110.351,57.448 110.517,56.448 111,55.5C 111.318,57.0609 112.151,58.2276 113.5,59C 110.332,59.5823 109.999,60.5823 112.5,62C 109.258,62.2833 108.924,63.1166 111.5,64.5C 112.965,63.3913 113.965,63.8913 114.5,66C 111.89,66.1472 109.556,66.9806 107.5,68.5C 103.387,66.7723 99.2202,65.1057 95,63.5C 93.7157,65.7398 94.2157,67.9065 96.5,70C 94.4556,70.4983 93.1223,71.665 92.5,73.5C 91.1751,72.0474 90.3418,72.3808 90,74.5C 88.7496,73.4267 87.4162,73.4267 86,74.5C 79.9295,71.9647 80.0961,71.1314 86.5,72C 85.6721,71.0853 84.6721,70.4186 83.5,70C 86.9423,69.8835 89.9423,68.7168 92.5,66.5C 91.5637,65.0256 90.2303,64.0256 88.5,63.5C 87.4104,64.3914 87.4104,65.3914 88.5,66.5C 86.8333,67.8333 85.1667,67.8333 83.5,66.5C 87.4789,65.1488 87.4789,63.8155 83.5,62.5C 82.1667,63.5 80.8333,64.5 79.5,65.5C 78.2638,64.7542 76.9305,64.4208 75.5,64.5C 75.5987,61.7628 75.2653,59.0961 74.5,56.5C 74.3505,55.448 74.5172,54.448 75,53.5C 77.3434,54.1268 79.5101,55.1268 81.5,56.5C 81.8333,56.1667 82.1667,55.8333 82.5,55.5C 81.3291,53.8307 79.9958,52.3307 78.5,51C 78.6667,50.5 78.8333,50 79,49.5C 81.7386,50.1223 84.5719,50.4556 87.5,50.5C 88.5937,49.132 88.2603,47.9653 86.5,47C 88.6019,46.7168 90.2685,47.5501 91.5,49.5C 96.5618,45.8633 95.5618,44.03 88.5,44C 90.9803,43.0846 91.6469,41.5846 90.5,39.5C 91.9479,38.6461 93.2813,37.6461 94.5,36.5C 95.2868,37.2421 95.9535,38.0754 96.5,39C 94.0437,41.159 94.7104,41.9923 98.5,41.5C 98.1805,46.3633 98.5139,51.03 99.5,55.5 Z"/></g>
<g><path style="opacity:1" fill="#191919" d="M 154.5,84.5 C 133.833,84.5 113.167,84.5 92.5,84.5C 91.1938,83.5326 90.5271,82.1993 90.5,80.5C 87.6359,80.9358 85.3025,80.1025 83.5,78C 89.1552,74.9575 92.8218,76.4575 94.5,82.5C 95.552,82.6495 96.552,82.4828 97.5,82C 96.5494,81.2825 96.3828,80.4491 97,79.5C 104.254,77.9056 104.254,76.2389 97,74.5C 96.1667,74.8333 95.3333,75.1667 94.5,75.5C 95.3256,76.451 95.4922,77.451 95,78.5C 93.6283,77.0899 92.795,75.4233 92.5,73.5C 94.258,73.1231 95.9246,72.4565 97.5,71.5C 98.086,71.7093 98.586,72.0426 99,72.5C 98.6667,70.8333 98.3333,69.1667 98,67.5C 100.596,69.0201 103.429,69.8534 106.5,70C 107.167,70.6667 107.833,71.3333 108.5,72C 105.641,73.6909 104.308,76.1909 104.5,79.5C 102.833,79.5 101.167,79.5 99.5,79.5C 99.5,80.8333 99.5,82.1667 99.5,83.5C 101.124,83.6399 102.29,82.9733 103,81.5C 104.395,82.8146 105.395,82.4812 106,80.5C 107.268,80.6158 108.602,80.9491 110,81.5C 111.399,80.7734 112.899,80.2734 114.5,80C 111.598,79.0814 111.265,78.2481 113.5,77.5C 116.239,76.6889 118.905,76.3556 121.5,76.5C 121.478,77.9952 121.811,79.6619 122.5,81.5C 124.985,82.6817 127.319,82.3484 129.5,80.5C 127.5,79.8333 125.5,79.1667 123.5,78.5C 124.735,75.9557 125.901,75.9557 127,78.5C 132.812,77.8416 132.979,76.5082 127.5,74.5C 129.991,73.4593 129.991,72.6259 127.5,72C 128.9,70.5619 130.567,69.7286 132.5,69.5C 132.351,70.552 132.517,71.552 133,72.5C 133.465,71.0692 134.299,69.9025 135.5,69C 133.754,68.5291 132.087,67.8624 130.5,67C 133.272,66.4743 135.938,65.6409 138.5,64.5C 138.167,64.1667 137.833,63.8333 137.5,63.5C 134.919,63.8793 132.419,63.2126 130,61.5C 129.25,62.1258 128.416,62.6258 127.5,63C 128.956,63.4226 129.456,64.2559 129,65.5C 126.533,63.1979 123.7,61.5312 120.5,60.5C 120.667,60.1667 120.833,59.8333 121,59.5C 123.776,60.685 126.61,60.685 129.5,59.5C 131.104,59.9391 132.604,60.6057 134,61.5C 134.945,61.0946 135.612,60.428 136,59.5C 137.011,60.3366 138.178,60.67 139.5,60.5C 139.5,58.8333 139.5,57.1667 139.5,55.5C 141.119,53.5394 143.286,52.2061 146,51.5C 147.23,52.2752 147.563,53.2752 147,54.5C 145.509,56.0037 143.676,56.8371 141.5,57C 143.125,57.8525 143.458,58.8525 142.5,60C 144.556,60.3108 146.556,60.8108 148.5,61.5C 149.59,60.273 150.924,59.4396 152.5,59C 151.5,58.1667 150.5,57.3333 149.5,56.5C 150,56.1667 150.5,55.8333 151,55.5C 152.3,56.7073 153.8,57.3739 155.5,57.5C 155.439,60.0495 154.106,61.5495 151.5,62C 154.167,63.3333 154.167,64.6667 151.5,66C 152.574,66.7387 153.241,67.7387 153.5,69C 151.71,70.7339 149.71,72.2339 147.5,73.5C 150.298,74.9689 153.298,75.8022 156.5,76C 155.552,76.4828 154.552,76.6495 153.5,76.5C 153.579,77.9305 153.246,79.2638 152.5,80.5C 153.63,81.6223 154.297,82.9557 154.5,84.5 Z"/></g>
<g><path style="opacity:1" fill="#212020" d="M 161.5,30.5 C 160.618,34.9093 161.952,38.4093 165.5,41C 169.511,42.3353 173.511,43.6686 177.5,45C 178.991,47.0217 178.658,48.6883 176.5,50C 171.821,50.9157 167.321,50.4157 163,48.5C 161.699,49.0981 160.865,50.0981 160.5,51.5C 165.993,55.4848 171.993,56.4848 178.5,54.5C 178.703,56.3904 178.037,57.8904 176.5,59C 178.256,59.2022 179.922,59.7022 181.5,60.5C 179.726,61.1867 178.059,62.0201 176.5,63C 180.272,65.3975 179.938,67.5641 175.5,69.5C 174.406,68.132 174.74,66.9653 176.5,66C 174.845,64.5557 174.178,62.7224 174.5,60.5C 172.5,60.5 170.5,60.5 168.5,60.5C 168.557,64.1331 167.557,64.2998 165.5,61C 164.207,60.51 162.873,60.3433 161.5,60.5C 162.735,62.7729 162.402,64.6062 160.5,66C 164.62,66.3558 168.62,67.1891 172.5,68.5C 170.657,68.7552 168.657,68.9219 166.5,69C 169.62,70.2857 171.954,72.4524 173.5,75.5C 174.478,75.0233 175.311,74.3567 176,73.5C 175.503,75.1984 175.67,76.8651 176.5,78.5C 175.975,79.1924 175.308,79.6924 174.5,80C 174.833,80.3333 175.167,80.6667 175.5,81C 174.167,81.3333 172.833,81.6667 171.5,82C 173.744,82.0496 175.411,82.8829 176.5,84.5C 169.167,84.5 161.833,84.5 154.5,84.5C 154.297,82.9557 153.63,81.6223 152.5,80.5C 153.246,79.2638 153.579,77.9305 153.5,76.5C 154.552,76.6495 155.552,76.4828 156.5,76C 153.298,75.8022 150.298,74.9689 147.5,73.5C 149.71,72.2339 151.71,70.7339 153.5,69C 153.241,67.7387 152.574,66.7387 151.5,66C 154.167,64.6667 154.167,63.3333 151.5,62C 154.106,61.5495 155.439,60.0495 155.5,57.5C 153.8,57.3739 152.3,56.7073 151,55.5C 150.5,55.8333 150,56.1667 149.5,56.5C 150.5,57.3333 151.5,58.1667 152.5,59C 150.924,59.4396 149.59,60.273 148.5,61.5C 146.556,60.8108 144.556,60.3108 142.5,60C 143.458,58.8525 143.125,57.8525 141.5,57C 143.676,56.8371 145.509,56.0037 147,54.5C 147.563,53.2752 147.23,52.2752 146,51.5C 143.286,52.2061 141.119,53.5394 139.5,55.5C 139.167,55.5 138.833,55.5 138.5,55.5C 137.308,50.2033 138.974,46.2033 143.5,43.5C 146.991,47.1602 150.324,50.9935 153.5,55C 155.579,55.8077 157.579,55.641 159.5,54.5C 155.295,49.4652 151.295,44.2986 147.5,39C 151.389,34.6181 155.056,30.1181 158.5,25.5C 159.15,25.1961 159.817,24.8627 160.5,24.5C 161.466,26.396 161.799,28.396 161.5,30.5 Z"/></g>
<g><path style="opacity:1" fill="#191919" d="M 188.5,77.5 C 185.792,76.5508 183.126,76.5508 180.5,77.5C 181.912,78.8064 183.579,79.6397 185.5,80C 183.5,80.6667 181.5,81.3333 179.5,82C 178.748,82.6708 178.414,83.5041 178.5,84.5C 177.833,84.5 177.167,84.5 176.5,84.5C 175.411,82.8829 173.744,82.0496 171.5,82C 172.833,81.6667 174.167,81.3333 175.5,81C 175.167,80.6667 174.833,80.3333 174.5,80C 175.308,79.6924 175.975,79.1924 176.5,78.5C 175.67,76.8651 175.503,75.1984 176,73.5C 175.311,74.3567 174.478,75.0233 173.5,75.5C 171.954,72.4524 169.62,70.2857 166.5,69C 168.657,68.9219 170.657,68.7552 172.5,68.5C 168.62,67.1891 164.62,66.3558 160.5,66C 162.402,64.6062 162.735,62.7729 161.5,60.5C 162.873,60.3433 164.207,60.51 165.5,61C 167.557,64.2998 168.557,64.1331 168.5,60.5C 170.5,60.5 172.5,60.5 174.5,60.5C 174.178,62.7224 174.845,64.5557 176.5,66C 174.74,66.9653 174.406,68.132 175.5,69.5C 179.938,67.5641 180.272,65.3975 176.5,63C 178.059,62.0201 179.726,61.1867 181.5,60.5C 179.922,59.7022 178.256,59.2022 176.5,59C 178.037,57.8904 178.703,56.3904 178.5,54.5C 178.833,54.5 179.167,54.5 179.5,54.5C 180.552,54.3505 181.552,54.5172 182.5,55C 178.498,56.3011 178.498,56.9678 182.5,57C 183.406,55.3005 183.739,53.4672 183.5,51.5C 184.552,51.3505 185.552,51.5172 186.5,52C 191.958,55.1781 191.791,56.6781 186,56.5C 185.506,58.1341 185.34,59.8008 185.5,61.5C 188.28,61.9452 190.947,61.9452 193.5,61.5C 194.861,65.0737 193.527,66.7404 189.5,66.5C 189.528,68.5824 188.861,70.4157 187.5,72C 188.552,73.7165 187.886,74.7165 185.5,75C 186.942,75.3768 187.942,76.2101 188.5,77.5 Z"/></g>
<g><path style="opacity:1" fill="#191919" d="M 33.5,52.5 C 34.4881,57.6405 34.8214,62.9738 34.5,68.5C 37.7131,68.81 40.7131,68.4767 43.5,67.5C 44.4861,63.03 44.8195,58.3633 44.5,53.5C 45.8333,53.5 47.1667,53.5 48.5,53.5C 48.5,58.8333 48.5,64.1667 48.5,69.5C 46.2495,69.1814 44.2495,69.6814 42.5,71C 43.8989,71.5946 45.2322,71.4279 46.5,70.5C 47.1667,71.1667 47.8333,71.8333 48.5,72.5C 49.2621,71.3717 49.9288,70.2051 50.5,69C 54.5351,68.3035 58.5351,68.4701 62.5,69.5C 64.6656,69.5704 64.9989,68.9038 63.5,67.5C 63.8333,66.5 64.5,65.8333 65.5,65.5C 66.1757,66.6016 66.8423,67.6016 67.5,68.5C 69.5,68.5 71.5,68.5 73.5,68.5C 74.3984,69.1577 75.3984,69.8243 76.5,70.5C 75.3717,71.2621 74.2051,71.9288 73,72.5C 72.3333,73.1667 72.3333,73.8333 73,74.5C 75.2015,75.9126 77.3682,77.4126 79.5,79C 75.0424,78.4176 70.7091,78.7509 66.5,80C 68.2705,79.4646 68.6039,78.6313 67.5,77.5C 65.2241,76.7868 62.8907,76.2868 60.5,76C 60.0183,74.9916 59.8516,73.825 60,72.5C 56.8893,71.7069 53.7227,71.8736 50.5,73C 52.3229,74.6579 53.9895,76.4912 55.5,78.5C 56.2811,77.2713 56.7811,75.938 57,74.5C 57.5,75.6667 58.3333,76.5 59.5,77C 57.7295,77.5354 57.3961,78.3687 58.5,79.5C 60.0983,78.5153 61.765,78.3486 63.5,79C 59.1471,80.8733 54.6471,82.3733 50,83.5C 49.2797,81.8876 49.4464,80.3876 50.5,79C 48.1627,75.2034 45.3293,74.7034 42,77.5C 41.5439,78.7441 42.0439,79.5774 43.5,80C 43.0426,80.414 42.7093,80.914 42.5,81.5C 44.444,82.8007 46.444,83.8007 48.5,84.5C 46.8333,84.5 45.1667,84.5 43.5,84.5C 39.6393,81.9158 35.306,80.4158 30.5,80C 31.7112,79.1072 31.7112,78.2739 30.5,77.5C 29.8333,78.1667 29.1667,78.8333 28.5,79.5C 28.1667,79.1667 27.8333,78.8333 27.5,78.5C 30.3202,75.163 29.6535,73.9964 25.5,75C 25.9574,74.586 26.2907,74.086 26.5,73.5C 25.1349,72.5444 23.6349,71.8777 22,71.5C 18.8923,72.5555 18.059,71.5555 19.5,68.5C 21.5,68.5 23.5,68.5 25.5,68.5C 24.9994,61.5011 27.666,56.1677 33.5,52.5 Z"/></g>
<g><path style="opacity:1" fill="#444444" d="M 49.5,42.5 C 49.5,50.8333 49.5,59.1667 49.5,67.5C 52.1667,67.5 54.8333,67.5 57.5,67.5C 57.1663,61.7322 57.4997,56.7322 58.5,52.5C 58.5,57.1667 58.5,61.8333 58.5,66.5C 63.4367,66.6463 64.1034,65.6463 60.5,63.5C 62.6114,62.1515 64.4447,62.4848 66,64.5C 66.4828,63.552 66.6495,62.552 66.5,61.5C 67.4682,63.6074 67.8016,65.9407 67.5,68.5C 66.8423,67.6016 66.1757,66.6016 65.5,65.5C 64.5,65.8333 63.8333,66.5 63.5,67.5C 64.9989,68.9038 64.6656,69.5704 62.5,69.5C 58.5351,68.4701 54.5351,68.3035 50.5,69C 49.9288,70.2051 49.2621,71.3717 48.5,72.5C 47.8333,71.8333 47.1667,71.1667 46.5,70.5C 45.2322,71.4279 43.8989,71.5946 42.5,71C 44.2495,69.6814 46.2495,69.1814 48.5,69.5C 48.5,64.1667 48.5,58.8333 48.5,53.5C 48.185,49.6286 48.5184,45.9619 49.5,42.5 Z"/></g>
<g><path style="opacity:1" fill="#202020" d="M 237.5,72.5 C 240.248,74.0438 243.248,74.7105 246.5,74.5C 246.238,73.0222 246.571,71.6888 247.5,70.5C 249.535,71.5965 250.868,73.2632 251.5,75.5C 252.293,75.0688 253.127,74.7355 254,74.5C 256.042,76.4438 258.208,78.2772 260.5,80C 260,80.5 259.5,81 259,81.5C 255.211,78.1527 251.044,77.6527 246.5,80C 248.833,80.3333 251.167,80.6667 253.5,81C 250.981,81.5864 248.981,82.7531 247.5,84.5C 241.5,84.5 235.5,84.5 229.5,84.5C 227.432,83.6252 225.432,82.4585 223.5,81C 225.443,81.3052 227.443,81.3052 229.5,81C 228.562,79.9367 227.562,78.7701 226.5,77.5C 223.499,79.8439 220.165,80.6772 216.5,80C 219.827,79.1773 222.827,77.6773 225.5,75.5C 225.333,75.1667 225.167,74.8333 225,74.5C 223.612,75.5536 222.112,75.7203 220.5,75C 221.205,73.4435 220.539,72.2768 218.5,71.5C 217.289,72.2739 217.289,73.1072 218.5,74C 217.892,74.8699 217.059,75.3699 216,75.5C 213,75.1667 210,74.8333 207,74.5C 206.5,74.1667 206,73.8333 205.5,73.5C 206.5,72.8333 207.5,72.1667 208.5,71.5C 206.082,69.7031 203.749,68.0365 201.5,66.5C 204.848,65.562 207.682,66.562 210,69.5C 211.897,67.6015 214.064,66.1015 216.5,65C 215.545,61.6876 215.879,61.6876 217.5,65C 215.064,66.3323 215.064,67.4989 217.5,68.5C 219.62,67.1285 220.62,67.7952 220.5,70.5C 221.822,70.67 222.989,70.3366 224,69.5C 225,70.5 226,71.5 227,72.5C 230.533,69.9707 234.033,69.9707 237.5,72.5 Z"/></g>
<g><path style="opacity:1" fill="#1d1d1d" d="M 201.5,66.5 C 203.749,68.0365 206.082,69.7031 208.5,71.5C 207.5,72.1667 206.5,72.8333 205.5,73.5C 206,73.8333 206.5,74.1667 207,74.5C 210,74.8333 213,75.1667 216,75.5C 217.059,75.3699 217.892,74.8699 218.5,74C 217.289,73.1072 217.289,72.2739 218.5,71.5C 220.539,72.2768 221.205,73.4435 220.5,75C 222.112,75.7203 223.612,75.5536 225,74.5C 225.167,74.8333 225.333,75.1667 225.5,75.5C 222.827,77.6773 219.827,79.1773 216.5,80C 220.165,80.6772 223.499,79.8439 226.5,77.5C 227.562,78.7701 228.562,79.9367 229.5,81C 227.443,81.3052 225.443,81.3052 223.5,81C 225.432,82.4585 227.432,83.6252 229.5,84.5C 212.5,84.5 195.5,84.5 178.5,84.5C 178.414,83.5041 178.748,82.6708 179.5,82C 181.5,81.3333 183.5,80.6667 185.5,80C 183.579,79.6397 181.912,78.8064 180.5,77.5C 183.126,76.5508 185.792,76.5508 188.5,77.5C 192.084,77.1796 192.751,76.0129 190.5,74C 193.894,73.2483 197.227,73.4149 200.5,74.5C 200.833,74.1667 201.167,73.8333 201.5,73.5C 198.987,71.5925 196.32,71.0925 193.5,72C 191.789,70.8668 191.289,69.3668 192,67.5C 192.308,68.3081 192.808,68.9747 193.5,69.5C 195.858,67.7134 198.525,66.7134 201.5,66.5 Z"/></g>
<g><path style="opacity:1" fill="#1f1f1f" d="M 92.5,73.5 C 92.795,75.4233 93.6283,77.0899 95,78.5C 95.4922,77.451 95.3256,76.451 94.5,75.5C 95.3333,75.1667 96.1667,74.8333 97,74.5C 104.254,76.2389 104.254,77.9056 97,79.5C 96.3828,80.4491 96.5494,81.2825 97.5,82C 96.552,82.4828 95.552,82.6495 94.5,82.5C 92.8218,76.4575 89.1552,74.9575 83.5,78C 85.3025,80.1025 87.6359,80.9358 90.5,80.5C 90.5271,82.1993 91.1938,83.5326 92.5,84.5C 77.8333,84.5 63.1667,84.5 48.5,84.5C 46.444,83.8007 44.444,82.8007 42.5,81.5C 42.7093,80.914 43.0426,80.414 43.5,80C 42.0439,79.5774 41.5439,78.7441 42,77.5C 45.3293,74.7034 48.1627,75.2034 50.5,79C 49.4464,80.3876 49.2797,81.8876 50,83.5C 54.6471,82.3733 59.1471,80.8733 63.5,79C 61.765,78.3486 60.0983,78.5153 58.5,79.5C 57.3961,78.3687 57.7295,77.5354 59.5,77C 58.3333,76.5 57.5,75.6667 57,74.5C 56.7811,75.938 56.2811,77.2713 55.5,78.5C 53.9895,76.4912 52.3229,74.6579 50.5,73C 53.7227,71.8736 56.8893,71.7069 60,72.5C 59.8516,73.825 60.0183,74.9916 60.5,76C 62.8907,76.2868 65.2241,76.7868 67.5,77.5C 68.6039,78.6313 68.2705,79.4646 66.5,80C 70.7091,78.7509 75.0424,78.4176 79.5,79C 77.3682,77.4126 75.2015,75.9126 73,74.5C 72.3333,73.8333 72.3333,73.1667 73,72.5C 74.2051,71.9288 75.3717,71.2621 76.5,70.5C 75.3984,69.8243 74.3984,69.1577 73.5,68.5C 75.1765,67.8166 75.8432,66.4832 75.5,64.5C 76.9305,64.4208 78.2638,64.7542 79.5,65.5C 80.8333,64.5 82.1667,63.5 83.5,62.5C 87.4789,63.8155 87.4789,65.1488 83.5,66.5C 85.1667,67.8333 86.8333,67.8333 88.5,66.5C 87.4104,65.3914 87.4104,64.3914 88.5,63.5C 90.2303,64.0256 91.5637,65.0256 92.5,66.5C 89.9423,68.7168 86.9423,69.8835 83.5,70C 84.6721,70.4186 85.6721,71.0853 86.5,72C 80.0961,71.1314 79.9295,71.9647 86,74.5C 87.4162,73.4267 88.7496,73.4267 90,74.5C 90.3418,72.3808 91.1751,72.0474 92.5,73.5 Z"/></g>
</svg>
