<?xml version="1.0" encoding="UTF-8"?>
<!DOCTYPE svg PUBLIC "-//W3C//DTD SVG 1.1//EN" "http://www.w3.org/Graphics/SVG/1.1/DTD/svg11.dtd">
<svg xmlns="http://www.w3.org/2000/svg" version="1.1" width="360px" height="360px" style="shape-rendering:geometricPrecision; text-rendering:geometricPrecision; image-rendering:optimizeQuality; fill-rule:evenodd; clip-rule:evenodd" xmlns:xlink="http://www.w3.org/1999/xlink">
<g><path style="opacity:1" fill="#f7f7f7" d="M -0.5,-0.5 C 119.5,-0.5 239.5,-0.5 359.5,-0.5C 359.5,109.5 359.5,219.5 359.5,329.5C 354.5,329.5 349.5,329.5 344.5,329.5C 344.5,324.5 344.5,319.5 344.5,314.5C 339.833,314.5 335.167,314.5 330.5,314.5C 330.5,306.167 330.5,297.833 330.5,289.5C 328.5,289.5 326.5,289.5 324.5,289.5C 324.004,308.023 323.338,321.356 322.5,329.5C 319.833,329.5 317.167,329.5 314.5,329.5C 314.216,332.777 314.549,335.943 315.5,339C 314.552,339.483 313.552,339.649 312.5,339.5C 309.135,338.86 305.802,338.026 302.5,337C 311.027,332.457 315.36,325.291 315.5,315.5C 316.309,313.708 316.809,311.708 317,309.5C 317.494,311.134 317.66,312.801 317.5,314.5C 319.167,314.5 320.833,314.5 322.5,314.5C 322.5,309.5 322.5,304.5 322.5,299.5C 319.833,299.5 317.167,299.5 314.5,299.5C 314.5,294.5 314.5,289.5 314.5,284.5C 319.5,284.5 324.5,284.5 329.5,284.5C 329.5,279.5 329.5,274.5 329.5,269.5C 324.5,269.5 319.5,269.5 314.5,269.5C 314.5,264.5 314.5,259.5 314.5,254.5C 309.5,254.5 304.5,254.5 299.5,254.5C 299.5,249.5 299.5,244.5 299.5,239.5C 294.5,239.5 289.5,239.5 284.5,239.5C 284.5,234.5 284.5,229.5 284.5,224.5C 279.5,224.5 274.5,224.5 269.5,224.5C 269.782,219.073 269.449,213.74 268.5,208.5C 284.1,206.627 296.267,199.293 305,186.5C 307.317,173.988 302.15,167.655 289.5,167.5C 283.526,168.552 277.526,169.052 271.5,169C 287.661,141.524 298.494,112.024 304,80.5C 304.698,70.8009 304.365,61.1342 303,51.5C 301.444,46.7202 299.111,42.3869 296,38.5C 274.887,16.4596 249.054,7.29297 218.5,11C 211.291,11.6448 204.291,13.1448 197.5,15.5C 178.449,11.4124 160.115,13.4124 142.5,21.5C 124.917,16.0123 106.917,13.8456 88.5,15C 60.006,19.494 43.506,35.994 39,64.5C 38.3333,75.1667 38.3333,85.8333 39,96.5C 44.0362,130.988 53.8695,163.988 68.5,195.5C 65.6085,194.597 62.6085,194.264 59.5,194.5C 59.5,199.5 59.5,204.5 59.5,209.5C 64.5,209.5 69.5,209.5 74.5,209.5C 74.5,214.5 74.5,219.5 74.5,224.5C 79.5,224.5 84.5,224.5 89.5,224.5C 89.5,229.5 89.5,234.5 89.5,239.5C 94.5,239.5 99.5,239.5 104.5,239.5C 104.5,244.5 104.5,249.5 104.5,254.5C 109.5,254.5 114.5,254.5 119.5,254.5C 119.5,259.5 119.5,264.5 119.5,269.5C 124.5,269.5 129.5,269.5 134.5,269.5C 134.5,274.5 134.5,279.5 134.5,284.5C 139.5,284.5 144.5,284.5 149.5,284.5C 149.5,289.5 149.5,294.5 149.5,299.5C 144.5,299.5 139.5,299.5 134.5,299.5C 134.334,303.514 134.501,307.514 135,311.5C 135.333,310.833 135.667,310.167 136,309.5C 136.399,309.728 136.565,310.062 136.5,310.5C 132.624,320.152 134.29,328.652 141.5,336C 148.921,339.958 155.421,338.791 161,332.5C 162.086,345.412 156.253,350.578 143.5,348C 141.975,346.991 140.308,346.491 138.5,346.5C 138.027,349.833 139.36,352 142.5,353C 153.703,356.223 161.703,352.723 166.5,342.5C 170.514,344.334 174.847,345.001 179.5,344.5C 179.675,342.379 179.341,340.379 178.5,338.5C 180.167,338.5 181.833,338.5 183.5,338.5C 183.094,330.083 183.594,321.749 185,313.5C 186.945,309.61 190.112,307.943 194.5,308.5C 194.5,310.5 194.5,312.5 194.5,314.5C 195.822,314.67 196.989,314.337 198,313.5C 198.483,314.448 198.649,315.448 198.5,316.5C 197.89,322.542 198.89,328.208 201.5,333.5C 200.188,332.855 199.188,331.855 198.5,330.5C 197.311,329.571 195.978,329.238 194.5,329.5C 194.5,334.5 194.5,339.5 194.5,344.5C 199.5,344.5 204.5,344.5 209.5,344.5C 209.5,349.5 209.5,354.5 209.5,359.5C 184.5,359.5 159.5,359.5 134.5,359.5C 134.5,354.5 134.5,349.5 134.5,344.5C 129.5,344.5 124.5,344.5 119.5,344.5C 119.242,342.19 119.242,340.19 119.5,338.5C 122.814,339.707 126.148,339.707 129.5,338.5C 129.5,336.833 129.5,335.167 129.5,333.5C 126.635,333.945 124.135,333.278 122,331.5C 121.5,323.507 121.334,315.507 121.5,307.5C 124.5,307.5 127.5,307.5 130.5,307.5C 130.5,305.833 130.5,304.167 130.5,302.5C 127.5,302.5 124.5,302.5 121.5,302.5C 121.82,299.102 121.487,295.768 120.5,292.5C 115.326,293.706 113.326,297.039 114.5,302.5C 112.833,302.5 111.167,302.5 109.5,302.5C 110.718,301.839 112.051,301.172 113.5,300.5C 110.572,299.516 107.572,299.183 104.5,299.5C 104.5,294.5 104.5,289.5 104.5,284.5C 99.5,284.5 94.5,284.5 89.5,284.5C 89.5,289.5 89.5,294.5 89.5,299.5C 84.5,299.5 79.5,299.5 74.5,299.5C 74.5,294.5 74.5,289.5 74.5,284.5C 69.5,284.5 64.5,284.5 59.5,284.5C 59.5,289.5 59.5,294.5 59.5,299.5C 54.5,299.5 49.5,299.5 44.5,299.5C 44.5,294.5 44.5,289.5 44.5,284.5C 39.5,284.5 34.5,284.5 29.5,284.5C 29.5,279.5 29.5,274.5 29.5,269.5C 24.5,269.5 19.5,269.5 14.5,269.5C 14.5,274.5 14.5,279.5 14.5,284.5C 9.5,284.5 4.5,284.5 -0.5,284.5C -0.5,189.5 -0.5,94.5 -0.5,-0.5 Z"/></g>
<g><path style="opacity:1" fill="#336690" d="M 268.5,208.5 C 262.225,209.418 255.892,209.751 249.5,209.5C 249.781,223.692 248.281,237.692 245,251.5C 239.307,272.191 225.807,284.024 204.5,287C 187.131,290.068 174.965,283.568 168,267.5C 163.229,251.204 160.729,234.538 160.5,217.5C 147.787,221.59 135.12,221.424 122.5,217C 119.387,215.545 116.554,213.712 114,211.5C 103.09,218.258 92.2569,218.091 81.5,211C 76.926,205.935 72.5926,200.769 68.5,195.5C 53.8695,163.988 44.0362,130.988 39,96.5C 38.3333,85.8333 38.3333,75.1667 39,64.5C 43.506,35.994 60.006,19.494 88.5,15C 106.917,13.8456 124.917,16.0123 142.5,21.5C 160.115,13.4124 178.449,11.4124 197.5,15.5C 204.291,13.1448 211.291,11.6448 218.5,11C 249.054,7.29297 274.887,16.4596 296,38.5C 299.111,42.3869 301.444,46.7202 303,51.5C 304.365,61.1342 304.698,70.8009 304,80.5C 298.494,112.024 287.661,141.524 271.5,169C 277.526,169.052 283.526,168.552 289.5,167.5C 302.15,167.655 307.317,173.988 305,186.5C 296.267,199.293 284.1,206.627 268.5,208.5 Z"/></g>
<g><path style="opacity:1" fill="#f4f5f6" d="M 214.5,18.5 C 236.792,15.1092 257.458,19.2759 276.5,31C 285.231,37.0566 291.731,44.89 296,54.5C 297.379,70.0701 296.046,85.4035 292,100.5C 284.286,126.424 273.453,150.924 259.5,174C 259.905,174.945 260.572,175.612 261.5,176C 264.667,176.167 267.833,176.333 271,176.5C 278.842,175.728 286.675,175.228 294.5,175C 298.53,177.287 299.364,180.454 297,184.5C 288.168,194.666 277.001,200.166 263.5,201C 257.141,201.169 250.807,201.669 244.5,202.5C 242.535,220.958 239.702,239.291 236,257.5C 231.084,269.41 222.25,276.576 209.5,279C 186.096,283.598 172.596,274.098 169,250.5C 168.125,235.17 167.292,219.836 166.5,204.5C 154.947,212.514 142.28,214.681 128.5,211C 121.248,209.119 118.081,204.619 119,197.5C 119.833,196.667 120.667,195.833 121.5,195C 128.856,192.794 136.189,190.46 143.5,188C 145.874,185.961 147.874,183.628 149.5,181C 143.986,179.903 138.652,178.57 133.5,177C 125.204,186.965 116.537,196.631 107.5,206C 96.9002,210.993 88.0669,208.826 81,199.5C 70.9158,183.659 63.2491,166.659 58,148.5C 51.6212,126.367 47.1212,103.867 44.5,81C 45.5875,37.2474 67.9208,17.5807 111.5,22C 122.605,23.354 133.438,25.854 144,29.5C 160.679,21.263 178.179,19.263 196.5,23.5C 202.689,22.0711 208.689,20.4045 214.5,18.5 Z"/></g>
<g><path style="opacity:1" fill="#336690" d="M 92.5,29.5 C 107.655,28.9234 122.321,31.2568 136.5,36.5C 124.506,50.1692 117.673,66.1692 116,84.5C 115.363,105.838 115.03,127.171 115,148.5C 116.556,157.613 120.722,165.28 127.5,171.5C 119.647,180.186 111.98,189.019 104.5,198C 100.742,200.869 96.7416,201.202 92.5,199C 86.0825,193.255 81.2491,186.422 78,178.5C 64.4159,146.997 56.2492,114.164 53.5,80C 51.5841,51.2288 64.5841,34.3955 92.5,29.5 Z"/></g>
<g><path style="opacity:1" fill="#326690" d="M 164.5,29.5 C 205.266,26.7086 233.6,44.0419 249.5,81.5C 221.8,80.8826 211.967,93.8826 220,120.5C 227.905,139.313 237.072,157.313 247.5,174.5C 242.944,175.885 239.778,178.885 238,183.5C 235.813,205.557 233.146,227.557 230,249.5C 228.508,258.985 223.342,265.485 214.5,269C 209.22,270.487 203.887,271.654 198.5,272.5C 187.593,271.761 180.76,266.094 178,255.5C 177.26,249.842 176.594,244.175 176,238.5C 175.667,220.833 175.333,203.167 175,185.5C 172.402,177.575 166.902,173.408 158.5,173C 163.659,161.515 167.826,149.681 171,137.5C 172.736,122.069 171.069,107.069 166,92.5C 159.892,85.0112 152.059,82.1778 142.5,84C 136.605,85.1317 130.938,86.9651 125.5,89.5C 125.091,74.2199 129.257,60.2199 138,47.5C 144.936,38.622 153.769,32.622 164.5,29.5 Z"/></g>
<g><path style="opacity:1" fill="#336690" d="M 217.5,26.5 C 240.843,23.4566 261.51,29.2899 279.5,44C 288.07,53.1232 290.904,63.9565 288,76.5C 282.663,109.033 271.163,139.033 253.5,166.5C 253.167,166.333 252.833,166.167 252.5,166C 255.515,161.624 257.348,156.791 258,151.5C 258.648,139.625 258.148,127.791 256.5,116C 257.627,106.177 258.627,96.3433 259.5,86.5C 251.749,60.2471 235.749,40.7471 211.5,28C 213.708,27.8091 215.708,27.3091 217.5,26.5 Z"/></g>
<g><path style="opacity:1" fill="#326690" d="M 235.5,90.5 C 240.5,90.5 245.5,90.5 250.5,90.5C 250.164,99.1881 249.498,107.855 248.5,116.5C 250.27,128.11 250.77,139.777 250,151.5C 249.167,153.5 248.333,155.5 247.5,157.5C 238.18,142.858 231.014,127.191 226,110.5C 223.75,101.02 226.916,94.3536 235.5,90.5 Z"/></g>
<g><path style="opacity:1" fill="#336691" d="M 145.5,91.5 C 156.341,91.173 161.841,96.5063 162,107.5C 164.271,119.923 163.938,132.256 161,144.5C 157.469,154.316 153.302,163.649 148.5,172.5C 132.229,168.779 123.562,158.613 122.5,142C 123.209,128.176 123.709,114.343 124,100.5C 130.565,95.8187 137.732,92.8187 145.5,91.5 Z"/></g>
<g><path style="opacity:1" fill="#ebeef0" d="M 235.5,93.5 C 237.857,93.3367 240.19,93.5034 242.5,94C 244.804,98.0679 243.471,100.735 238.5,102C 234.831,102.536 232.164,101.036 230.5,97.5C 231.707,95.4589 233.374,94.1255 235.5,93.5 Z"/></g>
<g><path style="opacity:1" fill="#f2f4f6" d="M 145.5,95.5 C 149.41,95.2628 153.077,96.0961 156.5,98C 157.94,102.592 156.107,105.092 151,105.5C 144.286,104.374 142.453,101.041 145.5,95.5 Z"/></g>
<g><path style="opacity:1" fill="#346791" d="M 249.5,181.5 C 255.947,183.413 262.613,184.747 269.5,185.5C 291.301,181.654 291.634,183.821 270.5,192C 262.181,193.708 253.847,193.875 245.5,192.5C 244.656,187.862 245.989,184.195 249.5,181.5 Z"/></g>
<g><path style="opacity:1" fill="#346691" d="M 158.5,182.5 C 167.05,183.192 169.216,187.192 165,194.5C 155.302,204.133 143.802,206.966 130.5,203C 129.328,202.581 128.328,201.915 127.5,201C 141.298,200.442 151.632,194.275 158.5,182.5 Z"/></g>
<g><path style="opacity:1" fill="#f4f4f4" d="M 68.5,195.5 C 72.5926,200.769 76.926,205.935 81.5,211C 92.2569,218.091 103.09,218.258 114,211.5C 116.554,213.712 119.387,215.545 122.5,217C 135.12,221.424 147.787,221.59 160.5,217.5C 160.729,234.538 163.229,251.204 168,267.5C 174.965,283.568 187.131,290.068 204.5,287C 225.807,284.024 239.307,272.191 245,251.5C 248.281,237.692 249.781,223.692 249.5,209.5C 255.892,209.751 262.225,209.418 268.5,208.5C 269.449,213.74 269.782,219.073 269.5,224.5C 274.5,224.5 279.5,224.5 284.5,224.5C 284.5,229.5 284.5,234.5 284.5,239.5C 289.5,239.5 294.5,239.5 299.5,239.5C 299.5,244.5 299.5,249.5 299.5,254.5C 304.5,254.5 309.5,254.5 314.5,254.5C 314.5,259.5 314.5,264.5 314.5,269.5C 319.5,269.5 324.5,269.5 329.5,269.5C 329.5,274.5 329.5,279.5 329.5,284.5C 324.5,284.5 319.5,284.5 314.5,284.5C 314.5,289.5 314.5,294.5 314.5,299.5C 317.167,299.5 319.833,299.5 322.5,299.5C 322.5,304.5 322.5,309.5 322.5,314.5C 320.833,314.5 319.167,314.5 317.5,314.5C 317.66,312.801 317.494,311.134 317,309.5C 316.809,311.708 316.309,313.708 315.5,315.5C 315.497,294.324 305.163,285.824 284.5,290C 275.635,295.215 270.969,303.048 270.5,313.5C 270.081,323.115 273.748,330.615 281.5,336C 292.04,338.957 302.54,342.124 313,345.5C 314.876,344.381 315.709,342.714 315.5,340.5C 314.209,340.737 313.209,340.404 312.5,339.5C 313.552,339.649 314.552,339.483 315.5,339C 314.549,335.943 314.216,332.777 314.5,329.5C 317.167,329.5 319.833,329.5 322.5,329.5C 323.338,321.356 324.004,308.023 324.5,289.5C 324.5,305.833 324.5,322.167 324.5,338.5C 333.5,338.5 342.5,338.5 351.5,338.5C 351.5,336.833 351.5,335.167 351.5,333.5C 344.5,333.5 337.5,333.5 330.5,333.5C 330.5,327.167 330.5,320.833 330.5,314.5C 335.167,314.5 339.833,314.5 344.5,314.5C 344.5,319.5 344.5,324.5 344.5,329.5C 349.5,329.5 354.5,329.5 359.5,329.5C 359.5,339.5 359.5,349.5 359.5,359.5C 309.5,359.5 259.5,359.5 209.5,359.5C 209.5,354.5 209.5,349.5 209.5,344.5C 204.5,344.5 199.5,344.5 194.5,344.5C 194.5,339.5 194.5,334.5 194.5,329.5C 195.978,329.238 197.311,329.571 198.5,330.5C 199.188,331.855 200.188,332.855 201.5,333.5C 203.465,335.488 205.798,336.988 208.5,338C 214.167,338.667 219.833,338.667 225.5,338C 227.917,336.327 227.917,334.494 225.5,332.5C 218.89,335.569 212.723,334.902 207,330.5C 205.092,327.794 204.259,324.794 204.5,321.5C 212.833,321.5 221.167,321.5 229.5,321.5C 229.181,304.67 221.181,299.17 205.5,305C 201.979,308.225 199.646,312.058 198.5,316.5C 198.649,315.448 198.483,314.448 198,313.5C 196.989,314.337 195.822,314.67 194.5,314.5C 194.5,312.5 194.5,310.5 194.5,308.5C 195.461,306.735 195.795,304.735 195.5,302.5C 190.148,301.672 186.481,303.672 184.5,308.5C 183.539,306.735 183.205,304.735 183.5,302.5C 181.265,302.205 179.265,302.539 177.5,303.5C 177.172,315.345 177.505,327.012 178.5,338.5C 179.341,340.379 179.675,342.379 179.5,344.5C 174.847,345.001 170.514,344.334 166.5,342.5C 167.445,329.203 167.778,315.87 167.5,302.5C 163.169,301.451 161.003,303.118 161,307.5C 155.185,301.927 148.685,301.094 141.5,305C 139.7,306.812 138.033,308.645 136.5,310.5C 136.565,310.062 136.399,309.728 136,309.5C 135.667,310.167 135.333,310.833 135,311.5C 134.501,307.514 134.334,303.514 134.5,299.5C 139.5,299.5 144.5,299.5 149.5,299.5C 149.5,294.5 149.5,289.5 149.5,284.5C 144.5,284.5 139.5,284.5 134.5,284.5C 134.5,279.5 134.5,274.5 134.5,269.5C 129.5,269.5 124.5,269.5 119.5,269.5C 119.5,264.5 119.5,259.5 119.5,254.5C 114.5,254.5 109.5,254.5 104.5,254.5C 104.5,249.5 104.5,244.5 104.5,239.5C 99.5,239.5 94.5,239.5 89.5,239.5C 89.5,234.5 89.5,229.5 89.5,224.5C 84.5,224.5 79.5,224.5 74.5,224.5C 74.5,219.5 74.5,214.5 74.5,209.5C 69.5,209.5 64.5,209.5 59.5,209.5C 59.5,204.5 59.5,199.5 59.5,194.5C 62.6085,194.264 65.6085,194.597 68.5,195.5 Z"/></g>
<g><path style="opacity:1" fill="#31648f" d="M 245.5,288.5 C 250.179,288.334 254.845,288.501 259.5,289C 263.085,290.603 263.418,292.769 260.5,295.5C 254.699,292.5 249.199,292.834 244,296.5C 241.777,300.388 242.277,303.888 245.5,307C 250.136,309.318 254.802,311.651 259.5,314C 264.753,319.265 265.919,325.432 263,332.5C 260.9,335.467 258.066,337.3 254.5,338C 249.5,338.667 244.5,338.667 239.5,338C 234.868,336.772 234.368,334.605 238,331.5C 243.025,333.381 248.192,333.881 253.5,333C 258.069,330.459 259.569,326.625 258,321.5C 256.833,320.333 255.667,319.167 254.5,318C 250.047,316.274 245.714,314.274 241.5,312C 235.858,306.568 235.024,300.401 239,293.5C 241.326,291.934 243.492,290.268 245.5,288.5 Z"/></g>
<g><path style="opacity:1" fill="#346690" d="M 315.5,315.5 C 315.36,325.291 311.027,332.457 302.5,337C 305.802,338.026 309.135,338.86 312.5,339.5C 313.209,340.404 314.209,340.737 315.5,340.5C 315.709,342.714 314.876,344.381 313,345.5C 302.54,342.124 292.04,338.957 281.5,336C 273.748,330.615 270.081,323.115 270.5,313.5C 270.969,303.048 275.635,295.215 284.5,290C 305.163,285.824 315.497,294.324 315.5,315.5 Z"/></g>
<g><path style="opacity:1" fill="#2f638e" d="M 324.5,289.5 C 326.5,289.5 328.5,289.5 330.5,289.5C 330.5,297.833 330.5,306.167 330.5,314.5C 330.5,320.833 330.5,327.167 330.5,333.5C 337.5,333.5 344.5,333.5 351.5,333.5C 351.5,335.167 351.5,336.833 351.5,338.5C 342.5,338.5 333.5,338.5 324.5,338.5C 324.5,322.167 324.5,305.833 324.5,289.5 Z"/></g>
<g><path style="opacity:1" fill="#3f6d95" d="M 119.5,338.5 C 117.192,336.833 115.692,334.5 115,331.5C 114.5,323.507 114.334,315.507 114.5,307.5C 112.833,307.5 111.167,307.5 109.5,307.5C 109.5,305.833 109.5,304.167 109.5,302.5C 111.167,302.5 112.833,302.5 114.5,302.5C 113.326,297.039 115.326,293.706 120.5,292.5C 121.487,295.768 121.82,299.102 121.5,302.5C 124.5,302.5 127.5,302.5 130.5,302.5C 130.5,304.167 130.5,305.833 130.5,307.5C 127.5,307.5 124.5,307.5 121.5,307.5C 121.334,315.507 121.5,323.507 122,331.5C 124.135,333.278 126.635,333.945 129.5,333.5C 129.5,335.167 129.5,336.833 129.5,338.5C 126.148,339.707 122.814,339.707 119.5,338.5 Z"/></g>
<g><path style="opacity:1" fill="#f5f6f7" d="M 288.5,293.5 C 304.012,293.857 310.845,301.857 309,317.5C 306.716,331.39 298.883,336.223 285.5,332C 276.108,321.634 275.108,310.468 282.5,298.5C 284.544,296.781 286.544,295.114 288.5,293.5 Z"/></g>
<g><path style="opacity:1" fill="#89a6be" d="M 177.5,303.5 C 179.265,302.539 181.265,302.205 183.5,302.5C 183.205,304.735 183.539,306.735 184.5,308.5C 184.44,309.043 184.107,309.376 183.5,309.5C 182.534,307.604 182.201,305.604 182.5,303.5C 180.833,303.5 179.167,303.5 177.5,303.5 Z"/></g>
<g><path style="opacity:1" fill="#2f638e" d="M 201.5,333.5 C 198.89,328.208 197.89,322.542 198.5,316.5C 199.646,312.058 201.979,308.225 205.5,305C 221.181,299.17 229.181,304.67 229.5,321.5C 221.167,321.5 212.833,321.5 204.5,321.5C 204.259,324.794 205.092,327.794 207,330.5C 212.723,334.902 218.89,335.569 225.5,332.5C 227.917,334.494 227.917,336.327 225.5,338C 219.833,338.667 214.167,338.667 208.5,338C 205.798,336.988 203.465,335.488 201.5,333.5 Z"/></g>
<g><path style="opacity:1" fill="#336690" d="M 166.5,342.5 C 161.703,352.723 153.703,356.223 142.5,353C 139.36,352 138.027,349.833 138.5,346.5C 140.308,346.491 141.975,346.991 143.5,348C 156.253,350.578 162.086,345.412 161,332.5C 155.421,338.791 148.921,339.958 141.5,336C 134.29,328.652 132.624,320.152 136.5,310.5C 138.033,308.645 139.7,306.812 141.5,305C 148.685,301.094 155.185,301.927 161,307.5C 161.003,303.118 163.169,301.451 167.5,302.5C 167.778,315.87 167.445,329.203 166.5,342.5 Z"/></g>
<g><path style="opacity:1" fill="#30648f" d="M 194.5,308.5 C 190.112,307.943 186.945,309.61 185,313.5C 183.594,321.749 183.094,330.083 183.5,338.5C 181.833,338.5 180.167,338.5 178.5,338.5C 177.505,327.012 177.172,315.345 177.5,303.5C 179.167,303.5 180.833,303.5 182.5,303.5C 182.201,305.604 182.534,307.604 183.5,309.5C 184.107,309.376 184.44,309.043 184.5,308.5C 186.481,303.672 190.148,301.672 195.5,302.5C 195.795,304.735 195.461,306.735 194.5,308.5 Z"/></g>
<g><path style="opacity:1" fill="#f1f3f5" d="M 211.5,306.5 C 219.288,305.953 223.288,309.619 223.5,317.5C 217.167,317.5 210.833,317.5 204.5,317.5C 204.829,312.514 207.163,308.847 211.5,306.5 Z"/></g>
<g><path style="opacity:1" fill="#f5f6f7" d="M 147.5,307.5 C 159.481,306.995 163.981,312.662 161,324.5C 158.908,332.462 154.074,334.962 146.5,332C 144.622,330.457 143.122,328.624 142,326.5C 139.967,318.858 141.8,312.525 147.5,307.5 Z"/></g>
<g><path style="opacity:1" fill="#f2f3f3" d="M 109.5,302.5 C 109.5,304.167 109.5,305.833 109.5,307.5C 111.167,307.5 112.833,307.5 114.5,307.5C 114.334,315.507 114.5,323.507 115,331.5C 115.692,334.5 117.192,336.833 119.5,338.5C 119.242,340.19 119.242,342.19 119.5,344.5C 124.5,344.5 129.5,344.5 134.5,344.5C 134.5,349.5 134.5,354.5 134.5,359.5C 119.5,359.5 104.5,359.5 89.5,359.5C 89.5,354.5 89.5,349.5 89.5,344.5C 84.5,344.5 79.5,344.5 74.5,344.5C 74.2232,339.767 74.5565,335.1 75.5,330.5C 80.1196,329.507 84.7863,329.173 89.5,329.5C 89.1849,326.789 89.8516,324.456 91.5,322.5C 97.1342,323.627 99.3009,326.96 98,332.5C 93.5631,335.041 89.0631,335.041 84.5,332.5C 82.6671,333.968 82.3338,335.635 83.5,337.5C 88.4456,338.614 93.4456,338.781 98.5,338C 106.749,332.772 107.416,326.772 100.5,320C 97.4167,318.861 94.4167,317.528 91.5,316C 88.8333,313.333 88.8333,310.667 91.5,308C 95.2411,307.498 98.9078,307.498 102.5,308C 103.38,306.644 103.714,305.144 103.5,303.5C 98.1138,302.005 92.7804,302.172 87.5,304C 84.1295,306.697 82.7962,310.197 83.5,314.5C 82.71,313.391 82.21,312.058 82,310.5C 81.51,311.793 81.3433,313.127 81.5,314.5C 79.5853,314.216 77.9187,314.549 76.5,315.5C 71.2516,302.91 62.2516,299.41 49.5,305C 41.6404,311.743 39.6404,319.91 43.5,329.5C 38.8333,329.5 34.1667,329.5 29.5,329.5C 29.5,334.5 29.5,339.5 29.5,344.5C 34.5,344.5 39.5,344.5 44.5,344.5C 44.5,349.5 44.5,354.5 44.5,359.5C 29.5,359.5 14.5,359.5 -0.5,359.5C -0.5,334.5 -0.5,309.5 -0.5,284.5C 4.5,284.5 9.5,284.5 14.5,284.5C 14.5,279.5 14.5,274.5 14.5,269.5C 19.5,269.5 24.5,269.5 29.5,269.5C 29.5,274.5 29.5,279.5 29.5,284.5C 34.5,284.5 39.5,284.5 44.5,284.5C 44.5,289.5 44.5,294.5 44.5,299.5C 49.5,299.5 54.5,299.5 59.5,299.5C 59.5,294.5 59.5,289.5 59.5,284.5C 64.5,284.5 69.5,284.5 74.5,284.5C 74.5,289.5 74.5,294.5 74.5,299.5C 79.5,299.5 84.5,299.5 89.5,299.5C 89.5,294.5 89.5,289.5 89.5,284.5C 94.5,284.5 99.5,284.5 104.5,284.5C 104.5,289.5 104.5,294.5 104.5,299.5C 107.572,299.183 110.572,299.516 113.5,300.5C 112.051,301.172 110.718,301.839 109.5,302.5 Z"/></g>
<g><path style="opacity:1" fill="#336590" d="M 91.5,322.5 C 87.4778,321.144 84.8111,318.478 83.5,314.5C 82.7962,310.197 84.1295,306.697 87.5,304C 92.7804,302.172 98.1138,302.005 103.5,303.5C 103.714,305.144 103.38,306.644 102.5,308C 98.9078,307.498 95.2411,307.498 91.5,308C 88.8333,310.667 88.8333,313.333 91.5,316C 94.4167,317.528 97.4167,318.861 100.5,320C 107.416,326.772 106.749,332.772 98.5,338C 93.4456,338.781 88.4456,338.614 83.5,337.5C 82.3338,335.635 82.6671,333.968 84.5,332.5C 89.0631,335.041 93.5631,335.041 98,332.5C 99.3009,326.96 97.1342,323.627 91.5,322.5 Z"/></g>
<g><path style="opacity:1" fill="#336690" d="M 76.5,315.5 C 76.7222,335.805 67.3888,342.638 48.5,336C 46.2345,334.242 44.5678,332.075 43.5,329.5C 39.6404,319.91 41.6404,311.743 49.5,305C 62.2516,299.41 71.2516,302.91 76.5,315.5 Z"/></g>
<g><path style="opacity:1" fill="#31648f" d="M 23.5,318.5 C 20.1667,318.5 16.8333,318.5 13.5,318.5C 13.5,325.167 13.5,331.833 13.5,338.5C 11.5,338.5 9.5,338.5 7.5,338.5C 7.5,322.167 7.5,305.833 7.5,289.5C 16.0659,287.957 24.3993,288.79 32.5,292C 38.1811,298.124 39.0144,304.958 35,312.5C 31.9223,315.917 28.089,317.917 23.5,318.5 Z"/></g>
<g><path style="opacity:1" fill="#eff0f1" d="M 14.5,293.5 C 19.4116,293.063 24.0783,293.896 28.5,296C 32.6109,301.573 32.2776,306.906 27.5,312C 22.964,313.379 18.2973,313.879 13.5,313.5C 13.2066,306.745 13.5399,300.078 14.5,293.5 Z"/></g>
<g><path style="opacity:1" fill="#f6f7f8" d="M 54.5,307.5 C 61.445,305.775 66.2783,308.108 69,314.5C 70.3933,320.924 69.2266,326.757 65.5,332C 57.8734,336.535 52.3734,334.701 49,326.5C 46.9705,318.901 48.8038,312.568 54.5,307.5 Z"/></g>
<g><path style="opacity:1" fill="#becdd9" d="M 23.5,318.5 C 20.7131,319.477 17.7131,319.81 14.5,319.5C 14.8235,326.022 14.4902,332.355 13.5,338.5C 13.5,331.833 13.5,325.167 13.5,318.5C 16.8333,318.5 20.1667,318.5 23.5,318.5 Z"/></g>
<g><path style="opacity:1" fill="#fafafa" d="M 83.5,314.5 C 84.8111,318.478 87.4778,321.144 91.5,322.5C 89.8516,324.456 89.1849,326.789 89.5,329.5C 84.7863,329.173 80.1196,329.507 75.5,330.5C 74.5565,335.1 74.2232,339.767 74.5,344.5C 79.5,344.5 84.5,344.5 89.5,344.5C 89.5,349.5 89.5,354.5 89.5,359.5C 74.5,359.5 59.5,359.5 44.5,359.5C 44.5,354.5 44.5,349.5 44.5,344.5C 39.5,344.5 34.5,344.5 29.5,344.5C 29.5,339.5 29.5,334.5 29.5,329.5C 34.1667,329.5 38.8333,329.5 43.5,329.5C 44.5678,332.075 46.2345,334.242 48.5,336C 67.3888,342.638 76.7222,335.805 76.5,315.5C 77.9187,314.549 79.5853,314.216 81.5,314.5C 81.3433,313.127 81.51,311.793 82,310.5C 82.21,312.058 82.71,313.391 83.5,314.5 Z"/></g>
</svg>
