<?xml version="1.0" encoding="UTF-8"?>
<!DOCTYPE svg PUBLIC "-//W3C//DTD SVG 1.1//EN" "http://www.w3.org/Graphics/SVG/1.1/DTD/svg11.dtd">
<svg xmlns="http://www.w3.org/2000/svg" version="1.1" width="395px" height="385px" style="shape-rendering:geometricPrecision; text-rendering:geometricPrecision; image-rendering:optimizeQuality; fill-rule:evenodd; clip-rule:evenodd" xmlns:xlink="http://www.w3.org/1999/xlink">
<g><path style="opacity:1" fill="#fbfcfe" d="M -0.5,-0.5 C 16.8333,-0.5 34.1667,-0.5 51.5,-0.5C 31.6329,5.85756 17.1329,18.5242 8,37.5C 6.56989,40.3527 5.73656,43.3527 5.5,46.5C 4.71003,47.6085 4.21003,48.9419 4,50.5C 3.16756,144.001 3.33423,237.334 4.5,330.5C 9.67064,358.669 26.004,376.669 53.5,384.5C 35.5,384.5 17.5,384.5 -0.5,384.5C -0.5,256.167 -0.5,127.833 -0.5,-0.5 Z"/></g>
<g><path style="opacity:1" fill="#4695ea" d="M 51.5,-0.5 C 148.167,-0.5 244.833,-0.5 341.5,-0.5C 366.923,6.5902 382.923,22.9235 389.5,48.5C 390.48,141.488 390.814,234.488 390.5,327.5C 385.815,357.518 368.815,376.518 339.5,384.5C 322.167,384.5 304.833,384.5 287.5,384.5C 281.975,370.616 276.309,356.783 270.5,343C 290.5,342.667 310.5,342.333 330.5,342C 338.927,339.905 344.427,334.739 347,326.5C 347.667,236.167 347.667,145.833 347,55.5C 343.951,49.617 339.451,45.2837 333.5,42.5C 333.5,41.1667 333.5,39.8333 333.5,38.5C 243.5,38.5 153.5,38.5 63.5,38.5C 63.5,39.5 63.5,40.5 63.5,41.5C 55.6423,43.8556 50.1423,48.8556 47,56.5C 46.3333,145.833 46.3333,235.167 47,324.5C 48.8333,334.333 54.6667,340.167 64.5,342C 97.1667,342.667 129.833,342.667 162.5,342C 174.022,317.788 185.689,293.621 197.5,269.5C 213.459,307.747 229.126,346.08 244.5,384.5C 180.833,384.5 117.167,384.5 53.5,384.5C 26.004,376.669 9.67064,358.669 4.5,330.5C 4.33334,238.833 4.5,147.166 5,55.5C 6.15623,56.9928 6.98957,56.8261 7.5,55C 5.85416,52.405 5.18749,49.5716 5.5,46.5C 5.73656,43.3527 6.56989,40.3527 8,37.5C 17.1329,18.5242 31.6329,5.85756 51.5,-0.5 Z"/></g>
<g><path style="opacity:1" fill="#fdfdfe" d="M 341.5,-0.5 C 359.167,-0.5 376.833,-0.5 394.5,-0.5C 394.5,127.833 394.5,256.167 394.5,384.5C 376.167,384.5 357.833,384.5 339.5,384.5C 368.815,376.518 385.815,357.518 390.5,327.5C 391.666,236.668 391.832,145.668 391,54.5C 390.809,52.2922 390.309,50.2922 389.5,48.5C 382.923,22.9235 366.923,6.5902 341.5,-0.5 Z"/></g>
<g><path style="opacity:1" fill="#5c9be0" d="M 333.5,42.5 C 243.541,41.5051 153.541,41.1718 63.5,41.5C 63.5,40.5 63.5,39.5 63.5,38.5C 153.5,38.5 243.5,38.5 333.5,38.5C 333.5,39.8333 333.5,41.1667 333.5,42.5 Z"/></g>
<g><path style="opacity:1" fill="#fefefe" d="M 63.5,41.5 C 153.541,41.1718 243.541,41.5051 333.5,42.5C 339.451,45.2837 343.951,49.617 347,55.5C 347.667,145.833 347.667,236.167 347,326.5C 344.427,334.739 338.927,339.905 330.5,342C 310.5,342.333 290.5,342.667 270.5,343C 276.309,356.783 281.975,370.616 287.5,384.5C 273.167,384.5 258.833,384.5 244.5,384.5C 229.126,346.08 213.459,307.747 197.5,269.5C 185.689,293.621 174.022,317.788 162.5,342C 129.833,342.667 97.1667,342.667 64.5,342C 54.6667,340.167 48.8333,334.333 47,324.5C 46.3333,235.167 46.3333,145.833 47,56.5C 50.1423,48.8556 55.6423,43.8556 63.5,41.5 Z"/></g>
<g><path style="opacity:1" fill="#67a5ef" d="M 5.5,46.5 C 5.18749,49.5716 5.85416,52.405 7.5,55C 6.98957,56.8261 6.15623,56.9928 5,55.5C 4.5,147.166 4.33334,238.833 4.5,330.5C 3.33423,237.334 3.16756,144.001 4,50.5C 4.21003,48.9419 4.71003,47.6085 5.5,46.5 Z"/></g>
<g><path style="opacity:1" fill="#fd044c" d="M 195.5,99.5 C 194.833,100.5 194.167,101.5 193.5,102.5C 190.791,103.013 188.291,104.013 186,105.5C 181.031,103.306 179.197,104.64 180.5,109.5C 179.71,110.401 178.71,111.068 177.5,111.5C 174.873,112.092 172.206,112.425 169.5,112.5C 169.649,113.552 169.483,114.552 169,115.5C 166.575,116.643 164.408,117.976 162.5,119.5C 160.869,121.643 158.869,123.31 156.5,124.5C 152.571,126.133 148.904,128.133 145.5,130.5C 144.833,130.833 144.167,131.167 143.5,131.5C 141.685,132.63 139.685,133.296 137.5,133.5C 137.167,111.157 137.5,88.8234 138.5,66.5C 157.364,77.7643 176.364,88.7643 195.5,99.5 Z"/></g>
<g><path style="opacity:1" fill="#4795e8" d="M 256.5,134.5 C 236.38,123.909 216.714,112.576 197.5,100.5C 216.891,89.0521 236.391,77.7188 256,66.5C 256.5,89.1642 256.667,111.831 256.5,134.5 Z"/></g>
<g><path style="opacity:1" fill="#8b1c3b" d="M 195.5,99.5 C 196.167,99.5 196.5,99.8333 196.5,100.5C 196.027,101.906 195.027,102.573 193.5,102.5C 194.167,101.5 194.833,100.5 195.5,99.5 Z"/></g>
<g><path style="opacity:1" fill="#d8134a" d="M 193.5,102.5 C 189.554,105.385 185.221,107.718 180.5,109.5C 179.197,104.64 181.031,103.306 186,105.5C 188.291,104.013 190.791,103.013 193.5,102.5 Z"/></g>
<g><path style="opacity:1" fill="#0c1413" d="M 196.5,100.5 C 196.833,100.5 197.167,100.5 197.5,100.5C 216.714,112.576 236.38,123.909 256.5,134.5C 236.993,146.512 217.159,158.178 197,169.5C 177.371,158.273 157.871,146.94 138.5,135.5C 140.662,134.872 142.328,133.539 143.5,131.5C 144.167,131.167 144.833,130.833 145.5,130.5C 149.829,129.621 153.496,127.621 156.5,124.5C 158.869,123.31 160.869,121.643 162.5,119.5C 167.961,117.708 172.961,115.042 177.5,111.5C 178.71,111.068 179.71,110.401 180.5,109.5C 185.221,107.718 189.554,105.385 193.5,102.5C 195.027,102.573 196.027,101.906 196.5,100.5 Z"/></g>
<g><path style="opacity:1" fill="#c01746" d="M 177.5,111.5 C 172.961,115.042 167.961,117.708 162.5,119.5C 164.408,117.976 166.575,116.643 169,115.5C 169.483,114.552 169.649,113.552 169.5,112.5C 172.206,112.425 174.873,112.092 177.5,111.5 Z"/></g>
<g><path style="opacity:1" fill="#361119" d="M 156.5,124.5 C 153.496,127.621 149.829,129.621 145.5,130.5C 148.904,128.133 152.571,126.133 156.5,124.5 Z"/></g>
<g><path style="opacity:1" fill="#611527" d="M 143.5,131.5 C 142.328,133.539 140.662,134.872 138.5,135.5C 137.662,135.158 137.328,134.492 137.5,133.5C 139.685,133.296 141.685,132.63 143.5,131.5 Z"/></g>
<g><path style="opacity:1" fill="#fe074d" d="M 262.5,142.5 C 281.594,153.078 300.594,163.911 319.5,175C 300.771,186.363 281.771,197.196 262.5,207.5C 261.167,185.833 261.167,164.167 262.5,142.5 Z"/></g>
<g><path style="opacity:1" fill="#4a96ea" d="M 133.5,141.5 C 133.5,163.833 133.5,186.167 133.5,208.5C 115.888,198.691 98.2211,188.858 80.5,179C 78.4148,177.959 76.7481,176.459 75.5,174.5C 94.5742,162.965 113.908,151.965 133.5,141.5 Z"/></g>
<g><path style="opacity:1" fill="#0b1313" d="M 259.5,141.5 C 259.5,164.167 259.5,186.833 259.5,209.5C 259.5,209.833 259.5,210.167 259.5,210.5C 239.699,221.234 220.032,232.234 200.5,243.5C 200.333,220.498 200.5,197.498 201,174.5C 220.238,163.128 239.738,152.128 259.5,141.5 Z"/></g>
<g><path style="opacity:1" fill="#af1d48" d="M 262.5,142.5 C 261.167,164.167 261.167,185.833 262.5,207.5C 261.833,208.167 261.167,208.833 260.5,209.5C 260.167,209.5 259.833,209.5 259.5,209.5C 259.5,186.833 259.5,164.167 259.5,141.5C 259.435,141.062 259.601,140.728 260,140.5C 260.995,141.066 261.828,141.733 262.5,142.5 Z"/></g>
<g><path style="opacity:1" fill="#36638f" d="M 135.5,141.5 C 134.503,163.994 134.169,186.661 134.5,209.5C 134.167,209.5 133.833,209.5 133.5,209.5C 133.5,209.167 133.5,208.833 133.5,208.5C 133.5,186.167 133.5,163.833 133.5,141.5C 134.167,140.167 134.833,140.167 135.5,141.5 Z"/></g>
<g><path style="opacity:1" fill="#0d1414" d="M 135.5,141.5 C 154.955,152.973 174.622,163.973 194.5,174.5C 194.831,197.673 194.498,220.673 193.5,243.5C 191.566,242.89 189.899,241.89 188.5,240.5C 184.53,238.171 180.53,235.837 176.5,233.5C 174.77,232.974 173.436,231.974 172.5,230.5C 170.017,227.259 166.684,225.592 162.5,225.5C 156.503,222.171 150.503,218.838 144.5,215.5C 141.765,212.799 138.431,211.132 134.5,210.5C 134.5,210.167 134.5,209.833 134.5,209.5C 134.169,186.661 134.503,163.994 135.5,141.5 Z"/></g>
<g><path style="opacity:1" fill="#93c2f5" d="M 389.5,48.5 C 390.309,50.2922 390.809,52.2922 391,54.5C 391.832,145.668 391.666,236.668 390.5,327.5C 390.814,234.488 390.48,141.488 389.5,48.5 Z"/></g>
<g><path style="opacity:1" fill="#b01641" d="M 134.5,210.5 C 138.431,211.132 141.765,212.799 144.5,215.5C 141.151,214.488 137.817,213.488 134.5,212.5C 134.5,211.833 134.5,211.167 134.5,210.5 Z"/></g>
<g><path style="opacity:1" fill="#4795e8" d="M 259.5,210.5 C 260.156,232.859 259.489,254.859 257.5,276.5C 238.301,265.737 219.301,254.737 200.5,243.5C 220.032,232.234 239.699,221.234 259.5,210.5 Z"/></g>
<g><path style="opacity:1" fill="#e8acbf" d="M 133.5,209.5 C 133.833,209.5 134.167,209.5 134.5,209.5C 134.5,209.833 134.5,210.167 134.5,210.5C 134.5,211.167 134.5,211.833 134.5,212.5C 134.169,234.34 134.503,256.006 135.5,277.5C 135.44,278.043 135.107,278.376 134.5,278.5C 133.5,255.51 133.167,232.51 133.5,209.5 Z"/></g>
<g><path style="opacity:1" fill="#cf1448" d="M 144.5,215.5 C 150.503,218.838 156.503,222.171 162.5,225.5C 162.5,225.833 162.5,226.167 162.5,226.5C 159.478,226.196 156.478,225.696 153.5,225C 153.957,224.586 154.291,224.086 154.5,223.5C 151.386,220.367 148.052,217.7 144.5,215.5 Z"/></g>
<g><path style="opacity:1" fill="#3a131c" d="M 162.5,226.5 C 162.5,226.167 162.5,225.833 162.5,225.5C 166.684,225.592 170.017,227.259 172.5,230.5C 171.127,230.657 169.793,230.49 168.5,230C 166.963,228.064 164.963,226.897 162.5,226.5 Z"/></g>
<g><path style="opacity:1" fill="#fd034c" d="M 134.5,212.5 C 137.817,213.488 141.151,214.488 144.5,215.5C 148.052,217.7 151.386,220.367 154.5,223.5C 154.291,224.086 153.957,224.586 153.5,225C 156.478,225.696 159.478,226.196 162.5,226.5C 162.48,228.143 163.147,229.476 164.5,230.5C 168.144,232.826 172.144,234.159 176.5,234.5C 180.021,237.452 184.021,239.452 188.5,240.5C 189.899,241.89 191.566,242.89 193.5,243.5C 174.449,255.197 155.115,266.53 135.5,277.5C 134.503,256.006 134.169,234.34 134.5,212.5 Z"/></g>
<g><path style="opacity:1" fill="#d6124c" d="M 162.5,226.5 C 164.963,226.897 166.963,228.064 168.5,230C 169.793,230.49 171.127,230.657 172.5,230.5C 173.436,231.974 174.77,232.974 176.5,233.5C 176.5,233.833 176.5,234.167 176.5,234.5C 172.144,234.159 168.144,232.826 164.5,230.5C 163.147,229.476 162.48,228.143 162.5,226.5 Z"/></g>
<g><path style="opacity:1" fill="#831638" d="M 176.5,234.5 C 176.5,234.167 176.5,233.833 176.5,233.5C 180.53,235.837 184.53,238.171 188.5,240.5C 184.021,239.452 180.021,237.452 176.5,234.5 Z"/></g>
<g><path style="opacity:1" fill="#88bbf2" d="M 259.5,209.5 C 259.833,209.5 260.167,209.5 260.5,209.5C 260.833,232.51 260.5,255.51 259.5,278.5C 258.478,278.145 257.811,277.478 257.5,276.5C 259.489,254.859 260.156,232.859 259.5,210.5C 259.5,210.167 259.5,209.833 259.5,209.5 Z"/></g>
</svg>
